<?xml version="1.0" encoding="utf-8"?>
<!-- Generator: Adobe Illustrator 26.1.0, SVG Export Plug-In . SVG Version: 6.00 Build 0)  -->
<svg version="1.1" id="Layer_1" xmlns="http://www.w3.org/2000/svg" xmlns:xlink="http://www.w3.org/1999/xlink" x="0px" y="0px"
	 viewBox="0 0 500 90.9" style="enable-background:new 0 0 500 90.9;" xml:space="preserve">
<style type="text/css">
	.st0{fill:#373A36;}
	.st1{fill:#89754D;}
	.st2{fill:#89754D;stroke:#89754D;stroke-miterlimit:10;}
</style>
<g>
	<g>
		<g>
			<path class="st0" d="M127.1,49.8V35.1c0-1.4-0.3-2.4-0.8-3c-0.6-0.6-1.5-0.9-2.8-0.9h-0.4v-0.8h12.8v0.8c-1.3,0.1-2.3,0.4-2.8,1
				c-0.5,0.6-0.8,1.5-0.8,2.9v14.2c-1.9,1.5-4,2.6-6.3,3.4c-2.2,0.8-4.5,1.1-6.9,1.1c-2,0-3.8-0.2-5.6-0.7c-1.7-0.5-3.2-1.1-4.5-2
				c-2.8-1.9-5-4.4-6.6-7.6c-1.6-3.2-2.4-6.8-2.4-10.7c0-3.4,0.5-6.5,1.5-9.3c1-2.8,2.4-5.2,4.4-7.3c1.7-1.8,3.7-3.2,5.9-4.1
				c2.2-0.9,4.5-1.4,7-1.4c2.1,0,4.2,0.4,6.3,1.3c2.1,0.9,3.2,1.3,3.3,1.3c0.6,0,1.1-0.2,1.3-0.6c0.3-0.4,0.4-1.1,0.5-2h0.7l1,12.9
				h-0.5c-1-3.7-2.6-6.4-4.6-8.2c-2-1.8-4.6-2.7-7.6-2.7c-4.2,0-7.4,1.6-9.7,4.9c-2.3,3.3-3.4,7.9-3.4,14c0,6.4,1.2,11.3,3.7,14.9
				c2.5,3.6,5.8,5.4,10.2,5.4c1.4,0,2.7-0.2,3.9-0.5C125,51,126.1,50.5,127.1,49.8z"/>
			<path class="st0" d="M156.5,33.3h-3V47c0,2.1,0.3,3.4,1,4.1c0.7,0.7,2,1,4.1,1.1V53H143v-0.8c2-0.1,3.4-0.5,4.1-1.2
				c0.7-0.7,1-2.1,1-4.1V17.6c0-2.1-0.3-3.4-1-4.1c-0.7-0.7-2.1-1.1-4.1-1.1v-0.8h12.3c5.7,0,9.7,0.8,12,2.4
				c2.3,1.6,3.5,4.4,3.5,8.2c0,2.7-0.8,5-2.3,6.7c-1.5,1.8-3.7,3-6.7,3.8l8.8,14.2c1.3,2.1,2.4,3.5,3.3,4.1c0.9,0.6,1.9,1,3.1,1.1
				l0,0.8h-8.2L156.5,33.3z M153.4,31.5c0.1,0,0.4,0,0.6,0c0.7,0.1,1.2,0.1,1.4,0.1c3.1,0,5.5-0.8,7.2-2.4c1.7-1.6,2.5-3.9,2.5-6.8
				c0-2.8-0.7-5.1-2.2-6.7c-1.4-1.7-3.4-2.5-5.9-2.5c-0.7,0-1.3,0.1-1.9,0.2c-0.6,0.1-1.2,0.3-1.8,0.6V31.5z"/>
			<path class="st0" d="M189.3,38.6l-3.1,8.2c-0.3,0.8-0.5,1.5-0.6,1.9c-0.1,0.5-0.2,0.9-0.2,1.2c0,0.8,0.3,1.4,0.9,1.7
				c0.6,0.4,1.6,0.6,2.9,0.6V53h-9.7v-0.8c1-0.1,1.7-0.4,2.3-1.1c0.6-0.6,1.3-2,2.1-4.2l13.6-36.1h0.5l12.2,35.7
				c0,0,0.1,0.1,0.1,0.3c1.3,3.6,2.9,5.5,4.8,5.5h0.1V53H202v-0.8c1.2,0,2.1-0.2,2.7-0.7c0.6-0.4,0.8-1.1,0.8-2.1
				c0-0.4-0.1-0.9-0.2-1.5c-0.1-0.6-0.3-1.2-0.6-2l-2.5-7.4H189.3z M190,36.7h11.8l-5.5-16.4L190,36.7z"/>
			<path class="st0" d="M228,19.3v28.2c0,1.9,0.3,3.2,0.9,3.8c0.6,0.6,2,0.9,4.1,1V53h-12.3v-0.8c2.1-0.1,3.5-0.4,4.1-1
				c0.6-0.6,0.9-1.8,0.9-3.8V15.7c-0.4-1.2-1-2-1.7-2.6c-0.7-0.5-1.7-0.8-2.9-0.8c-0.1,0-0.3,0-0.4,0c-0.2,0-0.3,0-0.4,0v-0.8h9.3
				L249.7,41V17.2c0-1.9-0.3-3.2-1-3.8c-0.6-0.6-2-0.9-4.1-1v-0.8h12.3v0.8c-2.1,0.1-3.5,0.5-4.1,1c-0.6,0.6-0.9,1.8-0.9,3.8v36.2
				h-0.5L228,19.3z"/>
			<path class="st0" d="M279.6,11.6c6.5,0,11.5,1.8,15.1,5.4c3.6,3.6,5.4,8.6,5.4,14.9c0,3.5-0.6,6.7-1.8,9.6
				c-1.2,2.8-2.9,5.2-5.3,7.3c-1.7,1.5-3.8,2.6-6,3.3c-2.3,0.7-5.2,1-8.8,1H264v-0.8c2.1,0,3.4-0.4,4.1-1.1c0.7-0.7,1-2.1,1-4.1
				V17.6c0-2-0.3-3.4-1-4.1c-0.7-0.7-2-1.1-4.1-1.2v-0.8H279.6z M274.5,14.2v36.2c0.8,0.2,1.5,0.3,2.3,0.4c0.7,0.1,1.5,0.1,2.2,0.1
				c4.8,0,8.5-1.6,11.2-4.9c2.7-3.3,4-7.8,4-13.7s-1.3-10.4-4-13.7c-2.7-3.3-6.4-4.9-11.2-4.9c-0.6,0-1.3,0.1-2,0.1
				C276.2,13.9,275.4,14,274.5,14.2z"/>
		</g>
	</g>
	<g>
		<g>
			<path class="st0" d="M336.8,53.8h-0.5l-12.1-36.1c-0.8-2.4-1.5-3.9-2-4.5c-0.5-0.6-1.2-0.9-2.1-0.9h-0.4v-0.8h13.5v0.8h-0.8
				c-1.2,0-2,0.2-2.5,0.6c-0.5,0.4-0.8,1.1-0.8,2c0,0.4,0,0.8,0.1,1.3c0.1,0.5,0.2,1,0.4,1.6l8.6,25l8.4-24.5
				c0.2-0.5,0.3-1.1,0.4-1.7c0.1-0.6,0.2-1.1,0.2-1.5c0-1-0.2-1.7-0.7-2.2c-0.5-0.5-1.2-0.7-2.3-0.7c-0.1,0-0.2,0-0.4,0
				c-0.2,0-0.3,0-0.4,0v-0.8h10.1v0.8h-0.1c-0.9,0-1.7,0.3-2.3,1c-0.6,0.7-1.3,2.3-2.2,4.8L336.8,53.8z"/>
			<path class="st0" d="M386.6,11.6l0.4,8.9h-0.6c-0.4-2.8-1.1-4.7-2-5.6c-1-1-3-1.5-6.2-1.5h-8.6V30h6.6c3,0,5-0.4,5.8-1.3
				c0.9-0.8,1.3-2.5,1.4-4.9h0.7v14.3h-0.7c-0.1-2.5-0.6-4.1-1.4-4.9c-0.8-0.8-2.8-1.2-5.9-1.2h-6.6v15.6c0,1.5,0.2,2.5,0.5,2.9
				c0.4,0.4,1.3,0.6,2.7,0.6h4.7c2.6,0,4.5-0.2,5.7-0.6c1.2-0.4,2.2-1,3-1.9c0.6-0.7,1.1-1.5,1.7-2.5c0.5-1,1.1-2.1,1.6-3.4h0.6
				L387.2,53H359v-0.8c2,0,3.4-0.4,4.1-1.1c0.7-0.7,1-2.1,1-4.1V17.6c0-2-0.3-3.4-1-4.1c-0.7-0.7-2-1.1-4.1-1.2v-0.8H386.6z"/>
			<path class="st0" d="M402.1,17.6c0-2.1-0.3-3.4-1-4.1c-0.7-0.7-2-1.1-4.1-1.1v-0.8h15.6v0.8c-2.1,0.1-3.4,0.5-4.1,1.2
				c-0.7,0.7-1,2-1,4.1v29.9c0,1.5,0.2,2.5,0.6,2.8c0.4,0.4,1.3,0.6,2.7,0.6h3.8c2.5,0,4.3-0.2,5.6-0.6c1.2-0.4,2.3-1,3.1-1.9
				c0.7-0.7,1.3-1.6,1.8-2.7c0.5-1,1-2.3,1.5-3.6h0.7l-3,10.9H397v-0.8c2,0,3.4-0.4,4.1-1.1c0.7-0.7,1-2.1,1-4.1V17.6z"/>
			<path class="st0" d="M441.8,38.6l-3.1,8.2c-0.3,0.8-0.5,1.5-0.6,1.9c-0.1,0.5-0.2,0.9-0.2,1.2c0,0.8,0.3,1.4,0.9,1.7
				c0.6,0.4,1.6,0.6,2.9,0.6V53H432v-0.8c1-0.1,1.7-0.4,2.3-1.1c0.6-0.6,1.3-2,2.1-4.2l13.6-36.1h0.5l12.2,35.7c0,0,0.1,0.1,0.1,0.3
				c1.3,3.6,2.9,5.5,4.8,5.5h0.1V53h-13.4v-0.8c1.2,0,2.1-0.2,2.7-0.7c0.6-0.4,0.8-1.1,0.8-2.1c0-0.4-0.1-0.9-0.2-1.5
				c-0.1-0.6-0.3-1.2-0.6-2l-2.5-7.4H441.8z M442.5,36.7h11.8l-5.5-16.4L442.5,36.7z"/>
			<path class="st0" d="M475.5,53.8l-0.7,0V39.5h0.7c0.4,3.8,1.5,6.7,3.3,8.8c1.8,2.1,4,3.2,6.6,3.2c2,0,3.6-0.7,4.9-2
				s1.9-3,1.9-5.1c0-1.6-0.4-3.1-1.1-4.3c-0.7-1.2-2.2-2.7-4.3-4.3c-0.6-0.4-1.4-1-2.6-1.8c-2.9-2.1-5-3.8-6.3-5.2
				c-0.9-1-1.6-2.1-2.1-3.4c-0.5-1.3-0.7-2.7-0.7-4.1c0-3.1,0.9-5.7,2.8-7.6c1.9-1.9,4.3-2.9,7.4-2.9c1.4,0,2.8,0.3,4.4,0.9
				c1.5,0.6,2.4,0.9,2.7,0.9c0.5,0,0.9-0.1,1.3-0.5c0.3-0.3,0.5-0.8,0.6-1.4h0.7v13.5h-0.7c-0.3-3.7-1.3-6.5-3-8.5
				c-1.6-2-3.8-3-6.4-3c-1.6,0-3,0.6-4.1,1.8c-1.1,1.2-1.6,2.7-1.6,4.4c0,2.7,2.4,5.7,7.2,9c0.7,0.5,1.2,0.8,1.6,1.1
				c3.5,2.5,6,4.7,7.2,6.6c1.3,1.9,1.9,4.2,1.9,6.7c0,3.4-1,6.1-3,8.2c-2,2.1-4.6,3.1-7.8,3.1c-1.7,0-3.5-0.4-5.4-1.2
				c-2-0.8-3.1-1.2-3.5-1.2c-0.5,0-0.9,0.2-1.2,0.6C475.7,52.4,475.6,53,475.5,53.8z"/>
		</g>
	</g>
</g>
<path class="st1" d="M86.7,46.4l1.8-1.2L86.8,44c0,0-3.8-2.7-5.3-4l0,0c0.1-0.1,0.3-0.3,0.4-0.4c1.1-1.1,1.6-2.4,1.6-3.9
	c0-1.3-0.4-2.8-1.1-4.5c-0.3-0.6-0.7-1.2-1.1-1.7c0.1,0,0.1,0,0.2,0l0.1,0l0.1-0.1c1.2-0.6,2.4-1.6,2.5-1.7l0.8-0.7l-0.4-1
	c-0.4-1-1.4-1.8-2.7-2.3l3.5-2.8L84,19.6c-0.7-0.6-1.7-1.1-2.6-1.5c1-1.9,1.4-4,1.4-5.8c0-1.7-0.3-3.1-0.7-3.4l-0.3-0.3l-0.4-0.1
	c-0.3,0-4.8-0.9-8.6,1.1c-0.3-1-0.8-2-1.5-2.8l-1.2-1.3L69,7l-1.7,2.2c-0.4-1.3-1.2-2.2-2.1-2.6l-0.9-0.4l-0.7,0.7
	c-0.2,0.2-1.4,1.4-1.8,2.5c0,0.1-0.1,0.3-0.2,0.5C61,9.4,60.4,9,59.7,8.7c-3.6-1.8-6.3-1.6-8.4,0.5c-0.1,0.1-0.3,0.3-0.4,0.4
	c-1.3-1.6-3.8-5.3-3.8-5.3l-1.2-1.8l-1.2,1.8c0,0-2.5,3.7-3.8,5.3c-0.1-0.1-0.3-0.3-0.4-0.4c-2.1-2.1-4.9-2.3-8.5-0.4
	c-0.7,0.3-1.2,0.7-1.7,1.1c-0.1-0.2-0.1-0.4-0.2-0.6c-0.4-1-1.6-2.2-1.8-2.5l-0.7-0.7l-0.9,0.4c-0.9,0.4-1.7,1.3-2.1,2.7l-2.8-3.6
	l-1.2,1.3c-0.7,0.8-1.1,1.8-1.5,2.8c-3.8-2.1-8.6-1.1-8.9-0.9L9.5,9L9.3,9.7c0,0.1-0.2,1.2-0.2,2.7c0,1.7,0.3,3.8,1.3,5.8
	c-0.9,0.3-1.9,0.8-2.6,1.4l-1.3,1.2l3.5,2.8c-1.4,0.5-2.3,1.3-2.7,2.4l-0.4,1l0.8,0.7c0.1,0.1,1.4,1.2,2.5,1.7l0.1,0.1l0.1,0
	c0.1,0,0.1,0,0.2,0c-0.4,0.5-0.8,1-1.1,1.7c-0.8,1.7-1.1,3.2-1.1,4.5c0,1.5,0.5,2.9,1.6,3.9c0.1,0.1,0.3,0.3,0.4,0.4l0,0
	c-1.5,1.3-5.3,4-5.3,4l-1.8,1.2L5,46.4c1.1,0.7,4,2.7,5.2,3.9v0c-0.1,0.1-0.2,0.2-0.3,0.3l-0.1,0.1l-0.1,0.1c-1,1.2-1.5,2.5-1.5,4
	c0,1.3,0.4,2.8,1.1,4.5c0.3,0.6,0.7,1.2,1.1,1.7c-0.1,0-0.2,0-0.3,0l-0.1,0L10.1,61c-1.2,0.6-2.4,1.6-2.5,1.7l-0.8,0.7l0.4,1
	c0.5,1.1,1.6,1.8,2.7,2.2l-3.5,2.7l1.3,1.2c0.7,0.7,1.8,1.2,2.7,1.5c-1.1,1.9-1.4,4-1.4,5.7c0,1.8,0.3,3.1,0.5,3.4l0.3,0.4l0.6,0.1
	c0.2,0,4.8,0.9,8.6-1.1c0.3,0.9,0.8,2,1.5,2.8l1.2,1.3l2.8-3.6c0.5,1.3,1.2,2.2,2.1,2.6l0.9,0.4l0.7-0.7c0.2-0.2,1.4-1.5,1.8-2.7
	c0.1-0.1,0.1-0.2,0.1-0.4c0.5,0.4,1.1,0.8,1.8,1.2c3.7,1.7,6.5,1.5,8.5-0.4c0.1-0.1,0.3-0.3,0.4-0.4c1.3,1.6,3.8,5.3,3.8,5.3
	l1.2,1.8l1.2-1.8c0,0,2.5-3.7,3.8-5.3c0.1,0.2,0.2,0.3,0.4,0.4c2,2,4.7,2.1,8.4,0.4c0.7-0.3,1.3-0.7,1.8-1.2c0,0.1,0.1,0.2,0.1,0.4
	c0.5,1.3,1.7,2.5,1.9,2.7l0.7,0.7l0.9-0.4c1-0.4,1.7-1.3,2.1-2.6l2.8,3.6l1.2-1.3c0.7-0.8,1.2-1.8,1.5-2.8c3.8,2,8.3,1.1,8.6,1.1
	l0.9-0.2l0.2-0.9c0-0.1,0.3-1.2,0.3-2.7c0-1.7-0.3-3.8-1.4-5.8c0.9-0.4,1.9-0.9,2.7-1.6l1.3-1.2l-3.5-2.7c1.4-0.5,2.3-1.2,2.7-2.2
	l0.4-1l-0.8-0.7c-0.1-0.1-1.4-1.2-2.5-1.7l-0.1-0.1l-0.1,0c-0.1,0-0.2,0-0.2,0c0.4-0.5,0.8-1,1.1-1.7c0.8-1.8,1.2-3.3,1.2-4.6
	c0-1.5-0.5-2.8-1.5-4l-0.1,0l0,0c-0.1-0.1-0.2-0.2-0.3-0.3l0,0C82.7,49.1,85.7,47.1,86.7,46.4 M83.2,26.5c0,0-1.2,1-2.2,1.5
	c-1.5,0.5-3.6,0.3-3.6,0.3s2.4,0.9,3.6,3.4c1.7,3.8,1,5.6-0.2,6.8c-1,1-2,1.4-3,1.4c-0.8-2-2.2-4.4-4.8-5.5c0.3-0.3,0.7-0.6,1.3-0.8
	c2-0.5,3.6,1,3.6,2c0,0,0.3-1.7-2.7-3.4c-0.6-0.4-1.4-0.7-2.1-0.9c0.1-1.4-0.1-2.7-0.5-3.8c3.2-0.8,5.5-0.6,5.5-0.6l2.2,0.2L79.7,25
	c-0.1-0.1-0.1-0.3-0.2-0.5C80.8,24.7,82.7,25.1,83.2,26.5 M76.1,75.5c-1.2-0.1-4.3-0.5-5.6-2.6c0,0-0.9,3.2-5.1,4.8
	c0,0,0.4-2.8-0.6-6.3c1.3-0.6,2.4-1.3,2.9-1.7l0.1,0l0,0c0.7-0.6,1.2-0.4,1.3-0.4l1.4,0.4l-0.4-1.4c0,0-0.2-0.5,0.4-1.3c0,0,0,0,0,0
	l0-0.1v0c0.4-0.5,1-1.5,1.6-2.8c3.6,0.8,6.2,0.5,6.2,0.5c-1.3,4.4-4.6,5.1-4.6,5.1C75.8,71.1,76.1,74.2,76.1,75.5 M26.4,77.7
	c-4.3-1.5-5.1-4.8-5.1-4.8c-1.3,2.1-4.4,2.4-5.6,2.6c0-1.4,0.3-4.4,2.4-5.8c0,0-3.2-0.7-4.6-5.1c0,0,2.6,0.4,6.2-0.5
	c0.6,1.4,1.3,2.4,1.7,2.9c0.5,0.6,0.4,1.3,0.4,1.3l-0.4,1.4l1.4-0.4c0,0,0.6-0.2,1.3,0.4l0,0l0,0c0.6,0.4,1.6,1.1,3,1.7
	C26,75,26.4,77.7,26.4,77.7 M15.7,14.8c1.2,0.2,4.2,0.5,5.6,2.5c0,0,0.9-3.2,5.1-4.7c0,0-0.4,2.6,0.6,6.3c-1.3,0.6-2.4,1.3-2.9,1.7
	l0,0l0,0c0,0,0,0,0,0c-0.7,0.5-1.5,0.4-1.5,0.4l-1.2-0.2l0.4,1.2c0,0,0.2,0.5-0.4,1.3c0,0,0,0,0,0l0,0.1v0c-0.4,0.5-1.1,1.5-1.6,2.8
	c-3.6-0.9-6.2-0.7-6.2-0.7c1.4-4.2,4.6-4.9,4.6-4.9C16,19,15.7,16.1,15.7,14.8 M45.2,32.2c0.1,1-0.2,1.8-0.7,2.4l-1.2-4.9
	c-0.1-0.5-0.4-0.4-0.5-0.4c-0.4,0.1-0.4,0.4-0.4,0.7l0.9,5c-0.2,0-0.4,0.1-0.5,0.2l-3.4-7.4c-0.2-0.4-0.4-0.4-0.6-0.3
	c-0.3,0.1-0.4,0.4-0.3,0.7l2.9,7.6c-0.2,0.1-0.3,0.2-0.5,0.3l-2.8-4.2c-0.2-0.3-0.5-0.4-0.8-0.2c-0.3,0.2-0.2,0.5-0.1,0.8l0,0.1h0
	l2.5,4.2c-1,0-1.8-0.4-2.4-1.1L36,34.4c-1.5-1.4-3.1-2.9-2.8-5.4c0.4-3.1,4.2-4.3,4.3-4.3h0.1l0.1,0c0,0,3.6-1.8,6,0.1
	c1.9,1.6,1.7,4,1.7,6.1L45.2,32.2L45.2,32.2z M32.5,37.1c0,0,2.3,1.5,4.3,2.9c-0.1,0.1-0.2,0.3-0.2,0.4l-7.7-3c0,0-0.4,0-0.6,0.4
	c-0.1,0.4,0.2,0.7,0.3,0.7l7.5,3.3C36,42,36,42.2,35.9,42.3l-5.1-1c-0.2,0-0.6,0-0.7,0.5c0,0.4,0.4,0.6,0.4,0.6l5,1.2
	c-0.7,0.8-1.5,1.1-2.4,1c-0.7-0.1-1.4-0.1-2.1-0.1c-2,0-4-0.1-5.4-1.8c-1.9-2.4-0.1-6-0.1-6.1l0-0.1l0,0c0-0.1,1.3-3.8,4.4-4.1
	c2.3-0.2,3.8,1.3,5.3,2.7l1.3,1.2l0-0.1c0.7,0.7,1,1.6,1.1,2.4l-4.4-2.7c-0.1-0.1-0.4-0.2-0.7,0.2C32.2,36.7,32.4,36.9,32.5,37.1
	 M36.5,54l-1.3,1.2c-1.5,1.5-3,3-5.3,2.7c-3.1-0.3-4.3-4.1-4.3-4.1l0-0.1l0-0.1c0,0-1.8-3.7,0.1-6c1.6-1.9,3.7-1.9,5.8-1.9l1.6,0h0
	c0.9-0.1,1.7,0.3,2.4,1l-4.9,1.1c-0.2,0.1-0.4,0.4-0.4,0.6c0,0.3,0.3,0.5,0.6,0.5l5.1-1c0.1,0.2,0.1,0.3,0.1,0.5l-7.5,3.3
	c0,0-0.5,0.3-0.3,0.8c0.2,0.4,0.6,0.3,0.6,0.3l7.7-3c0.1,0.1,0.1,0.3,0.2,0.4l-4.3,2.9c-0.2,0.1-0.4,0.5-0.2,0.9
	c0.2,0.3,0.7,0.2,0.7,0.2l4.4-2.8C37.5,52.3,37.2,53.3,36.5,54L36.5,54z M33.3,25.5l-2.2-2.8c-0.2-0.2-0.7-0.5-1-0.2
	c-0.4,0.3-0.1,0.9,0,1.1l0,0l2.3,3.1c-0.3,0.6-0.6,1.3-0.7,2.1c0,0.2,0,0.4,0,0.6c0,0.1,0,0.2,0,0.2l-6.5-6.2
	c-0.1-0.1-0.3-0.2-0.4-0.2c-0.1,0-0.3,0.1-0.4,0.2c-0.1,0.1-0.2,0.3-0.2,0.4c0,0.2,0,0.3,0.2,0.4l6.4,6.7c-0.4,0-0.7,0-1.1,0
	c-0.8,0.1-1.4,0.3-2,0.6l-3.2-2.4c-0.2-0.1-0.8-0.3-1,0c-0.3,0.4,0,0.8,0.2,1l2.8,2.2c-1.1,1-1.8,2.2-2.1,3
	c-1.8-0.8-3.3-1.4-3.4-1.5c-0.6-1-0.8-2.1-0.8-3.1c0-3,1.8-5.8,2.4-6.6l0,0v0c0.5-0.7,0.7-1.3,0.7-1.8c0.5-0.1,1.2-0.3,1.7-0.6l0,0
	c1-0.7,6-4,9.9-1.6c0.1,0.1,0.7,1.6,1.4,3.3C35.4,23.9,34.3,24.5,33.3,25.5 M20.4,35.4c0.2,0.1,1.7,0.7,3.5,1.4
	c-0.3,0.7-0.7,2-0.7,3.3c0,0.1,0,0.1,0,0.2l-3.4-0.4c-0.5-0.1-0.9,0-0.9,0.5c-0.1,0.5,0.5,0.7,0.7,0.8l3.9,0.6
	c0.2,0.7,0.5,1.3,1,1.9c0.2,0.2,0.4,0.4,0.6,0.6l-9,0.1l0,0c-0.5,0-0.8,0.3-0.8,0.7c0,0.3,0.3,0.6,0.8,0.6l9.2,0.1
	c-0.3,0.3-0.6,0.5-0.9,0.9c-0.5,0.6-0.7,1.2-0.9,1.8l-3.9,0.6h0h0l0,0c-0.4,0.1-0.7,0.2-0.7,0.7c0,0.5,0.5,0.5,0.9,0.5l3.5-0.4
	c0,0.2,0,0.3,0,0.4c0,1.3,0.3,2.5,0.6,3.2c-1.7,0.7-3.2,1.3-3.4,1.4c-5-1.2-5.9-7.9-5.9-8c-0.1-0.8-0.4-1.4-0.7-1.8
	c0.3-0.4,0.6-1,0.7-1.8C14.5,43.3,15.4,36.5,20.4,35.4 M25,68.5c-0.6-0.5-1.2-0.7-1.7-0.7c-0.1-0.5-0.2-1.2-0.7-1.8
	c-0.6-0.8-2.4-3.6-2.4-6.6c0-1.1,0.2-2.1,0.8-3.1c0.2-0.1,1.7-0.7,3.4-1.5c0.3,0.7,0.9,1.9,2,2.9l-2.6,2.1c-0.2,0.1-0.6,0.6-0.2,1
	c0.2,0.2,0.6,0.1,0.8,0l3.1-2.3c0.6,0.4,1.4,0.7,2.2,0.7c0.3,0,0.5,0,0.8,0l-6.1,6.4v0c-0.1,0.1-0.4,0.5,0,0.8
	c0.2,0.2,0.5,0.3,0.8,0l6.5-6.1c0,0.1,0,0.3,0,0.3c0,0.2,0,0.4,0,0.6c0.1,0.7,0.4,1.4,0.7,2l-2.3,3.2c0,0,0,0,0-0.1l0,0.1l0,0
	c-0.1,0.2-0.2,0.6,0,0.8c0.3,0.2,0.7,0,0.9-0.2l2.2-2.7c1,1.1,2.2,1.8,3,2.2c-0.7,1.7-1.3,3.1-1.4,3.3C31.1,72.5,26.3,69.5,25,68.5
	L25,68.5z M33.2,61.4c-0.2-2.5,1.3-4,2.8-5.4l1.2-1.2l0,0l0,0c0.6-0.8,1.4-1,2.3-1.1L37,57.9c-0.1,0.3-0.2,0.7,0.1,0.9
	c0.2,0.1,0.5,0,0.7-0.3l2.8-4.3c0.2,0.1,0.3,0.2,0.5,0.3L38.4,62c-0.2,0.4,0,0.7,0.2,0.8c0.3,0.1,0.6,0,0.7-0.3l3.4-7.4
	c0.2,0.1,0.4,0.1,0.5,0.2l-0.9,5c-0.1,0.4,0.1,0.6,0.4,0.7c0.3,0,0.5-0.2,0.5-0.5l1.2-4.8c0.4,0.5,0.8,1.3,0.8,2.2
	c0,0.1,0,0.2,0,0.3v0l0,1.3c0,0.5,0,1,0,1.5c0,1.7-0.2,3.4-1.7,4.6c-2.5,1.8-6,0.1-6.1,0.1h0l0,0C37.4,65.8,33.6,64.3,33.2,61.4
	 M36.9,45.1c0-4.9,4-9,9-9c5.1,0,9,4.1,9,9c0,4.9-4,9-9,9C40.9,54.1,36.9,50.1,36.9,45.1 M65.4,12.6c4.2,1.5,5.1,4.7,5.1,4.7
	c1.4-2,4.4-2.4,5.6-2.5c0,1.4-0.3,4.2-2.4,5.8c0,0,3.2,0.7,4.6,4.9c0,0-2.6-0.2-6.2,0.7c-0.6-1.3-1.2-2.4-1.6-2.8c0,0,0,0,0,0l0-0.1
	c0,0,0,0,0,0C69.9,22.5,70,22,70.1,22l0.3-1.2L69.2,21c0,0-0.7,0.1-1.5-0.4c-0.6-0.4-1.6-1.1-2.9-1.7C65.8,15.2,65.4,12.6,65.4,12.6
	 M66.9,21.8c0.6,0.4,1.2,0.6,1.7,0.6c0,0.5,0.2,1.1,0.7,1.8l0,0l0,0c0.6,0.7,2.4,3.6,2.4,6.6c0,1.1-0.2,2.1-0.8,3.1
	c-0.2,0.1-1.7,0.8-3.4,1.5c-0.3-0.7-1-2-2.1-2.9l2.9-2.4c0.3-0.3,0.2-0.6,0-0.7c-0.3-0.2-0.6-0.3-0.8,0l-3.2,2.3
	c-0.6-0.4-1.3-0.6-2.2-0.7c-0.3,0-0.6,0-0.9,0l6.3-6.5c0.1-0.1,0.3-0.7,0-0.9c-0.2-0.2-0.7-0.1-0.9,0.1L60,29.9c0-0.1,0-0.1,0-0.2
	c0-0.3,0-0.6-0.1-0.9c-0.1-0.7-0.3-1.4-0.6-2l2.4-3.3c0.2-0.4,0.2-0.6-0.1-0.8c-0.3-0.2-0.7-0.1-0.9,0.2v0l-2.2,2.7
	c-1-1.1-2.2-1.8-2.9-2.1c0.7-1.7,1.3-3.2,1.4-3.3C60.7,17.8,65.5,20.8,66.9,21.8 M54.3,51.5l4.4,2.7c0.1,0.1,0.5,0.1,0.7-0.2
	c0.2-0.4,0-0.8-0.2-0.9l-4.3-2.9c0.1-0.1,0.1-0.3,0.2-0.4l7.7,3c0,0,0.5,0.1,0.6-0.4c0.2-0.4-0.3-0.7-0.3-0.7l-7.5-3.3
	c0.1-0.2,0.1-0.4,0.1-0.5l5.1,1c0.4,0,0.6-0.2,0.6-0.6c0-0.2-0.1-0.5-0.3-0.6l-5-1.2c0.6-0.6,1.4-1,2.5-0.9l1.6,0
	c2.1,0,4.3,0,5.9,1.9c1.9,2.3,0.1,6,0.1,6l0,0.1l0,0.1c0,0-1.3,3.8-4.3,4.1c-2.3,0.2-3.9-1.3-5.3-2.7L55.3,54l0,0
	C54.7,53.4,54.3,52.5,54.3,51.5 M66.2,42.7c-1.4,1.8-3.4,1.8-5.4,1.8c-0.7,0-1.4,0-2.1,0.1c-1.1,0.1-2-0.4-2.6-1l5.1-1.2
	c0.2,0,0.4-0.3,0.3-0.7c-0.1-0.4-0.4-0.4-0.6-0.4l-5.1,1c0-0.2-0.1-0.4-0.1-0.5l7.5-3.3c0,0,0.4-0.3,0.2-0.7
	c-0.2-0.4-0.7-0.3-0.7-0.3l-7.6,2.9c-0.1-0.1-0.2-0.3-0.2-0.4c2.1-1.4,4.3-2.9,4.3-2.9c0.2-0.1,0.3-0.5,0.1-0.8
	c-0.2-0.3-0.6-0.2-0.7-0.1l-4.3,2.6c0-1,0.4-1.7,1-2.4l0,0.1l1.3-1.2c1.5-1.4,3-2.9,5.3-2.7c3,0.3,4.3,4,4.3,4.1l0,0l0,0.1
	C66.3,36.7,68.1,40.4,66.2,42.7 M58.4,29c0.3,2.5-1.2,4-2.7,5.4c0,0-1.2,1.2-1.2,1.2c-0.7,0.8-1.5,1.1-2.4,1.2c0,0,0,0-0.1,0
	l2.6-4.3c0.2-0.4,0.1-0.8-0.1-0.9c-0.3-0.1-0.6,0-0.8,0.2L51,36c-0.2-0.1-0.3-0.2-0.5-0.3l2.9-7.6c0.1-0.3,0-0.5-0.2-0.6
	c-0.3-0.1-0.6,0.1-0.7,0.3l-3.4,7.4c-0.2-0.1-0.4-0.1-0.5-0.2l1-5c0.1-0.5-0.1-0.7-0.4-0.7c-0.2,0-0.4,0-0.6,0.4l-1.2,4.8
	c-0.5-0.6-0.8-1.3-0.8-2.1c0-0.1,0-0.2,0-0.3v0l0-1.3c0-0.5-0.1-1-0.1-1.5c0-1.7,0.3-3.4,1.7-4.7c2.5-1.9,6-0.1,6-0.1l0.1,0h0.1
	C54.4,24.7,58.2,25.9,58.4,29 M46.5,59.6l0-1.3v0c0-0.1,0-0.2,0-0.3c0-0.9,0.3-1.6,0.8-2.2l1.2,4.7c0.1,0.3,0.3,0.5,0.6,0.5
	c0.3-0.1,0.4-0.4,0.4-0.7l-1-5c0.2-0.1,0.3-0.1,0.5-0.2l3.4,7.4c0.1,0.3,0.5,0.4,0.7,0.3c0.2-0.1,0.4-0.3,0.2-0.8l-2.9-7.5
	c0.2-0.1,0.4-0.2,0.5-0.3l2.8,4.2c0.3,0.3,0.5,0.4,0.8,0.3c0.3-0.1,0.3-0.5,0.1-0.9l-2.6-4.3c0.8,0.1,1.7,0.4,2.4,1.2l1.2,1.2
	c1.5,1.4,3.1,2.9,2.7,5.4c-0.3,2.9-4.1,4.3-4.1,4.3l0,0h0c0,0-3.6,1.6-6.1-0.1c-1.4-1.2-1.7-2.9-1.7-4.6
	C46.5,60.5,46.5,60,46.5,59.6 M58.4,64.7l2.2,2.8c0.1,0.2,0.5,0.4,0.9,0.2c0.5-0.3,0.3-0.8,0.1-1l-2.3-3.2c0.3-0.6,0.5-1.2,0.6-2
	c0.1-0.3,0.1-0.7,0.1-1l6.5,6.4c0.2,0.1,0.6,0.3,1,0c0.2-0.2,0.3-0.7,0-1l-6.3-6.5c0.3,0,0.6,0,1,0c0.8-0.1,1.4-0.3,2.1-0.6l3.2,2.4
	c0.1,0.1,0.6,0.2,0.9-0.1c0.3-0.4,0-0.8-0.1-0.9l-2.8-2.2c1.1-1,1.7-2.3,2.1-3c1.7,0.7,3.2,1.4,3.4,1.5c0.6,1,0.8,2.1,0.8,3.1
	c0,3-1.8,5.8-2.4,6.6l0,0l0,0c-0.5,0.7-0.6,1.2-0.7,1.7c-0.5,0-1.1,0.2-1.7,0.7h0l-0.1,0c0,0,0,0,0,0c-1.4,1-6.2,4-9.9,1.6
	c-0.1-0.1-0.7-1.6-1.4-3.3C56.3,66.5,57.5,65.8,58.4,64.7 M71.3,55c-0.1-0.1-1.7-0.7-3.4-1.3c0.3-0.8,0.6-2,0.6-3.3
	c0-0.1,0-0.2,0-0.3l3.4,0.4c0.5,0.1,0.9-0.1,0.9-0.5c0.1-0.5-0.3-0.8-0.7-0.8l-3.9-0.6c-0.2-0.7-0.5-1.3-1-1.9
	c-0.2-0.3-0.5-0.5-0.7-0.8l9.1-0.3c0.2,0,0.7-0.2,0.7-0.6c0-0.4-0.5-0.5-0.7-0.5l-9-0.3c0.2-0.2,0.4-0.4,0.7-0.7
	c0.5-0.6,0.8-1.2,1-1.9l3.9-0.6c0.5-0.1,0.7-0.3,0.6-0.7C72.8,40.1,72.4,40,72,40l-3.4,0.4c0-0.1,0-0.2,0-0.4c0-1.3-0.4-2.6-0.6-3.3
	c1.7-0.7,3.3-1.3,3.4-1.4c5,1.2,5.9,8,5.9,8c0.1,0.8,0.4,1.4,0.7,1.8c-0.3,0.4-0.6,0.9-0.7,1.8C77.3,47,76.4,53.8,71.3,55 M74,32.2
	l0.1,0L74,32.2C74.1,32.2,74.1,32.2,74,32.2 M70.1,7.8c1.2,1.4,1.7,4.2,1.7,4.2c3.4-3.2,9.1-2,9.1-2s1.2,5.6-2,9
	c0,0,2.7,0.5,4.1,1.7c0,0-2.5,1.9-3.8,3.1c-0.9-1.9-2.1-3-3.1-3.7c1.3-2,1.4-4.4,1.4-5.3V14c0.6-1,1-1.7,1-1.7s-0.6,0.4-1.5,0.9
	l-1.4,0.2c-1,0.1-3.1,0.5-4.8,1.6c-0.7-1-1.9-2.2-3.7-3.2C68.3,10.3,70.1,7.8,70.1,7.8 M52.3,10.2c1.2-1.2,3.1-2,6.8-0.2
	c2.5,1.2,3.4,3.5,3.4,3.5s-0.2-2.2,0.5-3.7c0.3-0.8,1.5-2,1.5-2c1.2,0.5,1.6,2.3,1.8,3.5c-0.1-0.1-0.3-0.1-0.4-0.2l-2.3-0.8l0.3,2.4
	c0,0,0.3,2.4-0.5,5.6c-1.2-0.4-2.5-0.7-3.9-0.5c-0.3-0.8-0.6-1.5-0.9-2c-1.7-3.1-3.4-2.7-3.4-2.7c1,0,2.6,1.5,2.2,3.4
	c-0.2,0.7-0.5,1.2-0.9,1.4c-1.1-2.5-3.5-3.9-5.5-4.7C51,12.2,51.3,11.2,52.3,10.2 M42,10.5c1.3-1.7,3.9-5.4,3.9-5.4s2.6,3.7,3.9,5.4
	c0.8,0.8,0.8,1.6,0.7,2.5c-1.6-0.6-2.8-0.7-2.8-0.7c-0.8-0.1-1-0.6-1-0.7l-0.8-1.9l-0.8,1.9c0,0.1-0.3,0.6-1,0.7l0,0
	c0,0-1.3,0.2-2.8,0.7C41.1,12.2,41.2,11.3,42,10.5 M44.3,13.8L44.3,13.8c0.7-0.1,1.2-0.4,1.6-0.7c0.4,0.3,0.9,0.6,1.6,0.7
	c1.9,0.2,7.1,1.7,8,5.7c-0.1,0.2-0.7,1.7-1.3,3.4c-0.8-0.3-2.1-0.7-3.5-0.6l0.4-3.4c0.1-0.7-0.3-0.8-0.6-0.8c-0.3,0-0.6,0.3-0.6,0.6
	l0-0.1l-0.7,3.9c-0.7,0.2-1.3,0.5-2,1l0,0l0,0c-0.2,0.2-0.4,0.4-0.5,0.5l-0.2-9c0-0.3-0.2-0.6-0.5-0.6c-0.3,0-0.4,0.3-0.4,0.6
	l-0.3,9.1c-0.2-0.2-0.4-0.5-0.7-0.7l0,0l0,0c-0.6-0.5-1.2-0.8-1.9-1L42,18.6c-0.1-0.4-0.5-0.6-0.7-0.5c-0.4,0.1-0.6,0.5-0.6,0.8v0
	l0.4,3.5c-1.4-0.1-2.8,0.3-3.5,0.6c-0.7-1.7-1.3-3.3-1.3-3.5C37.2,15.5,42.3,14,44.3,13.8 M27.2,7.8c0,0,1.2,1.2,1.5,2
	c0.7,1.5,0.5,3.7,0.5,3.7s0.9-2.4,3.4-3.5c3.7-1.9,5.6-1,6.8,0.2c1,1,1.3,2.1,1.2,3c-2,0.8-4.3,2.2-5.4,4.7
	c-0.4-0.3-0.7-0.7-0.8-1.4c-0.3-1.9,1.2-3.4,2.2-3.4c0,0-1.7-0.3-3.4,2.7c-0.3,0.5-0.7,1.2-0.9,2c-1.3-0.1-2.7,0.1-3.9,0.5
	c-0.8-3.2-0.5-5.5-0.5-5.6l0.3-2.4l-2.3,0.8c-0.2,0.1-0.3,0.1-0.4,0.2C25.6,10.1,26,8.3,27.2,7.8 M8.7,20.7c1.3-1.2,4.1-1.7,4.1-1.7
	c-3.2-3.4-2.1-9-2.1-9s5.8-1.2,9.2,2c0,0,0.5-2.9,1.7-4.2c0,0,1.8,2.5,3,3.9c-1.9,0.9-3,2.2-3.8,3.2c-1.7-1.1-3.8-1.4-4.8-1.6
	l-1.5-0.2c-0.7-0.4-1.3-0.7-1.3-0.7s0.3,0.3,0.9,1.3l0.1,1c0,0.9,0.1,3.3,1.4,5.3c-1,0.7-2.2,1.9-3.1,3.7
	C11.2,22.6,8.7,20.7,8.7,20.7 M10.8,31.7c1.2-2.5,3.6-3.4,3.6-3.4s-2,0.2-3.6-0.3c-1-0.5-2.2-1.5-2.2-1.5c0.5-1.3,2.4-1.8,3.7-1.9
	c-0.1,0.2-0.1,0.3-0.2,0.5l-0.7,2.2l2.2-0.2c0,0,2.3-0.2,5.6,0.6c-0.4,1.2-0.6,2.5-0.5,3.8c-0.8,0.2-1.5,0.6-2.1,0.9
	c-3.1,1.7-2.7,3.4-2.7,3.4c0-1,1.5-2.6,3.6-2c0.6,0.1,1,0.4,1.3,0.8c-2.5,1.1-4,3.5-4.8,5.5c-0.9,0-2-0.4-3-1.4
	C9.7,37.3,9.1,35.5,10.8,31.7 M17.7,32.2C17.7,32.2,17.7,32.2,17.7,32.2l-0.1,0L17.7,32.2z M5.8,45.1c0,0,3.9-2.7,5.4-4.1
	c0.8-0.7,1.7-0.7,2.5-0.7C13.2,42,13,43.2,13,43.2c-0.1,0.9-0.6,1.3-0.6,1.3l-1,0.7l1,0.7c0,0,0.5,0.3,0.7,1.3c0,0,0.2,1.2,0.7,2.8
	c-0.8,0.1-1.6,0-2.5-0.7C9.7,47.7,5.8,45.1,5.8,45.1 M8.6,63.8c0,0,1.2-1,2.2-1.5c1.5-0.5,3.6-0.3,3.6-0.3s-2.4-1-3.6-3.4
	c-1.7-3.9-1-5.6,0.2-7c1-0.9,2-1.2,3-1.2c0.8,2,2.3,4.4,4.8,5.6c-0.3,0.3-0.7,0.6-1.3,0.7c-2,0.5-3.6-1-3.6-2.2c0,0-0.3,1.7,2.7,3.6
	c0.6,0.3,1.3,0.6,2.1,0.9c-0.1,1.3,0.1,2.7,0.5,3.9c-3.2,0.7-5.5,0.4-5.5,0.4l-2.3-0.3l0.7,2.2c0,0.2,0.1,0.4,0.2,0.6
	C11,65.6,9.1,65.1,8.6,63.8 M17.7,58.1l-0.1,0C17.7,58.1,17.7,58.1,17.7,58.1C17.7,58.1,17.7,58.1,17.7,58.1 M21.6,82.5
	c-1.2-1.3-1.7-4.2-1.7-4.2c-3.4,3.2-9.2,2-9.2,2s-1.2-5.6,2.1-9c0,0-2.8-0.7-4.1-1.9c0,0,2.5-1.8,3.9-2.9c0.8,1.9,2,3,3,3.7
	c-1.3,1.9-1.4,4.5-1.4,5.3v0.7c-0.6,1.1-1,1.8-1,1.8s0.6-0.4,1.5-0.9L16,77c1.1-0.1,3.2-0.4,4.8-1.5c0.7,1,1.9,2.3,3.8,3.2
	C23.5,80,21.6,82.5,21.6,82.5 M39.4,80.1c-1.2,1.2-3.1,1.9-6.8,0.2c-2.6-1.2-3.4-3.6-3.4-3.6s0.2,2-0.5,3.6c-0.4,1-1.5,2.2-1.5,2.2
	C26,82,25.6,80.2,25.5,79c0.1,0.1,0.3,0.1,0.4,0.2l2.3,0.8l-0.3-2.4c0,0-0.3-2.5,0.5-5.6c1.2,0.4,2.5,0.6,3.9,0.5
	c0.3,0.8,0.6,1.5,0.9,2c1.7,3,3.4,2.7,3.4,2.7c-1,0-2.5-1.5-2.2-3.4c0.2-0.8,0.5-1.2,0.9-1.5c1.1,2.4,3.3,3.9,5.4,4.7
	C40.7,78.1,40.4,79.1,39.4,80.1 M40.9,80.7L40.9,80.7C40.9,80.8,40.9,80.8,40.9,80.7L40.9,80.7z M49.8,79.8
	c-1.3,1.7-3.9,5.4-3.9,5.4s-2.5-3.7-3.9-5.4c-0.8-0.8-0.9-1.7-0.7-2.5c1,0.4,2,0.6,2.8,0.7c0.8,0.1,1,0.6,1,0.6l0.7,1.9l0.8-1.9
	c0-0.1,0.2-0.6,1-0.6c0.8-0.1,1.8-0.3,2.8-0.7C50.6,78.1,50.5,79,49.8,79.8 M47.5,76.6c-0.7,0.1-1.3,0.4-1.6,0.7
	c-0.4-0.4-0.9-0.6-1.6-0.7c-0.1,0-6.9-0.9-8-5.9c0.1-0.2,0.6-1.6,1.3-3.2c0.8,0.3,2.1,0.6,3.6,0.6l-0.4,3.5l0,0
	c-0.1,0.4,0.2,0.7,0.4,0.8c0.3,0,0.6-0.3,0.7-0.6l0.6-3.8c0.7-0.2,1.3-0.5,2-0.9l0,0l0.1,0c0.2-0.2,0.4-0.3,0.5-0.5l0.2,8.7
	c0,0.5,0.1,0.7,0.5,0.7c0.3,0,0.5-0.3,0.5-0.7l0.2-8.9c0.2,0.3,0.4,0.5,0.7,0.7l0,0l0,0c0.6,0.4,1.2,0.7,1.9,0.9l0.6,3.9
	c0,0.3,0.4,0.6,0.7,0.5c0.4-0.1,0.6-0.4,0.6-0.8L50.6,68c1.5,0.1,2.8-0.3,3.6-0.6c0.7,1.7,1.2,3.1,1.3,3.2
	C54.4,75.6,47.6,76.5,47.5,76.6 M64.6,82.5c0,0-1.2-1.2-1.5-2.2c-0.7-1.5-0.5-3.6-0.5-3.6s-0.8,2.4-3.4,3.6c-3.7,1.7-5.6,1-6.8-0.2
	c-1-1-1.3-2.1-1.3-3c2.1-0.9,4.4-2.4,5.5-4.8c0.4,0.3,0.8,0.7,0.9,1.5c0.4,1.9-1.2,3.4-2.2,3.4c0,0,1.7,0.3,3.4-2.7
	c0.3-0.6,0.6-1.3,0.9-2c1.3,0.1,2.7-0.1,3.9-0.5c0.8,3.1,0.5,5.6,0.5,5.6L63.6,80l2.3-0.8c0.1-0.1,0.3-0.1,0.4-0.2
	C66.2,80.2,65.7,82,64.6,82.5 M83,69.4c-1.4,1.2-4.1,1.9-4.1,1.9c3.2,3.4,2,9,2,9s-5.7,1.2-9.1-2c0,0-0.5,2.9-1.7,4.2
	c0,0-1.8-2.5-3-3.9c1.9-0.9,3-2.2,3.7-3.2c1.7,1.1,3.8,1.4,4.8,1.5l1.7,0.3c0.7,0.4,1.2,0.7,1.2,0.7s-0.4-0.8-1-1.8v-0.6
	c0-0.9-0.2-3.4-1.4-5.3c1-0.7,2.2-1.8,3-3.7C80.5,67.6,83,69.4,83,69.4 M81,58.6c-1.2,2.4-3.6,3.4-3.6,3.4s2-0.1,3.6,0.3
	c1,0.5,2.2,1.5,2.2,1.5c-0.6,1.2-2.5,1.7-3.7,1.9c0.1-0.2,0.2-0.4,0.2-0.6l0.7-2.2l-2.3,0.3c0,0-2.3,0.3-5.5-0.4
	c0.4-1.2,0.6-2.5,0.5-3.9c0.8-0.2,1.5-0.5,2.1-0.9c3-1.8,2.7-3.6,2.7-3.6c0,1.2-1.5,2.7-3.6,2.2c-0.6-0.1-1-0.4-1.3-0.7
	c2.5-1.1,4-3.6,4.8-5.6c0.9,0,2,0.3,3,1.2C82,53,82.7,54.7,81,58.6 M74,58.1C74.1,58.1,74.1,58.1,74,58.1c0.1,0,0.1,0,0.1,0L74,58.1
	z M80.5,49.2c-0.8,0.7-1.7,0.8-2.4,0.7c0.5-1.5,0.7-2.7,0.7-2.8c0.1-0.9,0.6-1.3,0.6-1.3l1-0.7l-1-0.7c0,0-0.5-0.4-0.6-1.3
	c0,0-0.2-1.2-0.7-2.8c0.8-0.1,1.6,0,2.4,0.7c1.5,1.4,5.4,4.1,5.4,4.1S82,47.7,80.5,49.2 M37,32.4L37,32.4L37,32.4L37,32.4z"/>
<g>
	<g>
		<path class="st1" d="M109.7,74h-3.3v5h-1.7V65.2h6.3c1.5,0,2.6,0.4,3.4,1.3c0.8,0.9,1.2,1.9,1.2,3.1c0,1.1-0.3,2.1-1,2.9
			c-0.7,0.8-1.7,1.3-3,1.4l4.5,5.1H114L109.7,74z M113.1,71.7c0.5-0.5,0.8-1.2,0.8-2c0-0.8-0.2-1.4-0.8-2s-1.3-0.9-2.2-0.9h-4.5v5.7
			h4.5C111.8,72.5,112.6,72.3,113.1,71.7z"/>
		<path class="st1" d="M120.2,65.4c0.4-0.2,0.7-0.2,1.1,0c0.4,0.2,0.5,0.5,0.5,0.9c0,0.4-0.2,0.8-0.5,0.9c-0.4,0.2-0.7,0.2-1.1,0
			s-0.5-0.5-0.5-0.9C119.7,65.9,119.9,65.6,120.2,65.4z M119.9,79h1.6v-9.8h-1.6V79z"/>
		<path class="st1" d="M127.1,69.3l1.6,3.8l1.7,4.2l1.6-4.2l1.6-3.8h1.8l-4.1,9.7h-1.8l-4.1-9.7H127.1z"/>
		<path class="st1" d="M139.4,65.4c0.4-0.2,0.7-0.2,1.1,0c0.4,0.2,0.5,0.5,0.5,0.9c0,0.4-0.2,0.8-0.5,0.9c-0.4,0.2-0.7,0.2-1.1,0
			s-0.5-0.5-0.5-0.9C138.8,65.9,139,65.6,139.4,65.4z M139.1,79h1.6v-9.8h-1.6V79z"/>
		<path class="st1" d="M154.1,77.5c-0.5,0.6-1.1,1-1.8,1.3c-0.8,0.3-1.5,0.4-2.3,0.4c-1.5,0-2.8-0.5-3.7-1.4
			c-0.9-0.9-1.4-2.2-1.4-3.7c0-1.5,0.5-2.7,1.4-3.6c0.9-0.9,2.2-1.4,3.6-1.4c1.6,0,2.8,0.5,3.7,1.5c0.9,1,1.3,2.4,1.1,4.2h-8.3
			c0.1,0.9,0.5,1.6,1.1,2.1c0.7,0.5,1.5,0.8,2.4,0.8c0.6,0,1.2-0.1,1.7-0.3c0.6-0.2,1-0.5,1.3-0.9L154.1,77.5L154.1,77.5z
			 M153.1,73.4c0-0.9-0.4-1.6-0.9-2.2c-0.6-0.5-1.4-0.8-2.3-0.8c-0.9,0-1.6,0.3-2.3,0.8s-1,1.2-1.2,2.1L153.1,73.4L153.1,73.4z"/>
		<path class="st1" d="M160.2,69.3l0.1,1.5c0.6-1.1,1.6-1.6,3-1.6c0.9,0,1.6,0.2,2.3,0.7l-0.7,1.4c-0.5-0.4-1.1-0.5-1.7-0.5
			c-0.8,0-1.5,0.3-2,0.8c-0.6,0.5-0.8,1.2-0.8,2.1V79h-1.6v-9.7L160.2,69.3L160.2,69.3z"/>
		<path class="st1" d="M176.5,79l0-1.8c-0.4,0.6-0.9,1.1-1.5,1.5c-0.7,0.3-1.3,0.5-2,0.5c-1.4,0-2.6-0.5-3.6-1.4
			c-0.9-0.9-1.4-2.2-1.4-3.7c0-1.5,0.5-2.8,1.4-3.7s2.1-1.4,3.6-1.3c0.7,0,1.4,0.2,2.1,0.5s1.2,0.8,1.5,1.4l0-1.8h1.6V79L176.5,79
			L176.5,79z M173,70.7c-1,0-1.8,0.3-2.5,1c-0.7,0.6-1,1.5-1,2.6c0,1.1,0.3,1.9,1,2.6c0.7,0.7,1.5,1,2.5,1c0.6,0,1.2-0.1,1.7-0.4
			c0.5-0.3,0.9-0.6,1.2-1s0.5-0.9,0.6-1.4s0.1-1,0-1.5s-0.3-1-0.6-1.4c-0.3-0.4-0.6-0.8-1.1-1C174.2,70.8,173.7,70.6,173,70.7
			L173,70.7z"/>
		<path class="st1" d="M197.1,74.7h-0.4l-5-7V79H190V65.2h2l4.8,7.1l4.8-7.1h2V79H202V67.7L197.1,74.7z"/>
		<path class="st1" d="M216.6,79l0-1.8c-0.4,0.6-0.9,1.1-1.5,1.5s-1.3,0.5-2,0.5c-1.4,0-2.6-0.5-3.6-1.4c-0.9-0.9-1.4-2.2-1.4-3.7
			c0-1.5,0.5-2.8,1.4-3.7s2.1-1.4,3.6-1.3c0.7,0,1.4,0.2,2.1,0.5s1.2,0.8,1.5,1.4l0-1.8h1.6V79L216.6,79L216.6,79z M213,70.7
			c-1,0-1.8,0.3-2.5,1c-0.7,0.6-1,1.5-1,2.6c0,1.1,0.3,1.9,1,2.6c0.7,0.7,1.5,1,2.5,1c0.6,0,1.2-0.1,1.7-0.4c0.5-0.3,0.9-0.6,1.2-1
			s0.5-0.9,0.6-1.4s0.1-1,0-1.5s-0.3-1-0.6-1.4c-0.3-0.4-0.6-0.8-1.1-1C214.2,70.8,213.7,70.6,213,70.7L213,70.7z"/>
		<path class="st1" d="M225.6,83.6h-1.7l2-4.7l-3.9-9.6h1.8l1.9,5.1l1.1,2.8l1-2.8l2.1-5.1h1.8L225.6,83.6z"/>
		<path class="st1" d="M243,79l0-1.8c-0.4,0.6-0.9,1.1-1.5,1.5c-0.7,0.3-1.3,0.5-2,0.5c-1.4,0-2.6-0.5-3.6-1.4
			c-0.9-0.9-1.4-2.2-1.4-3.7c0-1.5,0.5-2.8,1.4-3.7s2.1-1.4,3.6-1.3c0.7,0,1.4,0.2,2.1,0.5s1.2,0.8,1.5,1.4l0-1.8h1.6V79L243,79
			L243,79z M239.5,70.7c-1,0-1.8,0.3-2.5,1c-0.7,0.6-1,1.5-1,2.6c0,1.1,0.3,1.9,1,2.6c0.7,0.7,1.5,1,2.5,1c0.6,0,1.2-0.1,1.7-0.4
			c0.5-0.3,0.9-0.6,1.2-1s0.5-0.9,0.6-1.4s0.1-1,0-1.5s-0.3-1-0.6-1.4c-0.3-0.4-0.6-0.8-1.1-1C240.7,70.8,240.1,70.6,239.5,70.7
			L239.5,70.7z"/>
	</g>
	<g>
		<path class="st1" d="M294.9,74.7h-0.4l-5-7V79h-1.7V65.2h2l4.8,7.1l4.8-7.1h2V79h-1.7V67.7L294.9,74.7z"/>
		<path class="st1" d="M315.3,77.5c-0.5,0.6-1.1,1-1.8,1.3c-0.8,0.3-1.5,0.4-2.3,0.4c-1.5,0-2.8-0.5-3.7-1.4
			c-0.9-0.9-1.4-2.2-1.4-3.7c0-1.5,0.5-2.7,1.4-3.6c0.9-0.9,2.2-1.4,3.6-1.4c1.6,0,2.8,0.5,3.7,1.5c0.9,1,1.3,2.4,1.1,4.2h-8.3
			c0.1,0.9,0.5,1.6,1.1,2.1s1.5,0.8,2.4,0.8c0.6,0,1.2-0.1,1.7-0.3c0.6-0.2,1-0.5,1.3-0.9L315.3,77.5L315.3,77.5z M314.4,73.4
			c0-0.9-0.4-1.6-0.9-2.2s-1.4-0.8-2.3-0.8c-0.9,0-1.6,0.3-2.3,0.8s-1,1.2-1.2,2.1L314.4,73.4L314.4,73.4z"/>
		<path class="st1" d="M322.3,74l-3.3-4.7v-0.1h1.8l2.5,3.7l2.5-3.7h1.8v0.1l-3.3,4.7l3.6,4.9v0h-1.8l-2.7-3.9l-2.8,3.9h-1.8v0
			L322.3,74z"/>
		<path class="st1" d="M332,65.4c0.4-0.2,0.7-0.2,1.1,0c0.4,0.2,0.5,0.5,0.5,0.9c0,0.4-0.2,0.8-0.5,0.9c-0.4,0.2-0.7,0.2-1.1,0
			c-0.4-0.2-0.5-0.5-0.5-0.9C331.4,65.9,331.6,65.6,332,65.4z M331.7,79h1.6v-9.8h-1.6V79z"/>
		<path class="st1" d="M346.3,77.7c-1,1-2.2,1.5-3.6,1.5c-1.4,0-2.6-0.4-3.6-1.3c-1-0.9-1.5-2.1-1.5-3.7c0-1.6,0.5-2.8,1.4-3.7
			c1-0.9,2.2-1.3,3.6-1.3c1.4,0,2.5,0.5,3.5,1.5l-1,1.1c-0.7-0.7-1.5-1-2.5-1c-1,0-1.8,0.3-2.5,1s-1,1.5-1,2.5c0,1.1,0.3,1.9,1,2.6
			c0.7,0.6,1.5,0.9,2.5,0.9c1,0,1.9-0.3,2.5-1L346.3,77.7L346.3,77.7z"/>
		<path class="st1" d="M351,70.5c1-1,2.2-1.4,3.6-1.4c1.5,0,2.7,0.5,3.6,1.4s1.4,2.2,1.4,3.7c0,1.5-0.5,2.7-1.4,3.6
			s-2.2,1.4-3.6,1.4c-1.5,0-2.7-0.5-3.6-1.4c-1-0.9-1.4-2.1-1.4-3.6C349.6,72.7,350,71.5,351,70.5z M357.1,71.6
			c-0.7-0.7-1.5-1-2.5-1c-1,0-1.8,0.3-2.5,1c-0.6,0.7-1,1.5-1,2.6c0,1,0.3,1.9,1,2.5c0.6,0.7,1.5,1,2.5,1c1,0,1.8-0.3,2.5-1
			c0.6-0.7,1-1.5,1-2.5C358.1,73.1,357.7,72.2,357.1,71.6z"/>
	</g>
	<line class="st2" x1="266.9" y1="64.7" x2="266.9" y2="82.4"/>
</g>
</svg>
