<svg width="175" height="52" viewBox="0 0 175 52" fill="none" xmlns="http://www.w3.org/2000/svg">
<path d="M22.2907 32.575C22.7805 32.8001 23.271 33.0236 23.7618 33.2467C23.8935 33.3067 24.0253 33.3667 24.161 33.4285C25.2695 33.9307 26.3861 34.4129 27.5056 34.89C27.6811 34.9648 27.8565 35.0396 28.0373 35.1166C28.7394 35.4154 29.4417 35.7138 30.1446 36.0107C35.6966 38.3567 35.6966 38.3567 36.2921 38.9522C36.3088 39.3599 36.3124 39.7681 36.3107 40.1761C36.31 40.4241 36.3094 40.6721 36.3088 40.9276C36.3072 41.1915 36.3056 41.4554 36.304 41.7192C36.303 41.9838 36.3022 42.2484 36.3014 42.513C36.2991 43.1629 36.296 43.8127 36.2921 44.4625C36.104 44.5566 36.104 44.5566 35.9121 44.6525C35.4435 44.4872 35.4435 44.4872 34.8388 44.2161C34.7271 44.1666 34.6153 44.1171 34.5002 44.066C34.2539 43.9567 34.0079 43.8467 33.7621 43.7361C33.0825 43.4303 32.4006 43.1293 31.7192 42.8274C31.5717 42.7618 31.4241 42.6963 31.272 42.6287C29.141 41.6832 26.9973 40.7666 24.8557 39.8454C24.5031 39.6936 24.1505 39.5418 23.798 39.3898C23.4644 39.2461 23.1307 39.1027 22.7968 38.9597C21.7854 38.5249 20.79 38.0672 19.8115 37.5617C18.7728 37.249 17.8699 37.7604 16.9466 38.2122C16.6935 38.3339 16.4401 38.4552 16.1866 38.5762C16.0558 38.6386 15.925 38.701 15.7902 38.7653C15.1369 39.0711 14.4748 39.3556 13.8114 39.6388C13.6779 39.6958 13.5444 39.7528 13.4068 39.8116C13.1322 39.9287 12.8576 40.0456 12.5829 40.1623C11.8564 40.471 11.1305 40.7813 10.4046 41.0913C10.2616 41.1523 10.1185 41.2134 9.97115 41.2763C8.72757 41.8071 7.48641 42.3434 6.24664 42.8831C6.07837 42.9562 5.9101 43.0294 5.73673 43.1048C5.57923 43.1735 5.42174 43.2421 5.25947 43.3128C5.03747 43.4092 5.03747 43.4092 4.81098 43.5075C4.50628 43.6423 4.20315 43.7807 3.90138 43.9219C3.75092 43.9918 3.60047 44.0617 3.44546 44.1337C3.31249 44.1969 3.17952 44.26 3.04252 44.3251C2.66018 44.4625 2.66018 44.4625 1.90014 44.4625C1.84469 43.692 1.79698 42.9214 1.75633 42.15C1.74143 41.8878 1.72444 41.6257 1.7053 41.3638C1.67812 40.9868 1.65914 40.6093 1.64036 40.2318C1.61946 39.8915 1.61946 39.8915 1.59814 39.5443C1.71013 38.9522 1.71013 38.9522 2.21215 38.5252C2.80507 38.2157 3.39286 37.9267 4.00807 37.6644C4.2323 37.5681 4.45652 37.4718 4.68754 37.3726C4.93013 37.2697 5.17273 37.1668 5.41534 37.064C5.669 36.9554 5.92261 36.8467 6.17617 36.7379C6.70346 36.5117 7.23098 36.2861 7.75865 36.0608C8.88305 35.5804 10.0046 35.0933 11.1262 34.6063C11.4826 34.4518 11.8393 34.298 12.196 34.1444C13.3134 33.6626 14.427 33.1742 15.5334 32.6677C15.7327 32.5777 15.932 32.4876 16.1373 32.3947C16.5062 32.2275 16.8741 32.0577 17.2405 31.8849C19.1926 31.0061 20.4457 31.7143 22.2907 32.575Z" fill="#2E2E2E"/>
<path d="M137.056 12.8656C137.216 12.8632 137.376 12.8608 137.54 12.8583C137.797 12.8576 137.797 12.8576 138.059 12.857C138.237 12.8557 138.414 12.8544 138.597 12.8531C138.973 12.8512 139.348 12.8503 139.723 12.8504C140.296 12.8496 140.868 12.8427 141.441 12.8355C141.806 12.8343 142.171 12.8336 142.536 12.8332C142.792 12.8291 142.792 12.8291 143.053 12.825C144.388 12.8346 145.038 13.2533 146.059 14.1084C147.236 15.5076 147.156 17.0545 147.14 18.7993C147.142 19.0318 147.144 19.2644 147.146 19.504C147.141 21 147.109 22.4162 146.144 23.626C146.018 23.7262 145.892 23.8263 145.762 23.9296C145.637 24.0332 145.512 24.1368 145.384 24.2435C144.392 24.8991 143.523 24.9521 142.368 24.9553C142.208 24.9566 142.049 24.9579 141.884 24.9592C141.548 24.9611 141.211 24.962 140.874 24.9619C140.362 24.9627 139.851 24.9696 139.339 24.9768C139.011 24.978 138.682 24.9787 138.354 24.9791C138.127 24.9832 138.127 24.9832 137.895 24.9874C136.648 24.9773 135.671 24.616 134.713 23.8064C134.628 23.702 134.544 23.5977 134.456 23.4902C134.325 23.3351 134.325 23.3351 134.191 23.1769C133.378 21.8674 133.515 20.4127 133.518 18.9299C133.515 18.685 133.512 18.44 133.509 18.1877C133.508 16.6791 133.533 15.4497 134.468 14.2049C134.578 14.1025 134.688 14.0001 134.801 13.8946C134.91 13.7893 135.02 13.684 135.133 13.5755C135.753 13.0817 136.262 12.8738 137.056 12.8656ZM137.011 16.1831C136.724 16.6739 136.74 17.0461 136.745 17.6124C136.746 17.8232 136.747 18.034 136.748 18.2511C136.752 18.4712 136.756 18.6913 136.76 18.918C136.761 19.1388 136.762 19.3596 136.763 19.5871C136.722 20.6574 136.722 20.6574 136.998 21.6613C137.627 21.871 138.098 21.8759 138.761 21.8766C138.995 21.8768 139.23 21.877 139.472 21.8773C139.718 21.8766 139.963 21.8758 140.216 21.8751C140.461 21.8758 140.706 21.8765 140.958 21.8773C141.193 21.8771 141.428 21.8768 141.67 21.8766C141.993 21.8762 141.993 21.8762 142.323 21.8759C142.804 21.855 143.198 21.8285 143.648 21.6613C144.049 20.8595 143.873 19.7989 143.874 18.918C143.877 18.5879 143.877 18.5879 143.881 18.2511C143.881 18.0404 143.882 17.8296 143.882 17.6124C143.883 17.4188 143.884 17.2252 143.884 17.0258C143.874 16.4862 143.874 16.4862 143.458 15.961C142.841 15.8719 142.841 15.8719 142.111 15.8853C141.978 15.8847 141.845 15.8842 141.708 15.8836C141.426 15.8832 141.145 15.8843 140.863 15.8867C140.432 15.8897 140.002 15.8867 139.571 15.883C139.297 15.8834 139.024 15.8842 138.75 15.8853C138.501 15.8859 138.252 15.8866 137.995 15.8872C137.395 15.9158 137.395 15.9158 137.011 16.1831Z" fill="#2E2E2E"/>
<path d="M137.056 12.8656C137.216 12.8632 137.376 12.8608 137.54 12.8583C137.797 12.8576 137.797 12.8576 138.059 12.857C138.237 12.8557 138.414 12.8544 138.597 12.8531C138.973 12.8512 139.348 12.8503 139.723 12.8504C140.296 12.8496 140.868 12.8427 141.441 12.8355C141.806 12.8343 142.171 12.8336 142.536 12.8332C142.792 12.8291 142.792 12.8291 143.053 12.825C144.388 12.8346 145.038 13.2533 146.059 14.1084C147.236 15.5076 147.156 17.0545 147.14 18.7993C147.142 19.0318 147.144 19.2644 147.146 19.504C147.141 21 147.109 22.4162 146.144 23.626C146.018 23.7262 145.892 23.8263 145.762 23.9296C145.637 24.0332 145.512 24.1368 145.384 24.2435C144.392 24.8991 143.523 24.9521 142.368 24.9553C142.208 24.9566 142.049 24.9579 141.884 24.9592C141.548 24.9611 141.211 24.962 140.874 24.9619C140.362 24.9627 139.851 24.9696 139.339 24.9768C139.011 24.978 138.682 24.9787 138.354 24.9791C138.127 24.9832 138.127 24.9832 137.895 24.9874C136.648 24.9773 135.671 24.616 134.713 23.8064C134.628 23.702 134.544 23.5977 134.456 23.4902C134.325 23.3351 134.325 23.3351 134.191 23.1769C133.378 21.8674 133.515 20.4127 133.518 18.9299C133.515 18.685 133.512 18.44 133.509 18.1877C133.508 16.6791 133.533 15.4497 134.468 14.2049C134.578 14.1025 134.688 14.0001 134.801 13.8946C134.91 13.7893 135.02 13.684 135.133 13.5755C135.753 13.0817 136.262 12.8738 137.056 12.8656ZM137.011 16.1831C136.724 16.6739 136.74 17.0461 136.745 17.6124C136.746 17.8232 136.747 18.034 136.748 18.2511C136.752 18.4712 136.756 18.6913 136.76 18.918C136.761 19.1388 136.762 19.3596 136.763 19.5871C136.722 20.6574 136.722 20.6574 136.998 21.6613C137.627 21.871 138.098 21.8759 138.761 21.8766C138.995 21.8768 139.23 21.877 139.472 21.8773C139.718 21.8766 139.963 21.8758 140.216 21.8751C140.461 21.8758 140.706 21.8765 140.958 21.8773C141.193 21.8771 141.428 21.8768 141.67 21.8766C141.993 21.8762 141.993 21.8762 142.323 21.8759C142.804 21.855 143.198 21.8285 143.648 21.6613C144.049 20.8595 143.873 19.7989 143.874 18.918C143.877 18.5879 143.877 18.5879 143.881 18.2511C143.881 18.0404 143.882 17.8296 143.882 17.6124C143.883 17.4188 143.884 17.2252 143.884 17.0258C143.874 16.4862 143.874 16.4862 143.458 15.961C142.841 15.8719 142.841 15.8719 142.111 15.8853C141.978 15.8847 141.845 15.8842 141.708 15.8836C141.426 15.8832 141.145 15.8843 140.863 15.8867C140.432 15.8897 140.002 15.8867 139.571 15.883C139.297 15.8834 139.024 15.8842 138.75 15.8853C138.501 15.8859 138.252 15.8866 137.995 15.8872C137.395 15.9158 137.395 15.9158 137.011 16.1831Z" fill="#2E2E2E"/>
<path d="M36.3604 12.8435C36.5321 12.8413 36.7039 12.8391 36.8808 12.8369C37.2436 12.8333 37.6065 12.8308 37.9694 12.8294C38.5204 12.8257 39.0709 12.8139 39.6218 12.8019C42.8113 12.7653 42.8113 12.7653 43.994 13.7474C45.2926 15.2082 45.2678 16.6879 45.2787 18.5601C45.2809 18.821 45.2848 19.0819 45.2904 19.3428C45.3283 21.1016 45.3178 22.3802 44.1308 23.7557C44.0247 23.8405 43.9187 23.9252 43.8094 24.0125C43.7038 24.1002 43.5983 24.1879 43.4895 24.2783C42.5195 24.9115 41.6464 24.9521 40.5221 24.9552C40.3625 24.9564 40.203 24.9577 40.0386 24.959C39.7018 24.9609 39.365 24.9618 39.0282 24.9618C38.5165 24.9626 38.0051 24.9695 37.4934 24.9767C37.165 24.9778 36.8365 24.9786 36.5081 24.9789C36.2812 24.983 36.2812 24.983 36.0497 24.9872C34.7678 24.9769 33.7716 24.6055 32.8192 23.7364C32.7151 23.6002 32.611 23.4641 32.5038 23.3237C32.3425 23.1224 32.3425 23.1224 32.1779 22.917C31.5113 21.6262 31.6911 19.9436 31.6843 18.526C31.6804 18.319 31.6765 18.112 31.6725 17.8988C31.6657 16.4923 31.7568 15.3721 32.6151 14.2047C32.7775 14.0511 32.7775 14.0511 32.9432 13.8945C33.0505 13.7891 33.1577 13.6838 33.2683 13.5753C34.2312 12.8482 35.201 12.8549 36.3604 12.8435ZM35.1648 16.1822C34.8791 16.6735 34.8945 17.0459 34.8997 17.6123C34.9007 17.8231 34.9016 18.0338 34.9027 18.251C34.9066 18.4711 34.9105 18.6911 34.9145 18.9179C34.9155 19.1387 34.9165 19.3595 34.9175 19.587C34.8764 20.6572 34.8764 20.6572 35.152 21.6612C36.2076 22.0509 37.4663 21.8862 38.5722 21.8868C38.9382 21.8903 38.9382 21.8903 39.3115 21.8938C39.5457 21.8942 39.7798 21.8946 40.0211 21.895C40.2351 21.8957 40.4492 21.8965 40.6698 21.8973C41.2276 21.8516 41.5443 21.8039 41.9924 21.4711C42.3105 20.6746 42.2174 19.7628 42.2181 18.9179C42.2216 18.6767 42.2216 18.6767 42.2251 18.4306C42.2271 17.5887 42.2093 16.9117 41.8024 16.1508C41.2869 15.6353 39.7768 15.9171 39.0316 15.9152C38.5991 15.9133 38.1667 15.9074 37.7343 15.9014C37.4599 15.9002 37.1855 15.8992 36.9111 15.8985C36.5353 15.8958 36.5353 15.8958 36.1519 15.8931C35.55 15.915 35.55 15.915 35.1648 16.1822Z" fill="#2E2E2E"/>
<path d="M94.4762 12.8686C94.6322 12.8668 94.7882 12.865 94.949 12.8631C95.1161 12.8633 95.2831 12.8634 95.4553 12.8636C95.6286 12.8628 95.802 12.862 95.9806 12.8611C96.347 12.8601 96.7133 12.86 97.0797 12.8608C97.6385 12.8614 98.1972 12.8569 98.756 12.8521C99.1125 12.8517 99.469 12.8515 99.8255 12.8517C99.9918 12.85 100.158 12.8482 100.329 12.8464C101.453 12.8549 102.285 13.0207 103.143 13.8107C103.232 13.9207 103.322 14.0307 103.413 14.144C103.505 14.2534 103.596 14.3629 103.69 14.4757C104.494 15.6019 104.442 16.7006 104.316 18.0511C104.024 19.1966 103.357 19.8224 102.416 20.4967C101.59 20.9627 100.757 20.9266 99.83 20.9198C99.6919 20.9195 99.5538 20.9192 99.4115 20.919C98.972 20.9179 98.5326 20.9155 98.0931 20.9131C97.7945 20.9121 97.4959 20.9113 97.1973 20.9105C96.4667 20.9086 95.7361 20.9049 95.0055 20.9012C95.0055 19.9607 95.0055 19.0201 95.0055 18.0511C95.7504 17.9021 96.3722 17.8291 97.1223 17.8076C97.3413 17.8005 97.5603 17.7934 97.7859 17.7861C98.247 17.7726 98.7082 17.7593 99.1694 17.746C99.3874 17.7389 99.6054 17.7318 99.83 17.7245C100.03 17.7187 100.23 17.713 100.436 17.707C100.886 17.7219 100.886 17.7219 101.086 17.481C101.099 17.224 101.102 16.9664 101.098 16.7091C101.094 16.4622 101.09 16.2153 101.086 15.9609C100.203 15.9468 99.3208 15.9365 98.4381 15.9296C98.1379 15.9268 97.8377 15.9229 97.5375 15.9179C97.1059 15.911 96.6744 15.9078 96.2428 15.9053C96.1086 15.9023 95.9743 15.8994 95.8361 15.8964C95.3045 15.8962 94.9088 15.9049 94.4468 16.1823C93.9871 16.9784 94.1484 18.0133 94.1504 18.9061C94.1423 19.2349 94.1423 19.2349 94.1341 19.5704C94.1336 19.7803 94.1331 19.9902 94.1326 20.2065C94.1313 20.3989 94.1299 20.5913 94.1285 20.7895C94.2019 21.3131 94.2019 21.3131 94.6516 21.6274C95.2711 21.8824 95.7415 21.9327 96.4105 21.9485C96.6389 21.9552 96.8673 21.962 97.1026 21.9689C97.3394 21.9732 97.5761 21.9775 97.82 21.9819C98.0604 21.9884 98.3008 21.9949 98.5485 22.0016C99.1409 22.0172 99.7333 22.0296 100.326 22.0413C100.326 22.9818 100.326 23.9224 100.326 24.8915C99.4604 24.909 98.5957 24.9241 97.7303 24.9332C97.4365 24.937 97.1428 24.9422 96.8491 24.9488C93.6082 25.0199 93.6082 25.0199 92.1509 23.813C92.0237 23.659 92.0237 23.659 91.894 23.502C91.8064 23.4008 91.7187 23.2997 91.6283 23.1955C90.8412 21.8643 90.9581 20.4052 90.9677 18.9061C90.9663 18.6786 90.9648 18.451 90.9633 18.2166C90.9669 16.5836 90.9721 15.3457 92.1316 14.0965C92.2604 13.9542 92.3892 13.8118 92.522 13.6652C93.1355 13.0969 93.641 12.8739 94.4762 12.8686Z" fill="#2E2E2E"/>
<path d="M20.9338 12.8822C21.1946 12.8806 21.1946 12.8806 21.4607 12.8789C21.8294 12.8771 22.1981 12.8759 22.5667 12.8751C23.1289 12.8733 23.6909 12.8674 24.2531 12.8614C24.6113 12.8602 24.9695 12.8592 25.3278 12.8584C25.4953 12.8561 25.6628 12.8537 25.8353 12.8513C26.9647 12.8554 27.7966 13.0166 28.6589 13.8107C28.7481 13.9207 28.8372 14.0307 28.9291 14.144C29.0202 14.2535 29.1113 14.3629 29.2052 14.4757C29.8095 15.3221 29.8945 16.0279 29.9022 17.0565C29.9039 17.1994 29.9056 17.3423 29.9074 17.4896C29.9101 17.7918 29.9118 18.0939 29.9125 18.3961C29.9148 18.8545 29.9241 19.3125 29.9337 19.7708C29.9619 22.4235 29.9619 22.4235 29.1526 23.4829C27.9145 24.7093 26.9045 24.9208 25.1845 24.9301C24.9505 24.9317 24.9505 24.9317 24.7117 24.9333C24.3819 24.9351 24.0521 24.9364 23.7223 24.9371C23.2206 24.9389 22.7191 24.9448 22.2175 24.9508C21.8962 24.9521 21.575 24.9531 21.2537 24.9538C21.105 24.9562 20.9563 24.9585 20.8031 24.9609C19.5606 24.9559 18.6719 24.7033 17.7185 23.8583C16.4601 22.4252 16.479 21.253 16.4644 19.4028C16.4612 19.1129 16.4561 18.8231 16.4488 18.5333C16.4007 16.6048 16.4797 15.3083 17.8513 13.8597C17.9603 13.7732 18.0693 13.6868 18.1816 13.5977C18.2921 13.5078 18.4025 13.4179 18.5164 13.3253C19.2633 12.7815 20.0454 12.8864 20.9338 12.8822ZM19.772 16.3839C19.5696 16.9149 19.5 17.2849 19.502 17.8499C19.5022 18.0235 19.5023 18.197 19.5024 18.3758C19.5055 18.5547 19.5085 18.7336 19.5117 18.918C19.5111 19.0977 19.5105 19.2773 19.5098 19.4624C19.4984 20.6199 19.4984 20.6199 19.9511 21.6613C20.5801 21.8709 21.0517 21.8759 21.7139 21.8765C21.9487 21.8768 22.1834 21.877 22.4253 21.8773C22.6709 21.8765 22.9164 21.8758 23.1694 21.875C23.4142 21.8758 23.659 21.8765 23.9113 21.8773C24.1463 21.877 24.3813 21.8768 24.6234 21.8765C24.9463 21.8762 24.9463 21.8762 25.2758 21.8759C25.7572 21.8549 26.151 21.8284 26.6015 21.6613C27.0146 20.835 26.8266 19.7187 26.8271 18.8111C26.8306 18.465 26.8306 18.465 26.8342 18.1119C26.8345 17.892 26.8349 17.672 26.8353 17.4454C26.836 17.2428 26.8368 17.0403 26.8376 16.8316C26.8412 16.3099 26.8412 16.3099 26.4115 15.9609C25.9415 15.9161 25.4934 15.894 25.0227 15.8904C24.8855 15.8887 24.7482 15.887 24.6067 15.8852C24.3162 15.8825 24.0257 15.8808 23.7351 15.8801C23.2904 15.8778 22.8462 15.8685 22.4016 15.8589C22.1194 15.8571 21.8372 15.8557 21.555 15.8548C21.422 15.8511 21.289 15.8474 21.1519 15.8436C20.4907 15.8497 20.2157 15.8755 19.772 16.3839Z" fill="#2E2E2E"/>
<path d="M107.645 12.8195C107.813 12.8165 107.982 12.8135 108.156 12.8104C108.337 12.8113 108.519 12.8122 108.706 12.8132C108.894 12.812 109.082 12.8109 109.277 12.8096C109.675 12.8083 110.074 12.8089 110.473 12.8113C111.079 12.8139 111.684 12.8075 112.29 12.8002C112.678 12.8 113.067 12.8004 113.456 12.8013C113.635 12.7988 113.814 12.7963 113.998 12.7937C115.538 12.815 116.753 13.3014 117.931 14.2977C119.272 15.8906 119.54 17.3148 119.542 19.3879C119.542 19.6356 119.543 19.8834 119.543 20.1386C119.542 20.2659 119.542 20.3932 119.542 20.5243C119.541 20.9128 119.542 21.3014 119.543 21.6899C119.543 21.9374 119.542 22.1849 119.542 22.4399C119.542 22.6643 119.542 22.8887 119.541 23.1199C119.517 23.7515 119.517 23.7515 119.327 24.8915C118.324 24.8915 117.32 24.8915 116.287 24.8915C116.284 24.6788 116.281 24.466 116.278 24.2468C116.267 23.4542 116.253 22.6617 116.237 21.8693C116.231 21.5269 116.225 21.1844 116.221 20.842C116.214 20.3486 116.205 19.8553 116.194 19.3619C116.193 19.2099 116.191 19.0578 116.19 18.9011C116.166 17.9851 116.065 17.3071 115.527 16.531C114.817 16.1098 114.134 16.0946 113.32 16.0723C113.083 16.065 112.846 16.0576 112.602 16.0501C112.356 16.0442 112.11 16.0383 111.857 16.0323C111.608 16.0249 111.358 16.0176 111.101 16.01C110.486 15.9921 109.871 15.9758 109.256 15.961C109.258 16.3162 109.258 16.3162 109.259 16.6785C109.263 17.5585 109.265 18.4385 109.267 19.3184C109.268 19.699 109.269 20.0796 109.271 20.4602C109.273 21.0078 109.274 21.5554 109.275 22.103C109.276 22.2726 109.277 22.4423 109.278 22.6171C109.278 22.8566 109.278 22.8566 109.278 23.101C109.278 23.2407 109.279 23.3804 109.279 23.5242C109.256 23.9415 109.256 23.9415 109.066 24.8915C108.063 24.8915 107.06 24.8915 106.026 24.8915C106.009 23.443 105.995 21.9945 105.987 20.5458C105.983 19.8732 105.977 19.2006 105.969 18.5279C105.959 17.7544 105.955 16.981 105.952 16.2074C105.948 15.9661 105.944 15.7248 105.94 15.4762C105.94 15.2518 105.94 15.0275 105.94 14.7963C105.938 14.5988 105.936 14.4013 105.935 14.1979C106.108 13.2199 106.684 12.8271 107.645 12.8195Z" fill="#2E2E2E"/>
<path d="M62.232 12.8195C62.4008 12.8165 62.5696 12.8135 62.7435 12.8104C62.9248 12.8113 63.1061 12.8122 63.2929 12.8132C63.4814 12.812 63.6698 12.8109 63.8639 12.8096C64.2629 12.8083 64.6619 12.8089 65.0608 12.8113C65.6665 12.8139 66.2716 12.8075 66.8772 12.8002C67.2659 12.8 67.6545 12.8004 68.0432 12.8013C68.2222 12.7988 68.4012 12.7963 68.5856 12.7937C70.1254 12.815 71.3406 13.3014 72.5189 14.2977C72.6345 14.4351 72.7501 14.5725 72.8692 14.7141C72.9887 14.851 73.1082 14.9879 73.2314 15.129C74.5445 17.089 74.1161 19.9626 74.0211 22.1957C74.011 22.4591 74.001 22.7225 73.9911 22.9858C73.9667 23.6211 73.9407 24.2563 73.9143 24.8915C72.911 24.8915 71.9077 24.8915 70.8741 24.8915C70.8713 24.6788 70.8685 24.466 70.8657 24.2468C70.8546 23.4542 70.84 22.6617 70.8242 21.8693C70.8179 21.5269 70.8126 21.1844 70.8083 20.842C70.8018 20.3486 70.7919 19.8553 70.7813 19.3619C70.7801 19.2099 70.7789 19.0578 70.7776 18.9011C70.7538 17.9851 70.6519 17.3071 70.114 16.531C69.3936 16.1011 68.6924 16.0942 67.8658 16.0723C67.6444 16.0656 67.4231 16.0588 67.195 16.0518C66.916 16.0454 66.6369 16.0389 66.3494 16.0323C65.4598 16.0087 64.5702 15.9852 63.6537 15.961C63.6537 18.9081 63.6537 21.8551 63.6537 24.8915C62.6504 24.8915 61.6472 24.8915 60.6135 24.8915C60.5963 23.443 60.5824 21.9945 60.5741 20.5458C60.5701 19.8732 60.5648 19.2006 60.5562 18.5279C60.5463 17.7544 60.5426 16.981 60.5393 16.2074C60.5353 15.9661 60.5314 15.7248 60.5274 15.4762C60.5273 15.2518 60.5273 15.0275 60.5272 14.7963C60.5255 14.5988 60.5238 14.4013 60.5221 14.1979C60.695 13.2199 61.2712 12.8271 62.232 12.8195Z" fill="#2E2E2E"/>
<path d="M1.96251 8.90698C2.10752 8.90767 2.25253 8.90835 2.40193 8.90905C2.62993 8.90901 2.62993 8.90901 2.86253 8.90897C3.36734 8.9091 3.87214 8.91058 4.37696 8.91207C4.72601 8.91242 5.07507 8.91269 5.42412 8.91288C6.3447 8.91361 7.26527 8.91548 8.18584 8.91758C9.12447 8.91952 10.0631 8.92039 11.0017 8.92135C12.8448 8.92339 14.6879 8.92673 16.531 8.93062C16.531 9.93388 16.531 10.9371 16.531 11.9708C16.5309 12.0658 16.5309 12.1608 16.5309 12.1608C15.2009 12.1608 11.5907 12.1608 10.4506 12.1608C10.3879 16.3619 10.3252 20.5631 10.2606 24.8915C9.19465 24.8915 8.12869 24.8915 7.03043 24.8915C6.96773 20.6904 6.90502 16.4893 6.84042 12.1608C4.95931 12.1608 2.69817 12.1608 0.760061 12.1608C0.76005 11.9708 0.762052 12.1537 0.760071 11.9708C0.754969 11.4997 0.751185 11.0287 0.748195 10.5576C0.745807 10.3561 0.745807 10.3561 0.74337 10.1505C0.741728 9.80716 0.750131 9.2738 0.76005 8.93062C1.52804 8.907 1.5213 8.90786 1.96251 8.90698Z" fill="#2E2E2E"/>
<path d="M76.1944 12.9207C77.1976 12.9207 78.2009 12.9207 79.2346 12.9207C79.2973 15.805 79.36 18.6894 79.4246 21.6612C82.6139 20.7043 84.2917 18.9955 85.8932 16.1237C86.4236 15.0939 86.81 14.0042 87.215 12.9207C88.3437 12.9207 89.4723 12.9207 90.6352 12.9207C90.0652 15.7708 87.025 20.3311 87.025 20.3311L86.835 20.5211L86.74 20.6161C86.74 20.6161 84.8399 23.0862 80.9803 24.5826C79.5392 24.9801 78.1945 25.3138 76.7644 24.7013C76.1889 24.0942 76.1243 23.6673 76.1297 22.8433C76.1297 22.6228 76.1298 22.4022 76.1298 22.1749C76.1327 21.9378 76.1357 21.7006 76.1387 21.4563C76.1395 21.2128 76.1403 20.9692 76.1412 20.7183C76.1433 20.0723 76.1489 19.4263 76.1552 18.7804C76.1611 18.1206 76.1637 17.4608 76.1666 16.801C76.1727 15.5075 76.1827 14.2141 76.1944 12.9207Z" fill="#2E2E2E"/>
<path d="M124.267 8.93042C125.27 8.93042 126.274 8.93042 127.307 8.93042C127.307 10.2472 127.307 11.564 127.307 12.9206C127.839 12.9173 127.839 12.9173 128.381 12.914C128.843 12.9122 129.304 12.9105 129.766 12.9088C130 12.9072 130.234 12.9056 130.475 12.9039C130.808 12.903 130.808 12.903 131.148 12.9021C131.457 12.9006 131.457 12.9006 131.773 12.8991C132.248 12.9206 132.248 12.9206 132.438 13.1107C132.456 13.4824 132.462 13.8548 132.461 14.227C132.462 14.5319 132.462 14.5319 132.463 14.843C132.438 15.3908 132.438 15.3908 132.248 15.9608C130.68 15.9608 129.112 15.9608 127.497 15.9608C127.435 18.9079 127.372 21.855 127.307 24.8913C126.304 24.8913 125.301 24.8913 124.267 24.8913C124.041 24.44 124.06 24.1858 124.073 23.6833C124.077 23.5121 124.081 23.3409 124.085 23.1646C124.09 22.9795 124.095 22.7945 124.1 22.6038C124.105 22.4145 124.109 22.2253 124.114 22.0303C124.128 21.4243 124.144 20.8183 124.16 20.2123C124.17 19.8021 124.18 19.3919 124.19 18.9817C124.215 17.9747 124.241 16.9678 124.267 15.9608C123.013 15.9608 121.759 15.9608 120.467 15.9608C120.467 14.9576 120.467 13.9543 120.467 12.9206C121.658 12.9206 122.85 12.9206 124.077 12.9206C124.07 11.7496 124.07 11.7496 124.06 10.5786C124.06 10.433 124.059 10.2873 124.059 10.1373C124.057 9.9134 124.057 9.9134 124.056 9.68499C124.077 9.31044 124.077 9.31044 124.267 8.93042Z" fill="#2E2E2E"/>
<path d="M171.58 12.9207C172.583 12.9207 173.586 12.9207 174.62 12.9207C174.775 13.6949 174.835 14.3093 174.838 15.0882C174.839 15.3305 174.84 15.5728 174.841 15.8224C174.842 16.0855 174.842 16.3486 174.842 16.6118C174.843 16.8837 174.843 17.1556 174.844 17.4275C174.845 17.9969 174.845 18.5663 174.845 19.1357C174.845 19.8621 174.848 20.5884 174.851 21.3148C174.853 21.8764 174.854 22.438 174.853 22.9996C174.854 23.2672 174.855 23.5348 174.856 23.8024C174.875 27.5531 174.875 27.5531 173.48 29.0716C171.819 30.4371 170.002 30.2399 167.97 30.1404C167.711 30.1293 167.453 30.1184 167.194 30.1077C166.566 30.081 165.938 30.0516 165.309 30.0216C165.309 29.0184 165.309 28.0151 165.309 26.9815C167.316 26.9188 169.322 26.8561 171.39 26.7914C171.453 22.2141 171.515 17.6367 171.58 12.9207Z" fill="#2E2E2E"/>
<path d="M152.638 12.8775C152.877 12.8775 152.877 12.8775 153.122 12.8776C153.292 12.8796 153.463 12.8815 153.639 12.8835C153.903 12.8843 153.903 12.8843 154.172 12.8852C154.734 12.8873 155.295 12.8921 155.856 12.8969C156.237 12.8988 156.618 12.9005 156.999 12.9021C157.933 12.9063 158.866 12.9128 159.799 12.9206C159.836 13.356 159.871 13.7914 159.906 14.227C159.936 14.5907 159.936 14.5907 159.966 14.9618C159.989 15.5808 159.989 15.5808 159.799 15.9608C156.225 16.0549 156.225 16.0549 152.579 16.1508C152.36 16.589 152.359 16.8536 152.35 17.3415C152.346 17.5088 152.342 17.6762 152.338 17.8486C152.333 18.12 152.333 18.12 152.329 18.3968C152.325 18.5818 152.321 18.7669 152.317 18.9575C152.304 19.5499 152.293 20.1424 152.282 20.7348C152.274 21.1359 152.265 21.5369 152.257 21.938C152.237 22.9224 152.217 23.9069 152.199 24.8913C151.195 24.8913 150.192 24.8913 149.159 24.8913C149.015 24.318 148.943 23.9303 148.935 23.36C148.932 23.2102 148.93 23.0605 148.927 22.9061C148.926 22.7456 148.925 22.5851 148.923 22.4197C148.922 22.2524 148.92 22.085 148.919 21.9126C148.916 21.5584 148.914 21.2041 148.912 20.8499C148.91 20.4902 148.906 20.1305 148.901 19.7709C148.832 15.4026 148.832 15.4026 150.067 14.0777C150.833 13.3699 151.571 12.8711 152.638 12.8775Z" fill="#2E2E2E"/>
<path d="M47.3127 7.79053C48.316 7.79053 49.3192 7.79053 50.3529 7.79053C50.3576 8.19146 50.3624 8.59239 50.3673 9.00547C50.3831 10.3281 50.4 11.6508 50.4173 12.9734C50.4278 13.7756 50.438 14.5778 50.4474 15.3799C50.4564 16.1536 50.4664 16.9273 50.4769 17.701C50.4808 17.9966 50.4844 18.2922 50.4876 18.5879C50.4922 19.001 50.4979 19.4141 50.5039 19.8272C50.5083 20.1803 50.5083 20.1803 50.5128 20.5406C50.5056 21.0798 50.5056 21.0798 50.7329 21.4713C51.223 21.6026 51.223 21.6026 51.7898 21.6851C52.1308 21.7399 52.443 21.7563 52.823 21.7563C52.823 22.7596 52.823 23.8578 52.823 24.8915C51.2106 24.9594 50.0511 24.9466 48.6428 24.1315C48.5477 24.0365 48.5366 24.0253 48.4527 23.9415C48.2627 23.7514 48.3577 23.8464 48.2627 23.7514C47.0619 22.2333 47.1897 20.5876 47.2199 18.757C47.2217 18.4399 47.223 18.1229 47.224 17.8058C47.2276 16.9764 47.2369 16.1471 47.2475 15.3178C47.2572 14.4695 47.2615 13.6211 47.2663 12.7727C47.2765 11.1119 47.2931 9.45126 47.3127 7.79053Z" fill="#2E2E2E"/>
<path d="M161.319 12.9207C162.322 12.9207 163.326 12.9207 164.359 12.9207C164.474 15.241 164.574 17.5519 164.538 19.8753C164.548 20.4386 164.606 20.926 164.739 21.4711C165.367 21.6803 165.868 21.7003 166.529 21.7213C166.767 21.7292 167.005 21.7372 167.251 21.7454C167.5 21.7529 167.749 21.7603 168.005 21.768C168.259 21.7762 168.513 21.7845 168.766 21.7929C169.387 21.8131 170.009 21.8325 170.63 21.8512C170.799 22.4811 170.845 23.0377 170.844 23.6919C170.844 23.9693 170.844 23.9693 170.845 24.2523C170.82 24.7013 170.82 24.7013 170.63 24.8913C170.185 24.9176 169.745 24.9318 169.3 24.9366C169.165 24.9382 169.03 24.9397 168.891 24.9413C168.604 24.9439 168.317 24.9459 168.03 24.9474C167.597 24.9507 167.163 24.959 166.729 24.9674C165.036 24.9858 163.542 24.9596 162.24 23.7513C162.155 23.6259 162.071 23.5005 161.984 23.3713C161.896 23.2458 161.808 23.1204 161.717 22.9912C161.35 22.3199 161.296 21.7022 161.298 20.9451C161.298 20.7664 161.298 20.5876 161.298 20.4035C161.299 20.212 161.3 20.0206 161.301 19.8234C161.301 19.6262 161.301 19.4291 161.301 19.226C161.303 18.5968 161.305 17.9676 161.307 17.3384C161.308 16.9116 161.309 16.4848 161.31 16.0581C161.312 15.0123 161.315 13.9665 161.319 12.9207Z" fill="#2E2E2E"/>
<path d="M54.7231 8.93042C55.7264 8.93042 56.7297 8.93042 57.7633 8.93042C58.0447 9.49321 57.9797 10.0646 57.9779 10.6816C57.9783 10.8228 57.9786 10.964 57.9789 11.1095C57.9798 11.5779 57.9792 12.0463 57.9786 12.5146C57.9787 12.8399 57.9789 13.1651 57.9791 13.4903C57.9794 14.1728 57.979 14.8553 57.9781 15.5379C57.977 16.412 57.9776 17.286 57.9788 18.1601C57.9795 18.8321 57.9792 19.5042 57.9788 20.1763C57.9786 20.4985 57.9788 20.8207 57.9792 21.1429C57.9797 21.5941 57.979 22.0452 57.9779 22.4964C57.9783 22.6292 57.9787 22.762 57.9791 22.8988C57.976 23.605 57.9038 24.1891 57.7633 24.8913C56.7601 24.8913 55.7568 24.8913 54.7231 24.8913C54.7231 19.6242 54.7231 14.3571 54.7231 8.93042Z" fill="#2E2E2E"/>
<path d="M20.5212 39.9024C20.7789 40.0054 21.0373 40.1067 21.2961 40.2067C21.5763 40.3187 21.8564 40.431 22.1363 40.5437C22.273 40.5968 22.4098 40.6499 22.5507 40.7046C23.5119 41.1122 23.5119 41.1122 23.744 41.6763C23.7464 41.8434 23.7489 42.0104 23.7514 42.1825C23.7597 42.3755 23.7681 42.5685 23.7766 42.7674C23.7761 42.9663 23.7757 43.1652 23.7751 43.3701C23.7759 43.6714 23.7759 43.6714 23.7766 43.9787C23.7514 44.4627 23.7514 44.4627 23.5614 44.6527C23.2698 44.6704 22.9773 44.675 22.6851 44.6742C22.4987 44.6742 22.3124 44.6742 22.1203 44.6742C21.9176 44.6732 21.715 44.6722 21.5062 44.6712C21.1966 44.6708 21.1966 44.6708 20.8807 44.6704C20.2186 44.6693 19.5564 44.667 18.8942 44.6645C18.4466 44.6636 17.9989 44.6627 17.5512 44.6619C16.4511 44.6598 15.351 44.6566 14.2509 44.6527C14.2509 43.5867 14.2509 42.5207 14.2509 41.4225C15.0079 41.035 15.7672 40.6561 16.531 40.2824C16.7286 40.181 16.9263 40.0796 17.13 39.9751C18.51 39.318 19.1659 39.2408 20.5212 39.9024Z" fill="#2E2E2E"/>
<path d="M47.3127 7.79053C48.316 7.79053 49.3193 7.79053 50.3529 7.79053C50.3529 7.91593 50.3529 8.04134 50.3529 8.17055C49.9176 8.20749 49.4821 8.24282 49.0466 8.27743C48.6829 8.30719 48.6829 8.30719 48.3118 8.33755C47.6928 8.36056 47.6928 8.36056 47.3127 8.17055C47.3127 8.04514 47.3127 7.91973 47.3127 7.79053Z" fill="#2E2E2E"/>
<path d="M51.1129 21.6611C51.6145 21.7238 52.1162 21.7865 52.633 21.8511C52.633 21.9766 52.633 22.102 52.633 22.2312C52.1314 22.2312 51.6297 22.2312 51.1129 22.2312C51.1129 22.0431 51.1129 21.8549 51.1129 21.6611Z" fill="#2E2E2E"/>
<path d="M144.598 23.7515C144.849 23.8769 145.1 24.0023 145.358 24.1315C144.86 24.5407 144.476 24.7777 143.838 24.8915C143.776 24.7661 143.713 24.6407 143.648 24.5115C143.77 24.4566 143.891 24.4018 144.016 24.3452C144.437 24.1641 144.437 24.1641 144.598 23.7515Z" fill="#2E2E2E"/>
<path d="M19.9512 31.7319C21.0437 32.0882 21.0437 32.0882 21.4713 32.302C21.4713 32.4274 21.4713 32.5528 21.4713 32.682C21.2204 32.682 20.9696 32.682 20.7112 32.682C20.7112 32.5566 20.7112 32.4312 20.7112 32.302C20.4604 32.1766 20.2096 32.0512 19.9512 31.9219C19.9512 31.8592 19.9512 31.7965 19.9512 31.7319Z" fill="#3E2B2F"/>
</svg>
