<svg width="148" height="39" viewBox="0 0 148 39" fill="none" xmlns="http://www.w3.org/2000/svg">
<path d="M19.3048 24.4658C19.7146 24.6286 20.125 24.7901 20.5356 24.9514C20.6459 24.9948 20.7561 25.0381 20.8697 25.0828C21.7972 25.4458 22.7313 25.7944 23.668 26.1393C23.8148 26.1933 23.9617 26.2474 24.1129 26.3031C24.7004 26.5191 25.2879 26.7348 25.876 26.9494C30.5213 28.6452 30.5213 28.6452 31.0195 29.0757C31.0335 29.3704 31.0365 29.6655 31.0351 29.9605C31.0345 30.1397 31.034 30.319 31.0335 30.5037C31.0322 30.6944 31.0308 30.8852 31.0295 31.0759C31.0287 31.2672 31.0279 31.4584 31.0273 31.6497C31.0254 32.1195 31.0228 32.5892 31.0195 33.0589C30.8621 33.1269 30.8621 33.1269 30.7016 33.1963C30.3095 33.0768 30.3095 33.0768 29.8036 32.8808C29.7101 32.845 29.6166 32.8092 29.5203 32.7723C29.3142 32.6933 29.1084 32.6138 28.9028 32.5338C28.3341 32.3128 27.7636 32.0952 27.1935 31.8769C27.07 31.8296 26.9465 31.7822 26.8193 31.7333C25.0363 31.0499 23.2428 30.3873 21.4509 29.7213C21.1559 29.6116 20.8609 29.5019 20.5659 29.392C20.2868 29.2881 20.0076 29.1845 19.7283 29.0811C18.8821 28.7668 18.0492 28.436 17.2305 28.0706C16.3615 27.8445 15.606 28.2142 14.8335 28.5408C14.6217 28.6288 14.4097 28.7165 14.1976 28.8039C14.0882 28.849 13.9787 28.8941 13.866 28.9406C13.3194 29.1616 12.7654 29.3673 12.2104 29.572C12.0987 29.6132 11.987 29.6545 11.8719 29.6969C11.6421 29.7816 11.4123 29.8661 11.1824 29.9504C10.5746 30.1736 9.96732 30.3979 9.35995 30.622C9.24027 30.6661 9.12059 30.7102 8.99728 30.7557C7.9568 31.1394 6.91834 31.5271 5.88105 31.9172C5.74026 31.9701 5.59947 32.023 5.45442 32.0775C5.32264 32.1271 5.19087 32.1767 5.05511 32.2278C4.86936 32.2975 4.86936 32.2975 4.67986 32.3686C4.42492 32.466 4.1713 32.5661 3.91881 32.6681C3.79293 32.7187 3.66705 32.7692 3.53736 32.8212C3.4261 32.8669 3.31485 32.9125 3.20023 32.9596C2.88033 33.0589 2.88033 33.0589 2.24441 33.0589C2.19802 32.502 2.15811 31.9449 2.12409 31.3873C2.11163 31.1978 2.09741 31.0083 2.0814 30.819C2.05866 30.5465 2.04277 30.2736 2.02706 30.0007C2.00958 29.7547 2.00958 29.7547 1.99174 29.5037C2.08544 29.0757 2.08544 29.0757 2.50547 28.767C3.00156 28.5433 3.49334 28.3344 4.00808 28.1448C4.19569 28.0752 4.38329 28.0056 4.57658 27.9339C4.77956 27.8595 4.98254 27.7851 5.18552 27.7108C5.39775 27.6323 5.60994 27.5537 5.82209 27.4751C6.26327 27.3116 6.70463 27.1485 7.14612 26.9856C8.08689 26.6383 9.02525 26.2862 9.96368 25.9342C10.2619 25.8226 10.5603 25.7114 10.8588 25.6003C11.7937 25.252 12.7254 24.899 13.6511 24.5329C13.8179 24.4678 13.9846 24.4026 14.1564 24.3355C14.4651 24.2147 14.7729 24.0919 15.0794 23.967C16.7127 23.3317 17.7612 23.8437 19.3048 24.4658Z" fill="#2E2E2E"/>
<path d="M115.327 10.2185C115.461 10.2167 115.594 10.215 115.732 10.2132C115.947 10.2127 115.947 10.2127 116.166 10.2122C116.315 10.2113 116.463 10.2104 116.616 10.2095C116.93 10.2081 117.244 10.2074 117.559 10.2075C118.038 10.2069 118.516 10.2019 118.996 10.1967C119.301 10.1959 119.607 10.1953 119.912 10.1951C120.126 10.1921 120.126 10.1921 120.344 10.1891C121.461 10.1961 122.005 10.4987 122.859 11.1168C123.844 12.1283 123.777 13.2465 123.764 14.5077C123.765 14.6758 123.767 14.8439 123.769 15.0172C123.765 16.0985 123.738 17.1223 122.93 17.9968C122.825 18.0692 122.72 18.1416 122.611 18.2162C122.507 18.2911 122.402 18.366 122.294 18.4432C121.465 18.917 120.737 18.9554 119.771 18.9577C119.638 18.9586 119.504 18.9595 119.367 18.9605C119.085 18.9619 118.803 18.9625 118.521 18.9625C118.093 18.9631 117.665 18.9681 117.237 18.9733C116.962 18.9741 116.688 18.9746 116.413 18.9749C116.223 18.9778 116.223 18.9778 116.029 18.9809C114.985 18.9736 114.168 18.7124 113.367 18.1272C113.296 18.0517 113.225 17.9763 113.152 17.8986C113.042 17.7865 113.042 17.7865 112.93 17.6722C112.25 16.7255 112.364 15.674 112.367 14.6021C112.364 14.4251 112.362 14.248 112.359 14.0656C112.358 12.9751 112.379 12.0864 113.161 11.1866C113.253 11.1126 113.345 11.0386 113.44 10.9623C113.532 10.8862 113.623 10.81 113.718 10.7316C114.237 10.3747 114.663 10.2244 115.327 10.2185ZM115.289 12.6166C115.049 12.9713 115.063 13.2404 115.067 13.6498C115.068 13.8022 115.069 13.9545 115.07 14.1115C115.073 14.2706 115.076 14.4297 115.079 14.5936C115.08 14.7532 115.081 14.9128 115.082 15.0772C115.048 15.8509 115.048 15.8509 115.278 16.5766C115.804 16.7281 116.199 16.7317 116.753 16.7322C116.95 16.7324 117.146 16.7325 117.348 16.7327C117.554 16.7322 117.759 16.7317 117.971 16.7311C118.176 16.7316 118.381 16.7322 118.592 16.7327C118.788 16.7325 118.985 16.7324 119.187 16.7322C119.458 16.7319 119.458 16.7319 119.733 16.7317C120.136 16.7166 120.466 16.6974 120.842 16.5766C121.178 15.997 121.031 15.2303 121.031 14.5936C121.034 14.3549 121.034 14.3549 121.037 14.1115C121.037 13.9591 121.038 13.8068 121.038 13.6498C121.039 13.5098 121.039 13.3699 121.04 13.2257C121.031 12.8357 121.031 12.8357 120.683 12.456C120.167 12.3916 120.167 12.3916 119.556 12.4013C119.445 12.4009 119.334 12.4005 119.219 12.4001C118.983 12.3998 118.748 12.4006 118.512 12.4023C118.152 12.4045 117.791 12.4023 117.431 12.3997C117.202 12.4 116.973 12.4005 116.744 12.4013C116.536 12.4018 116.327 12.4022 116.112 12.4027C115.611 12.4234 115.611 12.4234 115.289 12.6166Z" fill="#2E2E2E"/>
<path d="M115.327 10.2185C115.461 10.2167 115.594 10.215 115.732 10.2132C115.947 10.2127 115.947 10.2127 116.166 10.2122C116.315 10.2113 116.463 10.2104 116.616 10.2095C116.93 10.2081 117.244 10.2074 117.559 10.2075C118.038 10.2069 118.516 10.2019 118.996 10.1967C119.301 10.1959 119.607 10.1953 119.912 10.1951C120.126 10.1921 120.126 10.1921 120.344 10.1891C121.461 10.1961 122.005 10.4987 122.859 11.1168C123.844 12.1283 123.777 13.2465 123.764 14.5077C123.765 14.6758 123.767 14.8439 123.769 15.0172C123.765 16.0985 123.738 17.1223 122.93 17.9968C122.825 18.0692 122.72 18.1416 122.611 18.2162C122.507 18.2911 122.402 18.366 122.294 18.4432C121.465 18.917 120.737 18.9554 119.771 18.9577C119.638 18.9586 119.504 18.9595 119.367 18.9605C119.085 18.9619 118.803 18.9625 118.521 18.9625C118.093 18.9631 117.665 18.9681 117.237 18.9733C116.962 18.9741 116.688 18.9746 116.413 18.9749C116.223 18.9778 116.223 18.9778 116.029 18.9809C114.985 18.9736 114.168 18.7124 113.367 18.1272C113.296 18.0517 113.225 17.9763 113.152 17.8986C113.042 17.7865 113.042 17.7865 112.93 17.6722C112.25 16.7255 112.364 15.674 112.367 14.6021C112.364 14.4251 112.362 14.248 112.359 14.0656C112.358 12.9751 112.379 12.0864 113.161 11.1866C113.253 11.1126 113.345 11.0386 113.44 10.9623C113.532 10.8862 113.623 10.81 113.718 10.7316C114.237 10.3747 114.663 10.2244 115.327 10.2185ZM115.289 12.6166C115.049 12.9713 115.063 13.2404 115.067 13.6498C115.068 13.8022 115.069 13.9545 115.07 14.1115C115.073 14.2706 115.076 14.4297 115.079 14.5936C115.08 14.7532 115.081 14.9128 115.082 15.0772C115.048 15.8509 115.048 15.8509 115.278 16.5766C115.804 16.7281 116.199 16.7317 116.753 16.7322C116.95 16.7324 117.146 16.7325 117.348 16.7327C117.554 16.7322 117.759 16.7317 117.971 16.7311C118.176 16.7316 118.381 16.7322 118.592 16.7327C118.788 16.7325 118.985 16.7324 119.187 16.7322C119.458 16.7319 119.458 16.7319 119.733 16.7317C120.136 16.7166 120.466 16.6974 120.842 16.5766C121.178 15.997 121.031 15.2303 121.031 14.5936C121.034 14.3549 121.034 14.3549 121.037 14.1115C121.037 13.9591 121.038 13.8068 121.038 13.6498C121.039 13.5098 121.039 13.3699 121.04 13.2257C121.031 12.8357 121.031 12.8357 120.683 12.456C120.167 12.3916 120.167 12.3916 119.556 12.4013C119.445 12.4009 119.334 12.4005 119.219 12.4001C118.983 12.3998 118.748 12.4006 118.512 12.4023C118.152 12.4045 117.791 12.4023 117.431 12.3997C117.202 12.4 116.973 12.4005 116.744 12.4013C116.536 12.4018 116.327 12.4022 116.112 12.4027C115.611 12.4234 115.611 12.4234 115.289 12.6166Z" fill="#2E2E2E"/>
<path d="M31.0767 10.2026C31.2204 10.201 31.364 10.1995 31.5121 10.1978C31.8157 10.1953 32.1193 10.1935 32.4229 10.1924C32.8839 10.1897 33.3445 10.1812 33.8054 10.1725C36.474 10.1461 36.474 10.1461 37.4636 10.856C38.5501 11.912 38.5293 12.9816 38.5385 14.335C38.5403 14.5236 38.5435 14.7122 38.5482 14.9007C38.5799 16.1721 38.5712 17.0963 37.578 18.0907C37.4893 18.1519 37.4006 18.2132 37.3091 18.2763C37.2208 18.3397 37.1325 18.4031 37.0415 18.4684C36.2298 18.9262 35.4994 18.9555 34.5587 18.9577C34.4252 18.9586 34.2917 18.9595 34.1542 18.9605C33.8724 18.9619 33.5906 18.9625 33.3088 18.9625C32.8806 18.9631 32.4527 18.9681 32.0246 18.9733C31.7498 18.9741 31.475 18.9746 31.2002 18.9749C31.0104 18.9778 31.0104 18.9778 30.8167 18.9809C29.7442 18.9734 28.9107 18.705 28.1138 18.0767C28.0267 17.9783 27.9396 17.8798 27.8499 17.7784C27.715 17.6329 27.715 17.6329 27.5773 17.4844C27.0195 16.5513 27.1699 15.335 27.1643 14.3103C27.161 14.1607 27.1577 14.0111 27.1544 13.8569C27.1487 12.8402 27.2249 12.0305 27.9431 11.1866C28.0789 11.0756 28.0789 11.0756 28.2175 10.9623C28.3073 10.8862 28.3971 10.81 28.4895 10.7316C29.2952 10.206 30.1067 10.2108 31.0767 10.2026ZM30.0763 12.616C29.8373 12.9712 29.8502 13.2403 29.8545 13.6498C29.8553 13.8022 29.8562 13.9545 29.857 14.1115C29.8603 14.2706 29.8636 14.4297 29.8669 14.5936C29.8678 14.7532 29.8686 14.9128 29.8694 15.0772C29.835 15.8509 29.835 15.8509 30.0657 16.5766C30.9488 16.8583 32.002 16.7393 32.9273 16.7397C33.2334 16.7422 33.2334 16.7422 33.5458 16.7448C33.7417 16.7451 33.9376 16.7453 34.1395 16.7456C34.3186 16.7462 34.4977 16.7467 34.6823 16.7473C35.149 16.7142 35.414 16.6798 35.7889 16.4392C36.055 15.8635 35.9771 15.2044 35.9777 14.5936C35.9806 14.4192 35.9806 14.4192 35.9836 14.2413C35.9852 13.6327 35.9704 13.1434 35.6299 12.5934C35.1985 12.2207 33.9351 12.4244 33.3116 12.423C32.9497 12.4217 32.588 12.4174 32.2262 12.4131C31.9966 12.4122 31.767 12.4115 31.5375 12.411C31.223 12.409 31.223 12.409 30.9022 12.4071C30.3987 12.4229 30.3987 12.4229 30.0763 12.616Z" fill="#2E2E2E"/>
<path d="M79.7011 10.2207C79.8316 10.2194 79.9622 10.2181 80.0967 10.2168C80.2365 10.2169 80.3762 10.217 80.5203 10.2171C80.6653 10.2165 80.8103 10.216 80.9598 10.2153C81.2663 10.2146 81.5729 10.2145 81.8794 10.2151C82.347 10.2155 82.8144 10.2123 83.2819 10.2088C83.5802 10.2085 83.8785 10.2084 84.1768 10.2085C84.3159 10.2073 84.455 10.206 84.5984 10.2047C85.5387 10.2108 86.235 10.3307 86.9527 10.9017C87.0273 10.9812 87.1019 11.0607 87.1787 11.1426C87.255 11.2218 87.3312 11.3009 87.4097 11.3825C88.0824 12.1965 88.0394 12.9907 87.9339 13.967C87.6892 14.795 87.1312 15.2474 86.3441 15.7348C85.6533 16.0717 84.9561 16.0456 84.1805 16.0407C84.0649 16.0405 83.9494 16.0403 83.8303 16.0401C83.4627 16.0393 83.095 16.0376 82.7273 16.0358C82.4775 16.0351 82.2276 16.0345 81.9778 16.0339C81.3665 16.0325 80.7552 16.0299 80.1439 16.0272C80.1439 15.3473 80.1439 14.6674 80.1439 13.967C80.7672 13.8593 81.2874 13.8065 81.915 13.791C82.0983 13.7858 82.2815 13.7807 82.4702 13.7754C82.8561 13.7657 83.2419 13.756 83.6278 13.7464C83.8102 13.7413 83.9926 13.7362 84.1805 13.7309C84.3478 13.7267 84.515 13.7226 84.6874 13.7183C85.0641 13.729 85.0641 13.729 85.2312 13.5549C85.2426 13.3691 85.2446 13.1829 85.2412 12.9969C85.2379 12.8184 85.2346 12.64 85.2312 12.4561C84.4928 12.4459 83.7545 12.4384 83.016 12.4334C82.7648 12.4314 82.5136 12.4286 82.2624 12.425C81.9013 12.42 81.5403 12.4177 81.1791 12.4158C81.0668 12.4137 80.9546 12.4116 80.8389 12.4094C80.3941 12.4093 80.063 12.4156 79.6765 12.6161C79.2918 13.1915 79.4268 13.9397 79.4285 14.585C79.4218 14.8227 79.4218 14.8227 79.4149 15.0652C79.4144 15.217 79.414 15.3687 79.4136 15.525C79.4125 15.6641 79.4114 15.8032 79.4102 15.9465C79.4716 16.325 79.4716 16.325 79.8478 16.5521C80.3662 16.7365 80.7598 16.7728 81.3195 16.7843C81.5106 16.7892 81.7017 16.794 81.8986 16.799C82.0967 16.8021 82.2947 16.8052 82.4988 16.8084C82.6999 16.8131 82.9011 16.8178 83.1083 16.8226C83.6039 16.834 84.0996 16.8429 84.5953 16.8514C84.5953 17.5312 84.5953 18.2111 84.5953 18.9116C83.8713 18.9243 83.1478 18.9352 82.4237 18.9418C82.1779 18.9446 81.9322 18.9483 81.6864 18.9531C78.9748 19.0045 78.9748 19.0045 77.7555 18.1321C77.6492 18.0208 77.6492 18.0208 77.5406 17.9072C77.4673 17.8341 77.3939 17.761 77.3183 17.6857C76.6597 16.7234 76.7575 15.6687 76.7656 14.585C76.7644 14.4206 76.7632 14.2561 76.7619 14.0866C76.7649 12.9061 76.7692 12.0113 77.7394 11.1083C77.8472 11.0054 77.955 10.9026 78.066 10.7966C78.5793 10.3857 79.0023 10.2246 79.7011 10.2207Z" fill="#2E2E2E"/>
<path d="M18.1696 10.2306C18.3878 10.2294 18.3878 10.2294 18.6105 10.2282C18.9189 10.2269 19.2274 10.226 19.5358 10.2255C20.0062 10.2241 20.4764 10.2199 20.9468 10.2155C21.2465 10.2146 21.5462 10.2139 21.846 10.2134C21.9861 10.2117 22.1262 10.21 22.2706 10.2083C23.2155 10.2112 23.9116 10.3277 24.6331 10.9018C24.7077 10.9813 24.7823 11.0608 24.8591 11.1427C24.9354 11.2218 25.0116 11.301 25.0901 11.3825C25.5957 11.9943 25.6668 12.5045 25.6733 13.248C25.6747 13.3513 25.6761 13.4547 25.6776 13.5611C25.6799 13.7795 25.6813 13.998 25.6819 14.2164C25.6838 14.5478 25.6916 14.8788 25.6997 15.2101C25.7232 17.1276 25.7232 17.1276 25.0461 17.8935C24.0103 18.78 23.1652 18.9329 21.7261 18.9396C21.5303 18.9407 21.5303 18.9407 21.3305 18.9419C21.0546 18.9432 20.7786 18.9441 20.5027 18.9446C20.083 18.946 19.6633 18.9502 19.2436 18.9546C18.9748 18.9555 18.706 18.9562 18.4373 18.9567C18.3128 18.9584 18.1884 18.9601 18.0603 18.9619C17.0207 18.9583 16.2771 18.7757 15.4794 18.1648C14.4265 17.1288 14.4424 16.2815 14.4301 14.9441C14.4275 14.7346 14.4232 14.525 14.4171 14.3155C14.3768 12.9215 14.4429 11.9843 15.5905 10.9372C15.6817 10.8747 15.7729 10.8122 15.8669 10.7478C15.9593 10.6828 16.0517 10.6178 16.147 10.5509C16.7719 10.1578 17.4263 10.2336 18.1696 10.2306ZM17.1976 12.7619C17.0282 13.1456 16.97 13.4131 16.9717 13.8216C16.9718 13.947 16.9719 14.0725 16.972 14.2017C16.9745 14.331 16.9771 14.4604 16.9797 14.5936C16.9792 14.7235 16.9787 14.8534 16.9782 14.9872C16.9687 15.8239 16.9687 15.8239 17.3474 16.5767C17.8737 16.7282 18.2682 16.7318 18.8223 16.7323C19.0187 16.7324 19.2151 16.7326 19.4175 16.7328C19.623 16.7323 19.8284 16.7317 20.0401 16.7312C20.2449 16.7317 20.4497 16.7322 20.6608 16.7328C20.8574 16.7326 21.054 16.7324 21.2566 16.7323C21.5268 16.732 21.5268 16.732 21.8025 16.7318C22.2052 16.7167 22.5347 16.6975 22.9116 16.5767C23.2573 15.9794 23.1 15.1724 23.1004 14.5164C23.1033 14.2662 23.1033 14.2662 23.1063 14.011C23.1066 13.852 23.1069 13.693 23.1072 13.5292C23.1079 13.3827 23.1086 13.2363 23.1092 13.0854C23.1122 12.7083 23.1122 12.7083 22.7527 12.4561C22.3594 12.4237 21.9845 12.4077 21.5907 12.4051C21.4759 12.4039 21.361 12.4026 21.2427 12.4014C20.9996 12.3994 20.7565 12.3982 20.5134 12.3976C20.1413 12.396 19.7696 12.3893 19.3976 12.3823C19.1616 12.381 18.9255 12.38 18.6894 12.3794C18.5781 12.3767 18.4668 12.374 18.3521 12.3712C17.7989 12.3757 17.5687 12.3943 17.1976 12.7619Z" fill="#2E2E2E"/>
<path d="M90.7189 10.1851C90.8601 10.183 91.0013 10.1808 91.1468 10.1785C91.2985 10.1792 91.4502 10.1799 91.6065 10.1806C91.7642 10.1798 91.9218 10.1789 92.0843 10.178C92.4181 10.1771 92.7519 10.1775 93.0857 10.1792C93.5924 10.1811 94.0987 10.1765 94.6054 10.1712C94.9306 10.1711 95.2558 10.1713 95.581 10.172C95.7308 10.1702 95.8805 10.1684 96.0348 10.1665C97.3231 10.1819 98.3399 10.5335 99.3257 11.2537C100.447 12.4052 100.672 13.4346 100.673 14.9332C100.673 15.1123 100.674 15.2914 100.674 15.4759C100.674 15.5679 100.673 15.6599 100.673 15.7547C100.672 16.0355 100.673 16.3164 100.674 16.5973C100.674 16.7762 100.673 16.9551 100.673 17.1394C100.673 17.3016 100.673 17.4638 100.673 17.6309C100.652 18.0875 100.652 18.0875 100.493 18.9116C99.6538 18.9116 98.8144 18.9116 97.9495 18.9116C97.9472 18.7578 97.9449 18.604 97.9425 18.4455C97.9332 17.8726 97.921 17.2998 97.9078 16.7269C97.9025 16.4794 97.8981 16.2319 97.8944 15.9843C97.8891 15.6276 97.8808 15.2711 97.8719 14.9144C97.8709 14.8045 97.8699 14.6946 97.8688 14.5814C97.8489 13.9192 97.7637 13.4291 97.3136 12.8681C96.7195 12.5636 96.1484 12.5526 95.4673 12.5365C95.2691 12.5312 95.0708 12.5259 94.8665 12.5204C94.6609 12.5162 94.4552 12.5119 94.2433 12.5075C94.0346 12.5022 93.8259 12.4969 93.6108 12.4915C93.0963 12.4785 92.5819 12.4668 92.0673 12.456C92.0686 12.7128 92.0686 12.7128 92.0698 12.9747C92.0727 13.6108 92.0745 14.2469 92.076 14.883C92.0768 15.1581 92.0779 15.4332 92.0793 15.7083C92.0812 16.1042 92.0821 16.5 92.0828 16.8958C92.0837 17.0185 92.0845 17.1411 92.0853 17.2675C92.0853 17.4406 92.0853 17.4406 92.0854 17.6173C92.0857 17.7183 92.0861 17.8192 92.0864 17.9232C92.0673 18.2248 92.0673 18.2248 91.9083 18.9116C91.0689 18.9116 90.2295 18.9116 89.3647 18.9116C89.3503 17.8645 89.3386 16.8174 89.3317 15.7703C89.3284 15.284 89.3239 14.7978 89.3167 14.3116C89.3085 13.7524 89.3054 13.1933 89.3026 12.6342C89.2993 12.4597 89.296 12.2853 89.2926 12.1056C89.2926 11.9434 89.2925 11.7812 89.2925 11.6141C89.2911 11.4713 89.2897 11.3286 89.2882 11.1815C89.4329 10.4746 89.915 10.1907 90.7189 10.1851Z" fill="#2E2E2E"/>
<path d="M52.723 10.1851C52.8642 10.183 53.0054 10.1808 53.151 10.1785C53.3027 10.1792 53.4543 10.1799 53.6106 10.1806C53.7683 10.1798 53.9259 10.1789 54.0884 10.178C54.4222 10.1771 54.756 10.1775 55.0898 10.1792C55.5965 10.1811 56.1028 10.1765 56.6095 10.1712C56.9347 10.1711 57.2599 10.1713 57.5851 10.172C57.7349 10.1702 57.8846 10.1684 58.0389 10.1665C59.3273 10.1819 60.344 10.5335 61.3298 11.2537C61.4265 11.353 61.5233 11.4523 61.6229 11.5547C61.7229 11.6536 61.8229 11.7526 61.926 11.8546C63.0246 13.2714 62.6662 15.3486 62.5867 16.9629C62.5782 17.1533 62.5698 17.3437 62.5616 17.534C62.5412 17.9933 62.5194 18.4524 62.4973 18.9116C61.6579 18.9116 60.8185 18.9116 59.9536 18.9116C59.9513 18.7578 59.949 18.604 59.9466 18.4455C59.9374 17.8726 59.9251 17.2998 59.9119 16.7269C59.9066 16.4794 59.9022 16.2319 59.8986 15.9843C59.8932 15.6276 59.8849 15.2711 59.876 14.9144C59.875 14.8045 59.874 14.6946 59.8729 14.5814C59.853 13.9192 59.7678 13.4291 59.3177 12.8681C58.715 12.5573 58.1283 12.5523 57.4367 12.5365C57.2515 12.5316 57.0662 12.5267 56.8754 12.5217C56.6419 12.517 56.4085 12.5124 56.168 12.5075C55.4236 12.4905 54.6793 12.4736 53.9124 12.456C53.9124 14.5864 53.9124 16.7167 53.9124 18.9116C53.073 18.9116 52.2336 18.9116 51.3688 18.9116C51.3544 17.8645 51.3428 16.8174 51.3358 15.7703C51.3325 15.284 51.328 14.7978 51.3208 14.3116C51.3126 13.7524 51.3095 13.1933 51.3067 12.6342C51.3034 12.4597 51.3001 12.2853 51.2967 12.1056C51.2967 11.9434 51.2966 11.7812 51.2966 11.6141C51.2952 11.4713 51.2938 11.3286 51.2923 11.1815C51.437 10.4746 51.9191 10.1907 52.723 10.1851Z" fill="#2E2E2E"/>
<path d="M2.2966 7.35693C2.41793 7.35743 2.53925 7.35792 2.66426 7.35843C2.85502 7.3584 2.85502 7.3584 3.04963 7.35837C3.472 7.35847 3.89436 7.35954 4.31672 7.36061C4.60877 7.36087 4.90082 7.36106 5.19287 7.3612C5.9631 7.36172 6.73332 7.36307 7.50354 7.36459C8.28888 7.36599 9.07421 7.36662 9.85955 7.36732C11.4016 7.36879 12.9437 7.37121 14.4858 7.37402C14.4858 8.09924 14.4858 8.82446 14.4858 9.57166C14.4857 9.64035 14.4857 9.70902 14.4857 9.70902C13.3729 9.70902 10.3523 9.70902 9.39845 9.70901C9.34599 12.7459 9.29352 15.7827 9.23947 18.9116C8.3476 18.9116 7.45573 18.9116 6.53684 18.9116C6.48437 15.8748 6.43191 12.8379 6.37786 9.70901C4.80397 9.70901 2.91212 9.70901 1.29053 9.70901C1.29053 9.57166 1.2922 9.70389 1.29054 9.57166C1.28627 9.23113 1.28311 8.89064 1.28061 8.5501C1.27861 8.40443 1.27861 8.40443 1.27657 8.25581C1.2752 8.00764 1.28223 7.6221 1.29053 7.37402C1.93309 7.35695 1.92745 7.35757 2.2966 7.35693Z" fill="#2E2E2E"/>
<path d="M64.405 10.2584C65.2444 10.2584 66.0838 10.2584 66.9487 10.2584C67.0011 12.3434 67.0536 14.4284 67.1077 16.5766C69.7761 15.885 71.1799 14.6497 72.5198 12.5738C72.9636 11.8294 73.2869 11.0417 73.6258 10.2584C74.5701 10.2584 75.5144 10.2584 76.4874 10.2584C76.0105 12.3187 73.4668 15.6152 73.4668 15.6152L73.3078 15.7525L73.2283 15.8212C73.2283 15.8212 71.6385 17.6068 68.4093 18.6884C67.2036 18.9758 66.0785 19.217 64.882 18.7743C64.4004 18.3354 64.3464 18.0268 64.3509 17.4312C64.3509 17.2717 64.351 17.1123 64.351 16.948C64.3535 16.7766 64.3559 16.6052 64.3584 16.4285C64.3591 16.2525 64.3598 16.0765 64.3605 15.8951C64.3623 15.4281 64.367 14.9612 64.3723 14.4942C64.3772 14.0173 64.3793 13.5403 64.3817 13.0634C64.3868 12.1284 64.3952 11.1934 64.405 10.2584Z" fill="#2E2E2E"/>
<path d="M104.627 7.37402C105.466 7.37402 106.305 7.37402 107.17 7.37402C107.17 8.32587 107.17 9.27773 107.17 10.2584C107.615 10.256 107.615 10.256 108.069 10.2536C108.455 10.2523 108.841 10.2511 109.227 10.2498C109.423 10.2487 109.619 10.2475 109.82 10.2463C110.099 10.2457 110.099 10.2457 110.384 10.245C110.642 10.2439 110.642 10.2439 110.906 10.2428C111.304 10.2584 111.304 10.2584 111.463 10.3958C111.478 10.6645 111.483 10.9337 111.483 11.2027C111.483 11.4232 111.483 11.4232 111.484 11.648C111.463 12.044 111.463 12.044 111.304 12.4561C109.992 12.4561 108.681 12.4561 107.329 12.4561C107.277 14.5864 107.224 16.7167 107.17 18.9116C106.331 18.9116 105.491 18.9116 104.627 18.9116C104.438 18.5853 104.454 18.4016 104.464 18.0383C104.467 17.9146 104.471 17.7909 104.474 17.6634C104.478 17.5296 104.482 17.3959 104.487 17.258C104.491 17.1212 104.494 16.9844 104.498 16.8435C104.51 16.4054 104.524 15.9674 104.537 15.5293C104.546 15.2328 104.554 14.9363 104.562 14.6397C104.583 13.9118 104.605 13.184 104.627 12.4561C103.577 12.4561 102.528 12.4561 101.447 12.4561C101.447 11.7308 101.447 11.0056 101.447 10.2584C102.444 10.2584 103.441 10.2584 104.468 10.2584C104.461 9.41193 104.461 9.41193 104.453 8.56546C104.453 8.46018 104.453 8.3549 104.452 8.24642C104.451 8.08458 104.451 8.08458 104.45 7.91948C104.468 7.64873 104.468 7.64873 104.627 7.37402Z" fill="#2E2E2E"/>
<path d="M144.212 10.2584C145.052 10.2584 145.891 10.2584 146.756 10.2584C146.886 10.8181 146.936 11.2622 146.938 11.8253C146.939 12.0004 146.94 12.1756 146.941 12.356C146.941 12.5462 146.942 12.7364 146.942 12.9266C146.942 13.1231 146.943 13.3197 146.943 13.5163C146.944 13.9279 146.944 14.3394 146.944 14.751C146.944 15.2761 146.947 15.8012 146.949 16.3263C146.951 16.7322 146.951 17.1382 146.951 17.5441C146.951 17.7376 146.952 17.931 146.953 18.1245C146.969 20.8357 146.969 20.8357 145.802 21.9334C144.413 22.9204 142.892 22.7779 141.192 22.706C140.975 22.698 140.759 22.6901 140.543 22.6824C140.017 22.663 139.492 22.6418 138.966 22.6201C138.966 21.8949 138.966 21.1697 138.966 20.4225C140.645 20.3772 142.324 20.3318 144.053 20.2851C144.106 16.9763 144.158 13.6675 144.212 10.2584Z" fill="#2E2E2E"/>
<path d="M128.364 10.2272C128.564 10.2272 128.564 10.2272 128.769 10.2273C128.911 10.2287 129.054 10.2301 129.201 10.2316C129.422 10.2322 129.422 10.2322 129.648 10.2328C130.117 10.2343 130.587 10.2377 131.057 10.2412C131.376 10.2426 131.694 10.2439 132.013 10.245C132.794 10.248 133.575 10.2528 134.356 10.2584C134.387 10.5731 134.416 10.8879 134.445 11.2027C134.47 11.4656 134.47 11.4656 134.495 11.7339C134.515 12.1813 134.515 12.1813 134.356 12.456C131.365 12.524 131.365 12.524 128.314 12.5934C128.131 12.9101 128.131 13.1014 128.123 13.4541C128.12 13.575 128.116 13.696 128.113 13.8206C128.109 14.0168 128.109 14.0168 128.105 14.2169C128.102 14.3507 128.099 14.4844 128.095 14.6223C128.085 15.0505 128.075 15.4788 128.066 15.907C128.059 16.1969 128.052 16.4868 128.045 16.7767C128.028 17.4883 128.012 18.2 127.996 18.9116C127.157 18.9116 126.318 18.9116 125.453 18.9116C125.333 18.4972 125.273 18.2169 125.266 17.8047C125.264 17.6964 125.262 17.5881 125.26 17.4766C125.258 17.3605 125.257 17.2445 125.256 17.1249C125.255 17.004 125.253 16.883 125.252 16.7584C125.25 16.5023 125.248 16.2463 125.247 15.9902C125.245 15.7302 125.242 15.4702 125.237 15.2102C125.18 12.0525 125.18 12.0525 126.213 11.0948C126.854 10.5831 127.471 10.2226 128.364 10.2272Z" fill="#2E2E2E"/>
<path d="M40.2403 6.54993C41.0797 6.54993 41.9191 6.54993 42.7839 6.54993C42.7879 6.83974 42.7919 7.12956 42.796 7.42816C42.8093 8.38428 42.8234 9.34038 42.8379 10.2965C42.8467 10.8763 42.8552 11.4562 42.863 12.036C42.8706 12.5953 42.8789 13.1546 42.8877 13.7139C42.891 13.9276 42.894 14.1413 42.8967 14.3549C42.9005 14.6536 42.9053 14.9522 42.9103 15.2508C42.914 15.5061 42.914 15.5061 42.9178 15.7665C42.9118 16.1563 42.9118 16.1563 43.1019 16.4393C43.512 16.5342 43.512 16.5342 43.9862 16.5938C44.2715 16.6335 44.5327 16.6453 44.8506 16.6453C44.8506 17.3705 44.8507 18.1644 44.8507 18.9116C43.5016 18.9607 42.5315 18.9515 41.3531 18.3622C41.2736 18.2935 41.2643 18.2855 41.1941 18.2249C41.0352 18.0875 41.1146 18.1562 41.0352 18.0875C40.0305 16.9901 40.1374 15.8005 40.1627 14.4772C40.1641 14.248 40.1653 14.0188 40.1661 13.7896C40.1691 13.1901 40.1769 12.5906 40.1857 11.9911C40.1939 11.3779 40.1975 10.7647 40.2015 10.1514C40.21 8.95085 40.2239 7.75042 40.2403 6.54993Z" fill="#2E2E2E"/>
<path d="M135.627 10.2584C136.467 10.2584 137.306 10.2584 138.171 10.2584C138.267 11.9357 138.351 13.6062 138.32 15.2857C138.329 15.6929 138.377 16.0452 138.489 16.4393C139.014 16.5905 139.434 16.605 139.986 16.6201C140.186 16.6258 140.385 16.6316 140.59 16.6375C140.799 16.6429 141.007 16.6483 141.221 16.6539C141.434 16.6598 141.646 16.6658 141.858 16.6719C142.378 16.6864 142.898 16.7005 143.417 16.714C143.559 17.1693 143.598 17.5717 143.596 18.0446C143.597 18.2451 143.597 18.2451 143.597 18.4497C143.576 18.7743 143.576 18.7743 143.417 18.9116C143.045 18.9306 142.677 18.9409 142.305 18.9443C142.192 18.9455 142.079 18.9466 141.963 18.9477C141.723 18.9496 141.483 18.9511 141.243 18.9522C140.88 18.9545 140.517 18.9605 140.154 18.9666C138.737 18.9799 137.487 18.961 136.397 18.0875C136.327 17.9968 136.256 17.9062 136.184 17.8128C136.11 17.7221 136.036 17.6315 135.96 17.5381C135.653 17.0528 135.608 16.6063 135.609 16.059C135.609 15.9298 135.609 15.8006 135.609 15.6675C135.61 15.5291 135.611 15.3907 135.612 15.2482C135.612 15.1057 135.612 14.9632 135.613 14.8163C135.613 14.3615 135.615 13.9067 135.618 13.4519C135.618 13.1434 135.619 12.8349 135.62 12.5263C135.621 11.7704 135.624 11.0144 135.627 10.2584Z" fill="#2E2E2E"/>
<path d="M46.4405 7.37402C47.2799 7.37402 48.1193 7.37402 48.9841 7.37402C49.2196 7.78084 49.1651 8.19391 49.1637 8.63987C49.1639 8.74196 49.1642 8.84405 49.1645 8.94924C49.1652 9.28781 49.1647 9.62637 49.1642 9.96494C49.1643 10.2 49.1645 10.4351 49.1647 10.6702C49.1649 11.1636 49.1646 11.6569 49.1638 12.1503C49.1629 12.7822 49.1634 13.414 49.1644 14.0458C49.165 14.5316 49.1648 15.0175 49.1644 15.5033C49.1643 15.7362 49.1644 15.9691 49.1648 16.202C49.1652 16.5281 49.1646 16.8543 49.1637 17.1804C49.164 17.2764 49.1643 17.3724 49.1646 17.4713C49.1621 17.9818 49.1016 18.404 48.9841 18.9116C48.1447 18.9116 47.3053 18.9116 46.4405 18.9116C46.4405 15.1042 46.4405 11.2968 46.4405 7.37402Z" fill="#2E2E2E"/>
<path d="M17.8243 29.7624C18.0399 29.8369 18.2561 29.9101 18.4726 29.9824C18.7071 30.0633 18.9414 30.1445 19.1756 30.226C19.29 30.2643 19.4044 30.3027 19.5223 30.3423C20.3266 30.6369 20.3266 30.6369 20.5207 31.0447C20.5228 31.1655 20.5248 31.2862 20.527 31.4106C20.5339 31.5502 20.5409 31.6897 20.5481 31.8334C20.5477 31.9772 20.5472 32.121 20.5468 32.2691C20.5474 32.4869 20.5474 32.4869 20.5481 32.709C20.527 33.0589 20.527 33.0589 20.368 33.1962C20.124 33.209 19.8793 33.2123 19.6348 33.2118C19.4789 33.2118 19.3229 33.2118 19.1623 33.2118C18.9927 33.2111 18.8231 33.2104 18.6484 33.2096C18.3894 33.2093 18.3894 33.2093 18.1251 33.209C17.5711 33.2083 17.0171 33.2065 16.4631 33.2048C16.0885 33.2041 15.7139 33.2035 15.3393 33.2029C14.4189 33.2014 13.4985 33.199 12.578 33.1962C12.578 32.4257 12.578 31.6551 12.578 30.8612C13.2114 30.5811 13.8467 30.3072 14.4858 30.0371C14.6511 29.9638 14.8165 29.8905 14.9869 29.815C16.1415 29.34 16.6903 29.2841 17.8243 29.7624Z" fill="#2E2E2E"/>
<path d="M40.2403 6.54993C41.0797 6.54993 41.9191 6.54993 42.784 6.54993C42.784 6.64058 42.784 6.73123 42.784 6.82463C42.4197 6.85133 42.0554 6.87687 41.691 6.90189C41.3866 6.9234 41.3866 6.9234 41.0762 6.94535C40.5583 6.96198 40.5583 6.96198 40.2403 6.82463C40.2403 6.73398 40.2403 6.64333 40.2403 6.54993Z" fill="#2E2E2E"/>
<path d="M43.4199 16.5767C43.8396 16.622 44.2593 16.6673 44.6917 16.714C44.6917 16.8047 44.6917 16.8953 44.6917 16.9887C44.272 16.9887 43.8523 16.9887 43.4199 16.9887C43.4199 16.8527 43.4199 16.7168 43.4199 16.5767Z" fill="#2E2E2E"/>
<path d="M121.637 18.0875C121.847 18.1782 122.057 18.2688 122.273 18.3622C121.856 18.6581 121.535 18.8293 121.001 18.9116C120.949 18.821 120.896 18.7303 120.842 18.6369C120.944 18.5973 121.046 18.5576 121.15 18.5167C121.503 18.3858 121.503 18.3858 121.637 18.0875Z" fill="#2E2E2E"/>
<path d="M17.3474 23.8563C18.2615 24.1139 18.2615 24.1139 18.6192 24.2684C18.6192 24.359 18.6192 24.4497 18.6192 24.5431C18.4094 24.5431 18.1995 24.5431 17.9833 24.5431C17.9833 24.4524 17.9833 24.3618 17.9833 24.2684C17.7734 24.1777 17.5636 24.0871 17.3474 23.9937C17.3474 23.9483 17.3474 23.903 17.3474 23.8563Z" fill="#3E2B2F"/>
</svg>
