<svg width="23" height="22" viewBox="0 0 23 22" fill="none" xmlns="http://www.w3.org/2000/svg">
<rect width="22.1078" height="22" rx="3" fill="#2E2E2E"/>
<g clip-path="url(#clip0_266_1151)">
<path d="M3.01471 11.5C3.01471 6.80558 6.86196 3 11.5564 3V3C16.2508 3 20.098 6.80558 20.098 11.5V11.5C20.098 16.1944 16.2508 20 11.5564 20V20C6.86196 20 3.01471 16.1944 3.01471 11.5V11.5Z" fill="#2E2E2E"/>
<path d="M14.0564 7.5C14.0564 8.88071 12.9371 10 11.5564 10C10.1757 10 9.05637 8.88071 9.05637 7.5C9.05637 6.11929 10.1757 5 11.5564 5C12.9371 5 14.0564 6.11929 14.0564 7.5Z" stroke="#F2F2F2" stroke-linecap="round" stroke-linejoin="round"/>
<path d="M6.55713 16.9122C6.604 14.1913 8.82429 12 11.5564 12C14.2885 12 16.5089 14.1914 16.5556 16.9124C15.0338 17.6107 13.3406 18 11.5566 18C9.77237 18 8.0791 17.6106 6.55713 16.9122Z" stroke="#F2F2F2" stroke-linecap="round" stroke-linejoin="round"/>
</g>
<defs>
<clipPath id="clip0_266_1151">
<path d="M3.01471 11.5C3.01471 6.80558 6.86196 3 11.5564 3V3C16.2508 3 20.098 6.80558 20.098 11.5V11.5C20.098 16.1944 16.2508 20 11.5564 20V20C6.86196 20 3.01471 16.1944 3.01471 11.5V11.5Z" fill="white"/>
</clipPath>
</defs>
</svg>
