<?xml version="1.0" standalone="no"?>
<!DOCTYPE svg PUBLIC "-//W3C//DTD SVG 20010904//EN"
 "http://www.w3.org/TR/2001/REC-SVG-20010904/DTD/svg10.dtd">
<svg version="1.0" xmlns="http://www.w3.org/2000/svg"
 width="978.000000pt" height="248.000000pt" viewBox="0 0 978.000000 248.000000"
 preserveAspectRatio="xMidYMid meet">

<g transform="translate(0.000000,248.000000) scale(0.100000,-0.100000)"
fill="#000000" stroke="none">
<path d="M2552 1715 c-215 -60 -314 -335 -202 -562 62 -125 158 -178 309 -171
74 3 95 9 149 37 l62 34 0 149 0 149 33 14 c30 13 24 14 -83 13 -63 0 -105 -3
-93 -5 45 -9 53 -37 53 -189 l0 -142 -45 -17 c-64 -25 -151 -17 -204 18 -48
32 -87 96 -108 174 -23 87 -14 271 16 338 44 100 107 139 212 133 87 -5 130
-36 176 -128 l33 -65 -7 95 c-6 95 -20 172 -22 122 -1 -32 -21 -36 -79 -13
-71 28 -137 33 -200 16z"/>
<path d="M4005 1713 c-3 -10 -58 -155 -121 -322 -130 -344 -143 -373 -176
-388 -19 -10 -7 -12 67 -12 86 0 89 0 58 14 -46 20 -46 32 -2 151 l31 81 68 5
c38 3 91 3 118 0 l50 -4 26 -87 c14 -47 26 -94 26 -104 0 -9 -15 -26 -32 -37
l-33 -20 120 1 c94 0 115 3 97 11 -12 6 -31 25 -41 42 -11 17 -69 177 -131
356 -61 178 -112 326 -114 327 -2 2 -7 -4 -11 -14z m34 -303 c22 -69 41 -128
41 -133 0 -4 -45 -7 -100 -7 -55 0 -100 4 -100 9 0 24 103 272 110 264 4 -4
26 -64 49 -133z"/>
<path d="M8422 1709 c-257 -684 -257 -686 -291 -704 -24 -13 -19 -14 64 -14
86 0 89 0 57 14 -18 8 -35 20 -38 28 -2 7 10 56 29 108 l34 94 65 7 c36 3 90
3 119 0 l53 -7 28 -85 c15 -47 27 -93 28 -103 0 -9 -15 -26 -32 -37 l-33 -20
120 0 c112 1 118 2 93 16 -39 21 -52 51 -173 404 -59 173 -109 317 -111 319
-2 2 -7 -7 -12 -20z m29 -286 c23 -71 44 -134 47 -140 3 -10 -20 -13 -97 -13
-60 0 -101 4 -101 10 0 8 32 96 91 248 5 12 10 22 13 22 2 0 23 -57 47 -127z"/>
<path d="M8990 1718 c-105 -29 -153 -163 -97 -269 16 -30 49 -63 108 -107 46
-35 99 -78 117 -95 59 -57 64 -143 11 -196 -73 -74 -193 -30 -234 86 -32 92
-34 90 -34 -37 -1 -123 0 -125 18 -101 l18 23 61 -22 c86 -32 167 -25 219 16
69 55 90 173 47 256 -21 40 -57 74 -149 143 -105 77 -135 116 -135 171 0 37 5
51 30 76 28 28 35 30 81 26 70 -7 114 -51 139 -139 l19 -64 0 124 c1 119 0
122 -16 102 l-18 -21 -57 20 c-63 22 -76 23 -128 8z"/>
<path d="M3077 1701 c66 -17 63 -3 63 -345 0 -234 -3 -316 -12 -328 -7 -9 -29
-21 -48 -26 -27 -8 -1 -10 110 -10 111 0 137 2 110 10 -57 15 -60 26 -60 190
l0 148 24 0 c20 0 41 -28 132 -175 l109 -174 75 0 75 0 -36 19 c-20 10 -52 43
-71 72 -59 88 -158 249 -157 256 0 4 24 18 52 32 41 20 57 35 75 70 45 89 17
201 -62 243 -37 20 -57 22 -226 24 -111 1 -172 -1 -153 -6z m299 -36 c43 -28
64 -74 64 -140 0 -101 -46 -149 -151 -162 l-49 -6 0 161 c0 144 2 161 18 166
29 8 92 -1 118 -19z"/>
<path d="M4440 1700 c60 -15 60 -13 60 -356 0 -335 2 -322 -55 -342 -24 -8 -9
-10 80 -10 101 0 107 1 71 12 -22 7 -43 21 -47 32 -10 25 -11 537 -1 530 4 -2
95 -133 202 -290 107 -157 198 -286 203 -286 4 0 7 152 7 339 0 259 3 341 13
349 6 6 28 15 47 20 28 8 13 10 -80 10 -95 0 -109 -2 -77 -10 20 -6 42 -18 47
-29 6 -11 9 -106 8 -240 l-3 -222 -170 249 -171 249 -84 2 c-64 1 -76 -1 -50
-7z"/>
<path d="M5200 1700 c18 -4 40 -16 47 -26 18 -25 19 -623 1 -646 -7 -9 -29
-21 -48 -26 -51 -15 259 -15 335 -1 107 20 184 81 234 189 23 48 26 68 26 160
0 127 -18 188 -76 254 -22 25 -65 57 -97 73 -56 27 -61 28 -257 30 -127 1
-187 -1 -165 -7z m312 -34 c25 -7 61 -25 80 -40 119 -90 144 -359 47 -500 -48
-70 -161 -116 -244 -98 l-40 8 -3 312 -2 313 22 9 c34 13 89 12 140 -4z"/>
<path d="M6167 1700 c12 -5 28 -22 36 -37 8 -15 63 -175 123 -355 60 -181 111
-328 115 -328 3 0 52 136 109 303 126 370 136 394 169 412 24 13 19 14 -64 13
-49 0 -81 -3 -70 -5 32 -8 45 -23 45 -52 0 -38 -157 -489 -164 -471 -36 91
-156 457 -156 474 0 28 15 42 50 49 14 2 -29 5 -95 5 -79 0 -112 -2 -98 -8z"/>
<path d="M6866 1699 c60 -17 59 -14 59 -350 0 -334 2 -324 -58 -346 -26 -9 14
-12 214 -12 l247 -1 21 86 c12 48 19 89 16 92 -3 3 -5 -1 -5 -8 0 -25 -55 -99
-85 -115 -23 -13 -54 -16 -140 -13 l-110 3 -3 164 -3 163 100 -4 c61 -2 105
-9 114 -17 9 -7 20 -31 26 -54 7 -34 9 -16 9 88 0 107 -2 122 -10 87 -12 -56
-47 -72 -158 -72 l-80 0 0 145 0 145 108 0 c132 0 151 -9 174 -75 l17 -50 1
78 0 77 -242 -1 c-163 -1 -233 -4 -212 -10z"/>
<path d="M7533 1698 c26 -7 41 -18 48 -35 5 -13 9 -156 9 -317 0 -321 0 -320
-61 -342 -28 -11 6 -12 205 -11 l239 2 23 80 c31 106 30 120 -3 54 -43 -84
-74 -99 -198 -99 -85 0 -104 3 -109 16 -10 26 -7 590 3 617 7 17 22 28 48 35
31 8 11 10 -102 10 -113 0 -133 -2 -102 -10z"/>
<path d="M9366 1109 c-33 -26 -36 -79 -6 -109 30 -30 83 -27 109 6 28 36 26
60 -8 95 -35 34 -59 36 -95 8z m89 -14 c30 -29 32 -58 5 -85 -41 -41 -110 -15
-110 42 0 33 31 68 60 68 12 0 32 -11 45 -25z"/>
<path d="M9388 1050 c-2 -22 0 -40 4 -40 5 0 8 18 8 40 0 22 -2 40 -4 40 -2 0
-6 -18 -8 -40z"/>
<path d="M9417 1068 c-6 -22 10 -64 20 -54 3 3 1 11 -5 19 -6 7 -9 23 -5 35 3
12 3 22 0 22 -2 0 -7 -10 -10 -22z"/>
<path d="M5250 565 c0 -248 1 -255 20 -255 19 0 20 7 20 255 0 248 -1 255 -20
255 -19 0 -20 -7 -20 -255z"/>
<path d="M2390 590 c0 -133 2 -160 15 -160 10 0 15 15 17 57 3 55 4 58 30 60
30 2 38 -4 94 -72 25 -31 44 -45 61 -45 23 0 22 3 -23 55 -26 31 -45 57 -43
59 2 2 15 9 27 15 30 16 55 75 47 111 -3 16 -17 40 -30 54 -22 24 -30 26 -110
26 l-85 0 0 -160z m165 105 c28 -27 30 -42 14 -79 -13 -28 -35 -36 -101 -36
l-48 0 0 63 c0 35 3 67 7 70 3 4 28 7 55 7 39 0 54 -5 73 -25z"/>
<path d="M2672 728 c2 -12 10 -23 18 -23 22 0 19 39 -3 43 -15 3 -18 -1 -15
-20z"/>
<path d="M3004 739 c-10 -17 23 -46 37 -32 7 7 9 19 6 27 -7 18 -33 21 -43 5z"/>
<path d="M3990 590 c0 -136 2 -160 15 -160 13 0 15 20 15 120 0 66 3 120 8
120 4 0 27 -34 50 -75 24 -41 47 -75 51 -75 3 0 27 34 51 76 l45 75 3 -120 c2
-113 4 -121 22 -121 19 0 20 8 20 161 0 160 0 160 -22 157 -16 -2 -36 -26 -68
-80 -25 -43 -48 -78 -52 -78 -3 0 -27 36 -53 80 -33 56 -53 80 -66 80 -18 0
-19 -9 -19 -160z"/>
<path d="M5480 590 c0 -136 2 -160 15 -160 13 0 15 20 15 120 0 66 3 120 8
120 4 0 26 -34 50 -75 23 -41 46 -75 50 -75 4 0 27 35 52 78 l45 77 3 -122 c2
-115 4 -123 22 -123 19 0 20 8 20 160 0 159 0 160 -22 160 -18 0 -33 -17 -68
-80 -25 -44 -48 -80 -52 -80 -4 0 -28 36 -54 80 -32 56 -51 80 -65 80 -18 0
-19 -9 -19 -160z"/>
<path d="M5920 729 c-7 -11 -9 -23 -6 -26 9 -9 34 5 46 26 9 18 8 21 -9 21
-11 0 -25 -9 -31 -21z"/>
<path d="M6314 735 c-7 -18 3 -35 21 -35 15 0 28 27 19 41 -8 14 -34 11 -40
-6z"/>
<path d="M2670 550 c0 -113 1 -120 20 -120 19 0 20 7 20 120 0 113 -1 120 -20
120 -19 0 -20 -7 -20 -120z"/>
<path d="M3010 550 c0 -113 1 -120 20 -120 19 0 20 7 20 120 0 113 -1 120 -20
120 -19 0 -20 -7 -20 -120z"/>
<path d="M3173 655 c-43 -18 -66 -57 -66 -110 0 -54 24 -92 70 -112 31 -12 41
-13 71 -1 36 14 62 42 49 54 -4 5 -21 0 -36 -9 -16 -9 -39 -17 -50 -17 -23 0
-71 41 -71 60 0 6 34 10 90 10 84 0 90 1 90 20 0 82 -76 136 -147 105z m87
-45 c38 -38 27 -50 -50 -50 -77 0 -84 7 -45 45 29 30 68 32 95 5z"/>
<path d="M5883 655 c-75 -32 -86 -153 -19 -207 30 -25 97 -23 130 3 22 17 24
24 15 35 -7 8 -15 11 -18 6 -24 -36 -102 -37 -121 -2 -19 36 -12 40 75 40 l85
0 0 35 c0 70 -80 120 -147 90z m96 -51 c12 -15 21 -31 21 -35 0 -5 -31 -9 -70
-9 -77 0 -88 12 -50 50 29 29 74 26 99 -6z"/>
<path d="M6310 550 c0 -113 1 -120 20 -120 19 0 20 7 20 120 0 113 -1 120 -20
120 -19 0 -20 -7 -20 -120z"/>
<path d="M6713 655 c-57 -25 -81 -111 -48 -175 19 -37 43 -50 90 -50 47 0 71
13 90 50 34 65 9 151 -50 176 -41 17 -42 17 -82 -1z m84 -40 c45 -32 38 -124
-11 -146 -36 -17 -73 -3 -92 32 -30 58 4 129 61 129 11 0 30 -7 42 -15z"/>
<path d="M2762 648 c3 -7 22 -59 43 -115 51 -137 60 -136 114 7 22 61 41 113
41 115 0 3 -8 5 -18 5 -13 0 -25 -21 -47 -84 -16 -47 -32 -83 -36 -80 -4 2
-20 40 -35 84 -22 61 -33 80 -47 80 -11 0 -17 -5 -15 -12z"/>
<path d="M3380 544 c0 -107 1 -114 20 -114 18 0 20 7 20 80 0 68 3 83 21 101
15 15 29 20 49 15 19 -3 30 -1 34 9 7 18 -16 24 -86 23 l-58 -1 0 -113z"/>
<path d="M3601 639 c-95 -89 -12 -253 103 -205 20 8 36 11 36 5 0 -5 9 -9 20
-9 19 0 20 7 20 115 0 108 -1 115 -20 115 -11 0 -20 -5 -20 -10 0 -7 -6 -7
-19 0 -34 17 -95 12 -120 -11z m114 -34 c17 -16 25 -35 25 -60 0 -66 -74 -110
-115 -68 -42 41 -41 99 2 133 34 27 59 25 88 -5z"/>
<path d="M4369 631 c-25 -25 -29 -37 -29 -84 0 -65 23 -100 75 -117 29 -9 41
-9 67 5 21 10 34 12 36 5 2 -5 10 -10 18 -10 11 0 14 22 14 115 0 93 -3 115
-14 115 -8 0 -16 -6 -19 -12 -4 -10 -7 -10 -18 0 -7 6 -33 12 -57 12 -35 0
-49 -6 -73 -29z m106 -7 c26 -10 48 -62 40 -100 -11 -63 -76 -83 -122 -38 -22
22 -25 32 -20 67 8 60 51 90 102 71z"/>
<path d="M4600 653 c0 -4 16 -55 37 -111 39 -110 38 -102 6 -189 -3 -8 3 -13
14 -13 14 0 24 15 40 58 12 31 39 103 61 160 38 97 40 103 20 100 -16 -2 -27
-22 -50 -83 -16 -44 -31 -81 -32 -83 -2 -2 -17 34 -34 80 -18 52 -36 84 -46
86 -9 2 -16 0 -16 -5z"/>
<path d="M4884 642 c-71 -57 -53 -184 29 -211 28 -10 42 -9 71 3 20 8 36 11
36 5 0 -5 7 -9 15 -9 12 0 15 19 15 115 0 96 -3 115 -15 115 -8 0 -15 -5 -15
-10 0 -7 -6 -7 -19 0 -30 16 -94 12 -117 -8z m111 -37 c64 -63 -6 -177 -84
-135 -25 13 -45 64 -37 95 16 63 78 84 121 40z"/>
<path d="M6080 655 c0 -3 15 -29 34 -57 l35 -51 -40 -58 c-36 -53 -38 -59 -20
-59 13 0 31 15 47 40 15 22 30 40 34 40 4 0 19 -18 34 -40 14 -22 33 -40 41
-40 22 0 19 9 -20 68 l-36 52 29 43 c45 66 45 67 23 67 -11 0 -28 -14 -41 -35
-12 -19 -25 -35 -30 -35 -5 0 -18 16 -30 35 -13 20 -30 35 -41 35 -10 0 -19
-2 -19 -5z"/>
<path d="M6447 634 c-73 -73 -27 -204 72 -204 46 0 87 26 71 45 -9 11 -16 11
-39 -3 -38 -22 -85 -3 -100 41 -26 72 39 140 100 105 23 -14 30 -14 39 -3 17
20 -26 45 -76 45 -31 0 -48 -6 -67 -26z"/>
</g>
</svg>
