<svg width="214" height="63" viewBox="0 0 214 63" fill="none" xmlns="http://www.w3.org/2000/svg">
<path d="M167.6 15.7406C167.795 15.7376 167.991 15.7347 168.192 15.7316C168.506 15.7308 168.506 15.7308 168.827 15.73C169.044 15.7285 169.261 15.7269 169.485 15.7254C169.944 15.723 170.403 15.7219 170.862 15.722C171.562 15.721 172.262 15.7125 172.962 15.7037C173.408 15.7023 173.855 15.7014 174.302 15.701C174.614 15.696 174.614 15.696 174.933 15.6909C176.566 15.7027 177.36 16.2149 178.609 17.2611C180.048 18.973 179.951 20.8656 179.931 23.0002C179.933 23.2848 179.936 23.5693 179.939 23.8625C179.933 25.6927 179.893 27.4255 178.713 28.9056C178.559 29.0282 178.405 29.1507 178.246 29.277C178.093 29.4038 177.941 29.5305 177.783 29.6611C176.571 30.4631 175.508 30.5281 174.096 30.532C173.9 30.5335 173.705 30.5351 173.504 30.5367C173.092 30.539 172.681 30.5401 172.269 30.54C171.643 30.5411 171.018 30.5495 170.392 30.5583C169.99 30.5597 169.589 30.5606 169.187 30.561C168.91 30.5661 168.91 30.5661 168.626 30.5712C167.1 30.5589 165.906 30.1168 164.735 29.1263C164.631 28.9986 164.528 28.8709 164.421 28.7394C164.26 28.5497 164.26 28.5497 164.096 28.3562C163.102 26.754 163.269 24.9743 163.274 23.1601C163.27 22.8604 163.266 22.5607 163.262 22.252C163.261 20.4062 163.292 18.9021 164.435 17.3791C164.569 17.2539 164.704 17.1286 164.842 16.9996C164.976 16.8707 165.11 16.7418 165.248 16.6091C166.007 16.005 166.629 15.7506 167.6 15.7406ZM167.545 19.7995C167.194 20.3999 167.214 20.8553 167.22 21.5482C167.221 21.8061 167.223 22.0639 167.224 22.3296C167.229 22.5989 167.233 22.8681 167.238 23.1455C167.239 23.4157 167.241 23.6859 167.242 23.9642C167.192 25.2736 167.192 25.2736 167.529 26.5019C168.298 26.7584 168.875 26.7644 169.684 26.7652C169.971 26.7655 170.259 26.7658 170.554 26.7661C170.855 26.7652 171.155 26.7643 171.464 26.7634C171.764 26.7643 172.063 26.7652 172.371 26.7661C172.659 26.7658 172.946 26.7655 173.242 26.7652C173.637 26.7648 173.637 26.7648 174.04 26.7644C174.629 26.7388 175.11 26.7064 175.661 26.5019C176.151 25.5209 175.937 24.2233 175.937 23.1455C175.941 22.7417 175.941 22.7417 175.946 22.3296C175.946 22.0718 175.947 21.8139 175.947 21.5482C175.948 21.3113 175.949 21.0745 175.95 20.8304C175.937 20.1703 175.937 20.1703 175.429 19.5277C174.674 19.4187 174.674 19.4187 173.781 19.4351C173.619 19.4344 173.456 19.4337 173.288 19.433C172.944 19.4326 172.6 19.4339 172.255 19.4368C171.728 19.4405 171.202 19.4368 170.675 19.4323C170.341 19.4328 170.006 19.4337 169.672 19.4351C169.367 19.4359 169.062 19.4366 168.748 19.4375C168.015 19.4725 168.015 19.4725 167.545 19.7995Z" fill="#FDF5E7"/>
<path d="M44.4636 15.7137C44.6736 15.7111 44.8836 15.7084 45.1 15.7057C45.5437 15.7013 45.9874 15.6982 46.4311 15.6964C47.1049 15.6919 47.7781 15.6775 48.4518 15.6628C52.3521 15.6181 52.3521 15.6181 53.7984 16.8196C55.3864 18.6069 55.3561 20.4173 55.3694 22.7079C55.3721 23.0271 55.3768 23.3463 55.3837 23.6654C55.43 25.8172 55.4172 27.3816 53.9657 29.0645C53.836 29.1682 53.7063 29.2719 53.5727 29.3787C53.4436 29.486 53.3145 29.5933 53.1815 29.7038C51.9952 30.4786 50.9276 30.5282 49.5527 30.532C49.3576 30.5335 49.1625 30.5351 48.9616 30.5367C48.5497 30.539 48.1378 30.5401 47.7259 30.5401C47.1002 30.5411 46.4748 30.5495 45.8491 30.5583C45.4475 30.5597 45.0458 30.5606 44.6442 30.5611C44.3667 30.5661 44.3667 30.5661 44.0837 30.5712C42.5161 30.5586 41.2979 30.1042 40.1332 29.0409C40.0059 28.8743 39.8786 28.7077 39.7475 28.536C39.5502 28.2897 39.5502 28.2897 39.349 28.0384C38.5338 26.4591 38.7536 24.4005 38.7454 22.6661C38.7406 22.4129 38.7359 22.1596 38.7309 21.8987C38.7226 20.178 38.8341 18.8074 39.8836 17.3791C40.0822 17.1913 40.0822 17.1913 40.2848 16.9996C40.416 16.8707 40.5472 16.7418 40.6823 16.6091C41.8599 15.7195 43.0459 15.7276 44.4636 15.7137ZM43.0015 19.7985C42.6522 20.3996 42.671 20.8552 42.6773 21.5482C42.6785 21.8061 42.6797 22.0639 42.681 22.3296C42.6858 22.5989 42.6906 22.8681 42.6955 23.1456C42.6967 23.4157 42.6979 23.6859 42.6991 23.9642C42.6489 25.2736 42.6489 25.2736 42.9859 26.5019C44.2767 26.9788 45.816 26.7773 47.1683 26.7779C47.6158 26.7822 47.6158 26.7822 48.0724 26.7866C48.3587 26.787 48.645 26.7875 48.9401 26.7879C49.2018 26.7889 49.4636 26.7898 49.7333 26.7908C50.4155 26.7348 50.8028 26.6765 51.3508 26.2694C51.7397 25.2949 51.6259 24.1793 51.6267 23.1456C51.6309 22.8505 51.6309 22.8505 51.6353 22.5494C51.6377 21.5193 51.616 20.691 51.1184 19.7602C50.4879 19.1294 48.6413 19.4742 47.7301 19.4719C47.2012 19.4696 46.6725 19.4624 46.1436 19.4551C45.8081 19.4535 45.4726 19.4523 45.137 19.4514C44.6775 19.4482 44.6775 19.4482 44.2086 19.4448C43.4726 19.4716 43.4726 19.4716 43.0015 19.7985Z" fill="#FDF6E7"/>
<path d="M115.531 15.7443C115.722 15.742 115.912 15.7398 116.109 15.7375C116.313 15.7378 116.518 15.738 116.728 15.7382C116.94 15.7372 117.152 15.7362 117.37 15.7352C117.818 15.7338 118.267 15.7337 118.715 15.7347C119.398 15.7355 120.081 15.73 120.764 15.7241C121.2 15.7236 121.636 15.7234 122.072 15.7237C122.276 15.7215 122.479 15.7194 122.688 15.7172C124.063 15.7275 125.08 15.9304 126.129 16.8969C126.238 17.0315 126.347 17.166 126.46 17.3046C126.571 17.4386 126.683 17.5726 126.797 17.7106C127.781 19.0883 127.718 20.4326 127.563 22.0849C127.206 23.4864 126.39 24.252 125.24 25.077C124.23 25.6472 123.211 25.603 122.078 25.5946C121.909 25.5943 121.74 25.594 121.566 25.5936C121.029 25.5924 120.491 25.5894 119.954 25.5865C119.589 25.5853 119.223 25.5842 118.858 25.5833C117.965 25.5809 117.071 25.5764 116.178 25.5719C116.178 24.4212 116.178 23.2705 116.178 22.0849C117.089 21.9026 117.849 21.8133 118.767 21.787C119.034 21.7783 119.302 21.7696 119.578 21.7607C120.142 21.7442 120.706 21.7279 121.27 21.7116C121.536 21.7029 121.803 21.6942 122.078 21.6853C122.322 21.6783 122.567 21.6712 122.819 21.664C123.369 21.6822 123.369 21.6822 123.613 21.3874C123.63 21.073 123.633 20.7578 123.628 20.443C123.623 20.141 123.618 19.8389 123.613 19.5277C122.534 19.5104 121.455 19.4978 120.376 19.4894C120.009 19.4858 119.641 19.4811 119.274 19.475C118.747 19.4666 118.219 19.4626 117.691 19.4596C117.527 19.456 117.363 19.4524 117.194 19.4486C116.544 19.4484 116.06 19.4591 115.495 19.7984C114.933 20.7724 115.13 22.0387 115.132 23.131C115.123 23.5333 115.123 23.5333 115.112 23.9437C115.112 24.2005 115.111 24.4574 115.111 24.722C115.109 24.9574 115.107 25.1927 115.106 25.4353C115.195 26.0759 115.195 26.0759 115.745 26.4603C116.503 26.7724 117.078 26.8339 117.896 26.8533C118.175 26.8615 118.455 26.8697 118.743 26.8782C119.032 26.8835 119.322 26.8887 119.62 26.8941C119.914 26.9021 120.208 26.91 120.511 26.9182C121.235 26.9373 121.96 26.9524 122.684 26.9668C122.684 28.1175 122.684 29.2683 122.684 30.4539C121.626 30.4753 120.568 30.4938 119.51 30.5049C119.151 30.5096 118.792 30.5159 118.432 30.524C114.469 30.611 114.469 30.611 112.687 29.1344C112.532 28.9461 112.532 28.9461 112.373 28.7539C112.266 28.6301 112.159 28.5064 112.048 28.3789C111.086 26.7502 111.229 24.9651 111.24 23.131C111.239 22.8526 111.237 22.5742 111.235 22.2874C111.239 20.2894 111.246 18.7749 112.664 17.2465C112.821 17.0724 112.979 16.8983 113.141 16.7189C113.891 16.0235 114.509 15.7508 115.531 15.7443Z" fill="#FDF6E8"/>
<path d="M25.5991 15.7609C25.918 15.7589 25.918 15.7589 26.2435 15.7569C26.6943 15.7547 27.1451 15.7532 27.5959 15.7523C28.2833 15.75 28.9706 15.7428 29.658 15.7355C30.0961 15.734 30.5342 15.7327 30.9723 15.7318C31.1771 15.729 31.3819 15.7261 31.593 15.7231C32.974 15.7281 33.9913 15.9253 35.0458 16.8969C35.1548 17.0315 35.2639 17.166 35.3762 17.3047C35.4876 17.4386 35.599 17.5726 35.7138 17.7106C36.4527 18.746 36.5567 19.6097 36.5661 20.868C36.5682 21.0429 36.5703 21.2178 36.5725 21.3979C36.5758 21.7676 36.5779 22.1373 36.5788 22.507C36.5815 23.0679 36.5929 23.6282 36.6047 24.1889C36.6391 27.4344 36.6391 27.4344 35.6495 28.7306C34.1355 30.2311 32.9004 30.4898 30.7971 30.5011C30.5109 30.5031 30.5109 30.5031 30.2189 30.5051C29.8156 30.5073 29.4123 30.5088 29.009 30.5097C28.3956 30.512 27.7823 30.5192 27.1688 30.5265C26.776 30.528 26.3831 30.5293 25.9903 30.5302C25.8084 30.533 25.6266 30.5359 25.4393 30.5389C23.9198 30.5328 22.8331 30.2237 21.6672 29.1898C20.1284 27.4364 20.1515 26.0023 20.1336 23.7387C20.1298 23.384 20.1234 23.0294 20.1145 22.6749C20.0557 20.3154 20.1524 18.7292 21.8296 16.9569C21.9629 16.8511 22.0962 16.7453 22.2335 16.6363C22.3686 16.5263 22.5037 16.4163 22.6429 16.303C23.5563 15.6378 24.5127 15.7661 25.5991 15.7609ZM24.1784 20.0452C23.9309 20.6948 23.8458 21.1475 23.8482 21.8388C23.8484 22.0511 23.8485 22.2634 23.8487 22.4822C23.8524 22.7011 23.8562 22.92 23.86 23.1455C23.8593 23.3653 23.8585 23.5851 23.8578 23.8116C23.8439 25.2278 23.8439 25.2278 24.3974 26.5018C25.1666 26.7584 25.7432 26.7644 26.553 26.7652C26.8401 26.7655 27.1272 26.7658 27.423 26.7661C27.7233 26.7652 28.0235 26.7643 28.3329 26.7634C28.6323 26.7643 28.9316 26.7652 29.2401 26.7661C29.5275 26.7658 29.8149 26.7655 30.111 26.7652C30.5059 26.7648 30.5059 26.7648 30.9087 26.7644C31.4974 26.7388 31.979 26.7064 32.5298 26.5018C33.035 25.4909 32.8052 24.1252 32.8057 23.0148C32.81 22.5913 32.81 22.5913 32.8144 22.1593C32.8148 21.8902 32.8153 21.6211 32.8157 21.3439C32.8167 21.096 32.8176 20.8482 32.8186 20.5929C32.8229 19.9546 32.8229 19.9546 32.2975 19.5277C31.7228 19.4728 31.1748 19.4458 30.5993 19.4414C30.4314 19.4393 30.2635 19.4372 30.0905 19.4351C29.7353 19.4317 29.38 19.4296 29.0247 19.4288C28.4809 19.426 27.9376 19.4146 27.3939 19.4028C27.0489 19.4006 26.7038 19.3989 26.3588 19.3978C26.1961 19.3933 26.0334 19.3887 25.8658 19.3841C25.0572 19.3916 24.7209 19.4231 24.1784 20.0452Z" fill="#FDF5E7"/>
<path d="M131.634 15.6841C131.84 15.6804 132.047 15.6768 132.259 15.673C132.481 15.6741 132.703 15.6753 132.931 15.6765C133.162 15.675 133.392 15.6736 133.63 15.6721C134.117 15.6704 134.605 15.6712 135.093 15.6741C135.834 15.6773 136.574 15.6695 137.314 15.6606C137.79 15.6603 138.265 15.6608 138.74 15.6619C138.959 15.6588 139.178 15.6558 139.404 15.6526C141.286 15.6786 142.772 16.2737 144.213 17.4926C145.852 19.4416 146.18 21.184 146.183 23.7204C146.183 24.0235 146.183 24.3266 146.184 24.6389C146.183 24.7946 146.183 24.9503 146.182 25.1107C146.181 25.5861 146.182 26.0614 146.184 26.5368C146.183 26.8396 146.183 27.1425 146.183 27.4544C146.183 27.729 146.182 28.0035 146.182 28.2863C146.152 29.0591 146.152 29.0591 145.92 30.4539C144.693 30.4539 143.466 30.4539 142.202 30.4539C142.199 30.1936 142.195 29.9333 142.192 29.6651C142.178 28.6954 142.16 27.7258 142.141 26.7562C142.133 26.3373 142.127 25.9184 142.121 25.4994C142.114 24.8957 142.101 24.2922 142.089 23.6886C142.087 23.5025 142.086 23.3165 142.084 23.1248C142.055 22.0041 141.93 21.1746 141.273 20.2251C140.404 19.7097 139.57 19.6912 138.574 19.6639C138.284 19.6549 137.995 19.6459 137.696 19.6367C137.395 19.6295 137.095 19.6223 136.785 19.6149C136.48 19.6059 136.175 19.5969 135.861 19.5876C135.109 19.5657 134.357 19.5458 133.605 19.5277C133.607 19.9622 133.607 19.9622 133.608 20.4055C133.613 21.4822 133.615 22.5588 133.618 23.6354C133.619 24.101 133.62 24.5667 133.622 25.0323C133.625 25.7022 133.626 26.3722 133.627 27.0422C133.629 27.2497 133.63 27.4573 133.631 27.6712C133.631 27.9643 133.631 27.9643 133.631 28.2633C133.632 28.4342 133.632 28.605 133.633 28.7811C133.605 29.2915 133.605 29.2915 133.372 30.4539C132.146 30.4539 130.919 30.4539 129.655 30.4539C129.634 28.6816 129.617 26.9094 129.607 25.1371C129.602 24.3141 129.595 23.4912 129.585 22.6682C129.573 21.7219 129.568 20.7756 129.564 19.8292C129.559 19.534 129.554 19.2387 129.549 18.9346C129.549 18.66 129.549 18.3855 129.549 18.1027C129.547 17.8611 129.545 17.6195 129.543 17.3706C129.754 16.1741 130.459 15.6935 131.634 15.6841Z" fill="#FDF6E8"/>
<path d="M76.1009 15.6841C76.3073 15.6804 76.5137 15.6768 76.7264 15.673C76.9481 15.6741 77.1698 15.6753 77.3982 15.6765C77.6287 15.675 77.8591 15.6736 78.0965 15.6721C78.5843 15.6704 79.0722 15.6712 79.5601 15.6741C80.3007 15.6773 81.0407 15.6695 81.7812 15.6606C82.2565 15.6603 82.7318 15.6608 83.2071 15.6619C83.426 15.6588 83.6449 15.6558 83.8704 15.6526C85.7534 15.6786 87.2394 16.2737 88.6802 17.4926C88.8216 17.6608 88.963 17.8289 89.1086 18.0021C89.2548 18.1696 89.401 18.3371 89.5516 18.5097C91.1573 20.9077 90.6335 24.4235 90.5173 27.1557C90.5049 27.4779 90.4926 27.8001 90.4805 28.1224C90.4507 28.8996 90.4189 29.6768 90.3866 30.4539C89.1597 30.4539 87.9329 30.4539 86.6689 30.4539C86.6655 30.1936 86.6621 29.9333 86.6586 29.6651C86.6451 28.6954 86.6272 27.7258 86.6079 26.7562C86.6002 26.3373 86.5937 25.9184 86.5884 25.4994C86.5806 24.8957 86.5684 24.2922 86.5554 23.6886C86.5539 23.5025 86.5525 23.3165 86.5509 23.1248C86.5218 22.0041 86.3972 21.1746 85.7395 20.2251C84.8585 19.6991 84.001 19.6906 82.9902 19.6639C82.7195 19.6556 82.4488 19.6473 82.1699 19.6388C81.8287 19.6309 81.4875 19.623 81.1359 19.6149C80.048 19.5861 78.9602 19.5573 77.8394 19.5277C77.8394 23.1333 77.8394 26.739 77.8394 30.4539C76.6125 30.4539 75.3857 30.4539 74.1217 30.4539C74.1006 28.6816 74.0836 26.9094 74.0735 25.1371C74.0687 24.3141 74.0621 23.4912 74.0515 22.6682C74.0395 21.7219 74.035 20.7756 74.0309 19.8292C74.0261 19.534 74.0213 19.2387 74.0164 18.9346C74.0163 18.66 74.0162 18.3855 74.0161 18.1027C74.0141 17.8611 74.012 17.6195 74.0099 17.3706C74.2213 16.1741 74.926 15.6935 76.1009 15.6841Z" fill="#FDF6E8"/>
<path d="M2.39977 10.8973C2.5771 10.8981 2.75443 10.8989 2.93712 10.8998C3.21593 10.8998 3.21593 10.8998 3.50037 10.8997C4.11769 10.8999 4.73499 10.9017 5.3523 10.9035C5.77915 10.9039 6.20599 10.9043 6.63284 10.9045C7.75857 10.9054 8.88429 10.9077 10.01 10.9102C11.1578 10.9126 12.3056 10.9137 13.4535 10.9149C15.7073 10.9173 17.9611 10.9214 20.2149 10.9262C20.2149 12.1537 20.2149 13.3811 20.2149 14.6458C20.2149 14.762 20.2149 14.8783 20.2149 14.8783C18.5884 14.8783 14.1736 14.8783 12.7795 14.8782C12.7029 20.0182 12.6262 25.1582 12.5472 30.4539C11.2437 30.4539 9.94014 30.4539 8.59712 30.4539C8.52044 25.3139 8.44376 20.174 8.36476 14.8782C6.06444 14.8782 3.29939 14.8782 0.929353 14.8782C0.929341 14.6458 0.931788 14.8696 0.929366 14.6458C0.923127 14.0694 0.918499 13.4931 0.914843 12.9167C0.911923 12.6702 0.911923 12.6702 0.908944 12.4187C0.906935 11.9986 0.917211 11.3461 0.92934 10.9262C1.86848 10.8973 1.86024 10.8984 2.39977 10.8973Z" fill="#FDF5E8"/>
<path d="M93.1748 15.8082C94.4017 15.8082 95.6285 15.8082 96.8925 15.8082C96.9692 19.3371 97.0459 22.866 97.1249 26.5019C101.025 25.3313 103.077 23.2405 105.035 19.7271C105.684 18.467 106.156 17.1338 106.651 15.8082C108.032 15.8082 109.412 15.8082 110.834 15.8082C110.137 19.2953 106.419 24.8746 106.419 24.8746L106.187 25.1071L106.071 25.2233C106.071 25.2233 103.747 28.2454 99.0273 30.0762C97.2651 30.5625 95.6207 30.9708 93.8719 30.2215C93.1681 29.4787 93.0891 28.9564 93.0957 27.9483C93.0957 27.6784 93.0958 27.4085 93.0958 27.1305C93.0994 26.8403 93.103 26.5502 93.1067 26.2513C93.1077 25.9533 93.1087 25.6553 93.1097 25.3483C93.1124 24.558 93.1192 23.7677 93.1269 22.9773C93.1341 22.1701 93.1373 21.3629 93.1408 20.5557C93.1482 18.9731 93.1605 17.3907 93.1748 15.8082Z" fill="#FDF5E8"/>
<path d="M151.961 10.9262C153.188 10.9262 154.415 10.9262 155.679 10.9262C155.679 12.5372 155.679 14.1483 155.679 15.8081C156.329 15.8041 156.329 15.8041 156.992 15.8C157.556 15.7978 158.12 15.7957 158.685 15.7936C158.971 15.7916 159.257 15.7897 159.552 15.7877C159.96 15.7866 159.96 15.7866 160.376 15.7854C160.753 15.7836 160.753 15.7836 161.139 15.7817C161.72 15.8081 161.72 15.8081 161.952 16.0406C161.975 16.4954 161.982 16.951 161.981 17.4064C161.982 17.7795 161.982 17.7795 161.983 18.1601C161.952 18.8303 161.952 18.8303 161.72 19.5277C159.803 19.5277 157.886 19.5277 155.911 19.5277C155.834 23.1333 155.758 26.739 155.679 30.4539C154.452 30.4539 153.225 30.4539 151.961 30.4539C151.685 29.9016 151.708 29.5907 151.723 28.9758C151.728 28.7664 151.733 28.557 151.738 28.3413C151.744 28.1149 151.75 27.8884 151.757 27.6551C151.762 27.4236 151.768 27.1921 151.773 26.9535C151.791 26.212 151.811 25.4707 151.83 24.7293C151.843 24.2274 151.855 23.7255 151.867 23.2236C151.897 21.9916 151.929 20.7597 151.961 19.5277C150.427 19.5277 148.894 19.5277 147.314 19.5277C147.314 18.3002 147.314 17.0728 147.314 15.8081C148.771 15.8081 150.227 15.8081 151.728 15.8081C151.719 14.3754 151.719 14.3754 151.708 12.9427C151.707 12.7646 151.706 12.5864 151.706 12.4028C151.704 12.1289 151.704 12.1289 151.702 11.8494C151.728 11.3912 151.728 11.3912 151.961 10.9262Z" fill="#FDF5E8"/>
<path d="M209.818 15.8081C211.044 15.8081 212.271 15.8081 213.535 15.8081C213.725 16.7554 213.798 17.507 213.801 18.46C213.803 18.7565 213.804 19.0529 213.806 19.3583C213.806 19.6802 213.807 20.0021 213.807 20.3241C213.807 20.6567 213.808 20.9894 213.809 21.3221C213.81 22.0187 213.811 22.7153 213.811 23.412C213.811 24.3007 213.814 25.1894 213.818 26.0781C213.821 26.7652 213.821 27.4522 213.821 28.1393C213.821 28.4668 213.822 28.7942 213.824 29.1216C213.847 33.7105 213.847 33.7105 212.141 35.5683C210.11 37.2389 207.888 36.9977 205.403 36.8759C205.087 36.8623 204.771 36.849 204.454 36.836C203.686 36.8032 202.918 36.7673 202.15 36.7306C202.15 35.5032 202.15 34.2757 202.15 33.0111C204.604 32.9343 207.057 32.8576 209.585 32.7786C209.662 27.1783 209.739 21.5781 209.818 15.8081Z" fill="#FDF6E8"/>
<path d="M186.654 15.7553C186.947 15.7554 186.947 15.7554 187.246 15.7554C187.454 15.7578 187.663 15.7602 187.878 15.7627C188.201 15.7637 188.201 15.7637 188.531 15.7647C189.217 15.7673 189.904 15.7731 190.59 15.779C191.056 15.7814 191.522 15.7835 191.988 15.7854C193.129 15.7905 194.27 15.7986 195.412 15.8081C195.457 16.3407 195.5 16.8735 195.542 17.4064C195.579 17.8514 195.579 17.8514 195.616 18.3054C195.644 19.0627 195.644 19.0627 195.412 19.5277C191.041 19.6427 191.041 19.6427 186.582 19.7601C186.314 20.2962 186.314 20.62 186.302 21.2168C186.297 21.4216 186.293 21.6263 186.288 21.8373C186.282 22.1693 186.282 22.1693 186.276 22.508C186.271 22.7344 186.266 22.9608 186.261 23.194C186.246 23.9188 186.233 24.6437 186.219 25.3685C186.209 25.8592 186.199 26.3499 186.189 26.8406C186.164 28.045 186.14 29.2494 186.117 30.4539C184.89 30.4539 183.664 30.4539 182.4 30.4539C182.224 29.7524 182.136 29.278 182.126 28.5803C182.123 28.3971 182.12 28.2138 182.117 28.025C182.115 27.8286 182.114 27.6323 182.112 27.4299C182.11 27.2252 182.108 27.0204 182.106 26.8095C182.103 26.3761 182.1 25.9427 182.099 25.5093C182.096 25.0692 182.091 24.6292 182.084 24.1891C182.001 18.8447 182.001 18.8447 183.51 17.2237C184.447 16.3577 185.35 15.7475 186.654 15.7553Z" fill="#FDF6E8"/>
<path d="M57.8566 9.53137C59.0835 9.53137 60.3103 9.53137 61.5743 9.53137C61.5802 10.0219 61.586 10.5124 61.592 11.0178C61.6114 12.6361 61.632 14.2543 61.6532 15.8725C61.666 16.8539 61.6784 17.8353 61.6899 18.8168C61.701 19.7634 61.7131 20.71 61.7261 21.6565C61.7308 22.0182 61.7352 22.3799 61.7391 22.7416C61.7447 23.247 61.7517 23.7524 61.759 24.2578C61.7644 24.6899 61.7644 24.6899 61.7699 25.1307C61.7612 25.7904 61.7612 25.7904 62.0391 26.2694C62.6384 26.43 62.6384 26.43 63.3315 26.5309C63.7485 26.598 64.1302 26.6181 64.595 26.6181C64.595 27.8455 64.595 29.1892 64.595 30.4539C62.6232 30.5369 61.2054 30.5213 59.4831 29.524C59.3669 29.4078 59.3533 29.3941 59.2508 29.2915C59.0184 29.059 59.1346 29.1753 59.0184 29.059C57.55 27.2017 57.7062 25.1882 57.7432 22.9485C57.7454 22.5606 57.747 22.1726 57.7482 21.7847C57.7526 20.77 57.764 19.7554 57.7769 18.7407C57.7888 17.7028 57.7941 16.6649 57.7999 15.627C57.8123 13.595 57.8327 11.5632 57.8566 9.53137Z" fill="#FDF5E7"/>
<path d="M197.27 15.8081C198.497 15.8081 199.724 15.8081 200.988 15.8081C201.128 18.647 201.251 21.4743 201.206 24.317C201.219 25.0061 201.289 25.6024 201.453 26.2694C202.22 26.5252 202.833 26.5498 203.641 26.5754C203.932 26.5851 204.224 26.5949 204.524 26.6049C204.828 26.614 205.133 26.6232 205.446 26.6326C205.757 26.6426 206.067 26.6528 206.377 26.663C207.137 26.6877 207.896 26.7114 208.656 26.7343C208.863 27.505 208.919 28.186 208.917 28.9864C208.918 29.3258 208.918 29.3258 208.919 29.672C208.888 30.2214 208.888 30.2214 208.656 30.4539C208.111 30.486 207.574 30.5034 207.029 30.5093C206.864 30.5111 206.699 30.513 206.53 30.5149C206.179 30.5182 205.828 30.5207 205.477 30.5225C204.947 30.5264 204.417 30.5366 203.886 30.5469C201.816 30.5694 199.989 30.5374 198.396 29.059C198.293 28.9056 198.19 28.7522 198.084 28.5941C197.976 28.4407 197.868 28.2872 197.757 28.1291C197.308 27.3078 197.241 26.552 197.244 25.6257C197.244 25.4071 197.244 25.1884 197.244 24.9631C197.245 24.7289 197.246 24.4947 197.248 24.2534C197.248 24.0122 197.248 23.771 197.249 23.5225C197.25 22.7527 197.253 21.9829 197.256 21.2131C197.257 20.6909 197.258 20.1688 197.259 19.6466C197.262 18.3671 197.266 17.0876 197.27 15.8081Z" fill="#FDF5E7"/>
<path d="M66.9186 10.9262C68.1454 10.9262 69.3723 10.9262 70.6363 10.9262C70.9804 11.6148 70.9009 12.3139 70.8987 13.0687C70.8991 13.2415 70.8995 13.4143 70.8999 13.5923C70.901 14.1653 70.9003 14.7384 70.8995 15.3114C70.8997 15.7093 70.8999 16.1072 70.9002 16.505C70.9005 17.3401 70.9 18.1752 70.8989 19.0102C70.8976 20.0796 70.8984 21.149 70.8998 22.2184C70.9006 23.0407 70.9003 23.8629 70.8997 24.6852C70.8996 25.0794 70.8998 25.4736 70.9003 25.8678C70.9009 26.4198 70.9 26.9717 70.8987 27.5237C70.8992 27.6862 70.8996 27.8487 70.9001 28.0161C70.8964 28.8801 70.808 29.5947 70.6363 30.4539C69.4094 30.4539 68.1826 30.4539 66.9186 30.4539C66.9186 24.0098 66.9186 17.5656 66.9186 10.9262Z" fill="#FDF6E8"/>
<path d="M57.8567 9.53137C59.0835 9.53137 60.3104 9.53137 61.5744 9.53137C61.5744 9.6848 61.5744 9.83824 61.5744 9.99632C61.042 10.0415 60.5095 10.0847 59.9769 10.1271C59.5321 10.1635 59.5321 10.1635 59.0784 10.2006C58.3214 10.2288 58.3214 10.2288 57.8567 9.99632C57.8567 9.84289 57.8567 9.68945 57.8567 9.53137Z" fill="#FCFAF3"/>
<path d="M62.5038 26.5018C63.1172 26.5785 63.7306 26.6553 64.3626 26.7343C64.3626 26.8877 64.3626 27.0412 64.3626 27.1992C63.7492 27.1992 63.1358 27.1992 62.5038 27.1992C62.5038 26.9691 62.5038 26.739 62.5038 26.5018Z" fill="#FDFBF3"/>
<path d="M176.823 29.059C177.13 29.2125 177.436 29.3659 177.752 29.524C177.143 30.0247 176.673 30.3145 175.894 30.4539C175.817 30.3004 175.74 30.147 175.661 29.9889C175.81 29.9218 175.958 29.8547 176.111 29.7855C176.626 29.5639 176.626 29.5639 176.823 29.059Z" fill="#FEFBF2"/>
<path d="M24.3973 38.8229C25.7334 39.2588 25.7334 39.2588 26.2562 39.5203C26.2562 39.6737 26.2562 39.8272 26.2562 39.9852C25.9495 39.9852 25.6428 39.9852 25.3268 39.9852C25.3268 39.8318 25.3268 39.6784 25.3268 39.5203C25.0201 39.3669 24.7133 39.2134 24.3973 39.0553C24.3973 38.9786 24.3973 38.9019 24.3973 38.8229Z" fill="#2E200E"/>
</svg>
