<svg width="1158" height="346" viewBox="0 0 1158 346" fill="none" xmlns="http://www.w3.org/2000/svg">
<path d="M147.425 218.435C150.664 219.945 153.909 221.443 157.154 222.939C158.026 223.342 158.897 223.744 159.795 224.158C167.126 227.526 174.511 230.76 181.915 233.959C183.076 234.46 184.236 234.962 185.432 235.478C190.075 237.482 194.72 239.483 199.369 241.474C236.088 257.205 236.088 257.205 240.027 261.198C240.137 263.932 240.161 266.67 240.15 269.406C240.145 271.069 240.141 272.732 240.137 274.445C240.127 276.214 240.116 277.984 240.105 279.753C240.099 281.527 240.093 283.302 240.088 285.076C240.073 289.433 240.053 293.791 240.027 298.148C238.783 298.779 238.783 298.779 237.513 299.422C234.414 298.314 234.414 298.314 230.415 296.496C229.676 296.164 228.937 295.832 228.176 295.49C226.547 294.757 224.92 294.019 223.294 293.277C218.799 291.227 214.29 289.208 209.783 287.184C208.807 286.744 207.831 286.304 206.825 285.852C192.731 279.511 178.554 273.365 164.39 267.188C162.057 266.17 159.725 265.152 157.394 264.133C155.187 263.169 152.98 262.208 150.772 261.249C144.083 258.333 137.5 255.264 131.028 251.874C124.159 249.777 118.187 253.207 112.081 256.236C110.406 257.052 108.731 257.866 107.054 258.677C106.189 259.095 105.324 259.514 104.432 259.945C100.111 261.995 95.7328 263.904 91.3453 265.802C90.4622 266.185 89.5791 266.567 88.6693 266.961C86.8532 267.746 85.0367 268.53 83.2197 269.313C78.4149 271.383 73.6145 273.463 68.8133 275.542C67.8673 275.952 66.9213 276.361 65.9466 276.783C57.7218 280.342 49.5131 283.938 41.3136 287.557C40.2007 288.048 39.0877 288.539 37.9411 289.044C36.8995 289.504 35.8579 289.965 34.7847 290.439C33.3164 291.085 33.3164 291.085 31.8185 291.745C29.8033 292.648 27.7984 293.576 25.8026 294.523C24.8075 294.992 23.8125 295.461 22.7873 295.943C21.9078 296.367 21.0284 296.79 20.1223 297.227C17.5936 298.148 17.5936 298.148 12.5669 298.148C12.2002 292.982 11.8846 287.815 11.6158 282.642C11.5173 280.883 11.4049 279.126 11.2783 277.37C11.0986 274.842 10.973 272.31 10.8488 269.779C10.7106 267.497 10.7106 267.497 10.5696 265.169C11.3102 261.198 11.3102 261.198 14.6305 258.335C18.5519 256.26 22.4394 254.321 26.5082 252.563C27.9912 251.917 29.4742 251.271 31.0021 250.606C32.6065 249.916 34.211 249.226 35.8156 248.537C37.4932 247.809 39.1705 247.08 40.8475 246.35C44.3349 244.834 47.8237 243.321 51.3136 241.81C58.7501 238.588 66.1677 235.322 73.5857 232.057C75.9429 231.021 78.3018 229.989 80.6613 228.959C88.0515 225.728 95.4161 222.453 102.734 219.057C104.052 218.453 105.37 217.849 106.728 217.227C109.168 216.105 111.601 214.967 114.024 213.808C126.935 207.915 135.223 212.664 147.425 218.435Z" fill="white"/>
<path d="M906.454 86.2712C907.511 86.255 908.569 86.2387 909.658 86.222C911.356 86.2177 911.356 86.2177 913.089 86.2134C914.264 86.2049 915.438 86.1964 916.648 86.1877C919.13 86.1748 921.613 86.1688 924.095 86.1692C927.882 86.1636 931.668 86.1174 935.454 86.069C937.87 86.0616 940.285 86.0565 942.7 86.0541C944.391 86.0266 944.391 86.0266 946.116 85.9986C954.946 86.0636 959.243 88.871 965.998 94.6048C973.78 103.988 973.254 114.36 973.145 126.06C973.16 127.62 973.174 129.179 973.189 130.786C973.157 140.817 972.942 150.314 966.557 158.426C965.725 159.098 964.892 159.77 964.034 160.462C963.208 161.157 962.382 161.851 961.531 162.567C954.973 166.963 949.224 167.319 941.586 167.34C940.53 167.349 939.475 167.357 938.388 167.366C936.161 167.379 933.933 167.385 931.705 167.384C928.321 167.39 924.939 167.436 921.555 167.485C919.383 167.492 917.21 167.497 915.038 167.499C913.537 167.527 913.537 167.527 912.006 167.555C903.753 167.488 897.292 165.065 890.96 159.636C890.399 158.936 889.839 158.236 889.261 157.515C888.391 156.476 888.391 156.476 887.504 155.415C882.129 146.634 883.032 136.879 883.056 126.936C883.036 125.294 883.016 123.651 882.995 121.959C882.99 111.843 883.153 103.599 889.335 95.2518C890.062 94.5653 890.79 93.8787 891.539 93.1714C892.263 92.4651 892.987 91.7589 893.733 91.0312C897.837 87.7203 901.206 86.3263 906.454 86.2712ZM906.156 108.517C904.261 111.808 904.366 114.304 904.4 118.102C904.407 119.515 904.413 120.928 904.42 122.384C904.446 123.86 904.472 125.336 904.499 126.856C904.505 128.337 904.512 129.818 904.518 131.343C904.246 138.52 904.246 138.52 906.07 145.252C910.23 146.658 913.348 146.691 917.728 146.695C919.281 146.697 920.834 146.698 922.433 146.7C924.057 146.695 925.681 146.69 927.355 146.685C928.974 146.69 930.593 146.695 932.261 146.7C933.815 146.698 935.37 146.697 936.971 146.695C939.107 146.693 939.107 146.693 941.286 146.691C944.47 146.55 947.074 146.373 950.053 145.252C952.705 139.875 951.543 132.763 951.546 126.856C951.569 124.643 951.569 124.643 951.592 122.384C951.595 120.971 951.597 119.558 951.6 118.102C951.605 116.803 951.61 115.505 951.615 114.168C951.544 110.55 951.544 110.55 948.797 107.028C944.712 106.43 944.712 106.43 939.887 106.52C939.007 106.516 938.127 106.513 937.22 106.509C935.358 106.506 933.495 106.513 931.633 106.529C928.783 106.55 925.936 106.53 923.086 106.505C921.277 106.508 919.468 106.512 917.659 106.52C916.01 106.524 914.361 106.529 912.663 106.533C908.699 106.725 908.699 106.725 906.156 108.517Z" fill="white"/>
<path d="M906.454 86.2712C907.511 86.255 908.569 86.2387 909.658 86.222C911.356 86.2177 911.356 86.2177 913.089 86.2134C914.264 86.2049 915.438 86.1964 916.648 86.1877C919.13 86.1748 921.613 86.1688 924.095 86.1692C927.882 86.1636 931.668 86.1174 935.454 86.069C937.87 86.0616 940.285 86.0565 942.7 86.0541C944.391 86.0266 944.391 86.0266 946.116 85.9986C954.946 86.0636 959.243 88.871 965.998 94.6048C973.78 103.988 973.254 114.36 973.145 126.06C973.16 127.62 973.174 129.179 973.189 130.786C973.157 140.817 972.942 150.314 966.557 158.426C965.725 159.098 964.892 159.77 964.034 160.462C963.208 161.157 962.382 161.851 961.531 162.567C954.973 166.963 949.224 167.319 941.586 167.34C940.53 167.349 939.475 167.357 938.388 167.366C936.161 167.379 933.933 167.385 931.705 167.384C928.321 167.39 924.939 167.436 921.555 167.485C919.383 167.492 917.21 167.497 915.038 167.499C913.537 167.527 913.537 167.527 912.006 167.555C903.753 167.488 897.292 165.065 890.96 159.636C890.399 158.936 889.839 158.236 889.261 157.515C888.391 156.476 888.391 156.476 887.504 155.415C882.129 146.634 883.032 136.879 883.056 126.936C883.036 125.294 883.016 123.651 882.995 121.959C882.99 111.843 883.153 103.599 889.335 95.2518C890.062 94.5653 890.79 93.8787 891.539 93.1714C892.263 92.4651 892.987 91.7589 893.733 91.0312C897.837 87.7203 901.206 86.3263 906.454 86.2712ZM906.156 108.517C904.261 111.808 904.366 114.304 904.4 118.102C904.407 119.515 904.413 120.928 904.42 122.384C904.446 123.86 904.472 125.336 904.499 126.856C904.505 128.337 904.512 129.818 904.518 131.343C904.246 138.52 904.246 138.52 906.07 145.252C910.23 146.658 913.348 146.691 917.728 146.695C919.281 146.697 920.834 146.698 922.433 146.7C924.057 146.695 925.681 146.69 927.355 146.685C928.974 146.69 930.593 146.695 932.261 146.7C933.815 146.698 935.37 146.697 936.971 146.695C939.107 146.693 939.107 146.693 941.286 146.691C944.47 146.55 947.074 146.373 950.053 145.252C952.705 139.875 951.543 132.763 951.546 126.856C951.569 124.643 951.569 124.643 951.592 122.384C951.595 120.971 951.597 119.558 951.6 118.102C951.605 116.803 951.61 115.505 951.615 114.168C951.544 110.55 951.544 110.55 948.797 107.028C944.712 106.43 944.712 106.43 939.887 106.52C939.007 106.516 938.127 106.513 937.22 106.509C935.358 106.506 933.495 106.513 931.633 106.529C928.783 106.55 925.936 106.53 923.086 106.505C921.277 106.508 919.468 106.512 917.659 106.52C916.01 106.524 914.361 106.529 912.663 106.533C908.699 106.725 908.699 106.725 906.156 108.517Z" fill="white"/>
<path d="M240.478 86.1238C241.614 86.1093 242.75 86.0947 243.92 86.0798C246.32 86.0557 248.72 86.0391 251.12 86.0292C254.764 86.0045 258.405 85.9255 262.048 85.8451C283.143 85.5997 283.143 85.5997 290.965 92.1853C299.554 101.981 299.39 111.903 299.462 124.457C299.476 126.207 299.502 127.957 299.539 129.706C299.79 141.499 299.72 150.073 291.87 159.297C291.168 159.865 290.467 160.434 289.744 161.019C289.046 161.607 288.348 162.195 287.629 162.801C281.213 167.047 275.439 167.319 268.003 167.34C266.948 167.349 265.892 167.357 264.805 167.366C262.578 167.379 260.35 167.385 258.123 167.384C254.738 167.39 251.356 167.436 247.972 167.484C245.8 167.492 243.627 167.497 241.455 167.499C239.955 167.527 239.955 167.527 238.424 167.555C229.945 167.486 223.357 164.995 217.058 159.168C216.369 158.255 215.681 157.341 214.972 156.4C213.905 155.05 213.905 155.05 212.817 153.673C208.408 145.018 209.596 133.735 209.552 124.228C209.526 122.841 209.5 121.453 209.474 120.023C209.429 110.592 210.031 103.08 215.708 95.2518C216.782 94.222 216.782 94.222 217.878 93.1714C218.587 92.4651 219.297 91.7589 220.028 91.0312C226.397 86.1553 232.811 86.2002 240.478 86.1238ZM232.571 108.512C230.682 111.806 230.783 114.303 230.818 118.102C230.824 119.515 230.83 120.928 230.837 122.384C230.863 123.86 230.889 125.336 230.916 126.856C230.922 128.337 230.929 129.818 230.935 131.343C230.664 138.52 230.664 138.52 232.487 145.252C239.468 147.865 247.793 146.761 255.107 146.765C257.527 146.788 257.527 146.788 259.996 146.812C261.545 146.815 263.094 146.817 264.689 146.82C266.105 146.825 267.521 146.83 268.98 146.835C272.669 146.529 274.763 146.209 277.727 143.978C279.831 138.637 279.215 132.522 279.22 126.856C279.243 125.239 279.243 125.239 279.266 123.589C279.279 117.943 279.162 113.404 276.471 108.302C273.061 104.845 263.073 106.734 258.145 106.722C255.284 106.709 252.425 106.67 249.565 106.629C247.75 106.621 245.935 106.614 244.121 106.61C241.635 106.592 241.635 106.592 239.1 106.573C235.119 106.72 235.119 106.72 232.571 108.512Z" fill="white"/>
<path d="M624.842 86.2915C625.874 86.2793 626.906 86.2672 627.969 86.2546C629.074 86.2558 630.179 86.257 631.317 86.2582C632.464 86.2527 633.61 86.2472 634.791 86.2416C637.215 86.2343 639.638 86.2337 642.061 86.2392C645.757 86.2432 649.451 86.2133 653.147 86.181C655.505 86.1781 657.863 86.1772 660.221 86.1785C661.321 86.1668 662.421 86.1551 663.554 86.143C670.987 86.1997 676.491 87.3117 682.164 92.609C682.753 93.3464 683.343 94.0839 683.951 94.8437C684.553 95.5778 685.156 96.312 685.777 97.0684C691.094 104.62 690.754 111.987 689.92 121.043C687.986 128.725 683.575 132.921 677.353 137.443C671.893 140.568 666.381 140.325 660.25 140.28C659.337 140.278 658.424 140.276 657.483 140.274C654.576 140.267 651.67 140.251 648.763 140.235C646.788 140.228 644.813 140.223 642.838 140.217C638.006 140.204 633.174 140.18 628.342 140.155C628.342 133.848 628.342 127.541 628.342 121.043C633.269 120.044 637.382 119.555 642.343 119.411C643.791 119.363 645.239 119.315 646.731 119.266C649.781 119.176 652.831 119.087 655.881 118.998C657.323 118.95 658.765 118.902 660.25 118.853C661.573 118.815 662.895 118.776 664.257 118.736C667.235 118.836 667.235 118.836 668.556 117.221C668.646 115.498 668.662 113.77 668.635 112.045C668.609 110.389 668.583 108.733 668.556 107.028C662.719 106.933 656.883 106.864 651.045 106.818C649.059 106.798 647.074 106.772 645.088 106.739C642.234 106.693 639.38 106.671 636.525 106.654C635.638 106.635 634.75 106.615 633.836 106.595C630.32 106.593 627.703 106.652 624.647 108.512C621.607 113.85 622.674 120.79 622.687 126.777C622.634 128.982 622.634 128.982 622.579 131.231C622.576 132.639 622.573 134.046 622.569 135.497C622.561 136.787 622.552 138.077 622.542 139.406C623.028 142.917 623.028 142.917 626.002 145.024C630.099 146.735 633.21 147.072 637.635 147.178C639.146 147.223 640.656 147.268 642.212 147.315C643.778 147.344 645.344 147.372 646.957 147.402C648.547 147.445 650.137 147.489 651.775 147.534C655.693 147.639 659.611 147.722 663.529 147.8C663.529 154.107 663.529 160.414 663.529 166.912C657.806 167.03 652.087 167.131 646.364 167.192C644.421 167.218 642.478 167.252 640.535 167.297C619.101 167.774 619.101 167.774 609.463 159.68C608.622 158.648 608.622 158.648 607.764 157.595C607.184 156.917 606.604 156.238 606.007 155.539C600.801 146.613 601.574 136.829 601.638 126.777C601.628 125.251 601.618 123.725 601.608 122.153C601.632 111.203 601.666 102.902 609.335 94.5251C610.187 93.5709 611.039 92.6166 611.917 91.6334C615.975 87.8222 619.318 86.3273 624.842 86.2915Z" fill="white"/>
<path d="M138.451 86.3826C140.176 86.3717 140.176 86.3717 141.936 86.3606C144.375 86.3485 146.813 86.3402 149.251 86.3353C152.969 86.323 156.686 86.2835 160.404 86.2432C162.773 86.2349 165.143 86.2282 167.512 86.2233C168.62 86.2076 169.728 86.1919 170.869 86.1757C178.338 86.2029 183.84 87.2838 189.543 92.609C190.133 93.3464 190.723 94.0839 191.33 94.8437C191.933 95.5778 192.536 96.312 193.156 97.0684C197.153 102.743 197.715 107.477 197.766 114.374C197.777 115.332 197.789 116.291 197.8 117.278C197.818 119.304 197.83 121.331 197.834 123.357C197.849 126.431 197.911 129.502 197.974 132.575C198.161 150.363 198.161 150.363 192.808 157.467C184.62 165.691 177.94 167.109 166.565 167.171C165.017 167.182 165.017 167.182 163.438 167.193C161.256 167.205 159.075 167.213 156.894 167.218C153.576 167.231 150.259 167.27 146.941 167.31C144.817 167.319 142.692 167.325 140.567 167.33C139.584 167.346 138.6 167.362 137.587 167.378C129.369 167.344 123.492 165.651 117.186 159.984C108.863 150.374 108.988 142.514 108.892 130.107C108.871 128.164 108.837 126.22 108.789 124.277C108.47 111.345 108.993 102.651 118.065 92.9374C118.785 92.3577 119.506 91.7779 120.249 91.1805C120.98 90.5777 121.71 89.975 122.463 89.3539C127.403 85.7078 132.576 86.4111 138.451 86.3826ZM130.768 109.864C129.429 113.424 128.969 115.906 128.982 119.694C128.983 120.858 128.984 122.022 128.984 123.221C129.005 124.42 129.025 125.62 129.046 126.856C129.042 128.061 129.038 129.266 129.034 130.507C128.958 138.269 128.958 138.269 131.952 145.252C136.112 146.658 139.231 146.691 143.611 146.695C145.163 146.697 146.716 146.698 148.316 146.7C149.94 146.695 151.564 146.69 153.237 146.685C154.856 146.69 156.475 146.695 158.143 146.7C159.698 146.698 161.252 146.697 162.854 146.695C164.989 146.693 164.989 146.693 167.168 146.691C170.352 146.55 172.957 146.373 175.936 145.252C178.668 139.711 177.425 132.226 177.428 126.14C177.451 123.819 177.451 123.819 177.475 121.451C177.477 119.976 177.48 118.501 177.482 116.982C177.487 115.624 177.493 114.265 177.498 112.866C177.521 109.367 177.521 109.367 174.679 107.028C171.571 106.727 168.607 106.579 165.495 106.555C164.587 106.543 163.679 106.532 162.743 106.52C160.822 106.501 158.9 106.49 156.979 106.485C154.037 106.47 151.099 106.408 148.159 106.343C146.293 106.331 144.426 106.322 142.56 106.316C141.68 106.291 140.801 106.266 139.894 106.24C135.521 106.282 133.702 106.455 130.768 109.864Z" fill="white"/>
<path d="M711.934 85.9617C713.051 85.9416 714.167 85.9214 715.318 85.9006C716.517 85.9069 717.716 85.9132 718.951 85.9197C720.197 85.9118 721.444 85.9039 722.727 85.8958C725.366 85.8868 728.005 85.8908 730.644 85.907C734.649 85.9245 738.651 85.8814 742.656 85.8326C745.227 85.8314 747.798 85.8338 750.368 85.8401C751.552 85.8232 752.736 85.8063 753.956 85.7889C764.14 85.9315 772.177 89.1931 779.969 95.8739C788.833 106.556 790.608 116.106 790.621 130.007C790.623 131.668 790.625 133.33 790.626 135.041C790.624 135.895 790.621 136.748 790.618 137.627C790.612 140.233 790.618 142.838 790.626 145.443C790.625 147.103 790.623 148.763 790.621 150.473C790.62 151.977 790.619 153.482 790.617 155.032C790.455 159.267 790.455 159.267 789.198 166.912C782.563 166.912 775.927 166.912 769.091 166.912C769.073 165.485 769.054 164.059 769.035 162.589C768.962 157.274 768.865 151.96 768.761 146.646C768.719 144.35 768.684 142.054 768.656 139.758C768.613 136.449 768.547 133.141 768.477 129.833C768.469 128.813 768.461 127.793 768.453 126.743C768.295 120.6 767.622 116.054 764.064 110.85C759.368 108.025 754.854 107.924 749.47 107.774C747.903 107.725 746.335 107.676 744.721 107.625C743.095 107.585 741.469 107.546 739.794 107.505C738.145 107.456 736.495 107.407 734.795 107.356C730.728 107.236 726.661 107.127 722.594 107.028C722.603 109.409 722.603 109.409 722.614 111.839C722.636 117.74 722.651 123.64 722.663 129.541C722.669 132.093 722.678 134.645 722.688 137.197C722.704 140.869 722.711 144.541 722.716 148.213C722.723 149.351 722.729 150.488 722.736 151.661C722.736 153.267 722.736 153.267 722.736 154.906C722.739 155.842 722.742 156.779 722.745 157.744C722.594 160.541 722.594 160.541 721.337 166.912C714.702 166.912 708.066 166.912 701.23 166.912C701.116 157.199 701.024 147.486 700.97 137.772C700.943 133.261 700.908 128.751 700.851 124.24C700.786 119.054 700.761 113.867 700.739 108.68C700.713 107.062 700.687 105.444 700.66 103.777C700.66 102.272 700.66 100.768 700.659 99.2173C700.648 97.8932 700.637 96.569 700.625 95.2048C701.769 88.647 705.58 86.013 711.934 85.9617Z" fill="white"/>
<path d="M411.587 85.9617C412.703 85.9416 413.82 85.9214 414.97 85.9006C416.169 85.9069 417.368 85.9132 418.604 85.9197C419.85 85.9118 421.096 85.9039 422.38 85.8958C425.019 85.8868 427.657 85.8908 430.296 85.907C434.302 85.9245 438.303 85.8814 442.309 85.8326C444.879 85.8314 447.45 85.8338 450.021 85.8401C451.204 85.8232 452.388 85.8063 453.608 85.7889C463.792 85.9315 471.829 89.1931 479.621 95.8739C480.386 96.7954 481.151 97.7168 481.938 98.6661C482.729 99.5842 483.52 100.502 484.334 101.448C493.019 114.591 490.185 133.86 489.557 148.835C489.49 150.601 489.424 152.367 489.358 154.133C489.197 158.393 489.025 162.653 488.85 166.912C482.215 166.912 475.58 166.912 468.743 166.912C468.725 165.485 468.707 164.059 468.688 162.589C468.615 157.274 468.518 151.96 468.413 146.646C468.372 144.35 468.337 142.054 468.308 139.758C468.266 136.449 468.2 133.141 468.13 129.833C468.122 128.813 468.114 127.793 468.105 126.743C467.948 120.6 467.274 116.054 463.717 110.85C458.952 107.967 454.314 107.921 448.847 107.774C447.383 107.729 445.919 107.683 444.411 107.637C442.565 107.593 440.72 107.55 438.818 107.505C432.935 107.348 427.051 107.19 420.989 107.028C420.989 126.79 420.989 146.551 420.989 166.912C414.354 166.912 407.719 166.912 400.882 166.912C400.769 157.199 400.677 147.486 400.622 137.772C400.596 133.261 400.56 128.751 400.503 124.24C400.438 119.054 400.414 113.867 400.391 108.68C400.365 107.062 400.34 105.444 400.313 103.777C400.312 102.272 400.312 100.768 400.312 99.2173C400.3 97.8932 400.289 96.569 400.278 95.2048C401.421 88.647 405.232 86.013 411.587 85.9617Z" fill="white"/>
<path d="M12.9793 59.726C13.9384 59.7306 14.8975 59.7351 15.8856 59.7399C17.3935 59.7396 17.3935 59.7396 18.9319 59.7393C22.2706 59.7402 25.6092 59.7501 28.9479 59.7601C31.2565 59.7625 33.5651 59.7643 35.8736 59.7655C41.9621 59.7704 48.0505 59.7829 54.1389 59.797C60.3468 59.81 66.5546 59.8159 72.7625 59.8223C84.9522 59.836 97.1419 59.8584 109.332 59.8845C109.332 66.612 109.332 73.3394 109.332 80.2707C109.331 80.9079 109.331 81.545 109.331 81.545C100.535 81.545 76.6576 81.545 69.1176 81.5449C68.7029 109.716 68.2882 137.887 67.861 166.912C60.811 166.912 53.761 166.912 46.4973 166.912C46.0826 138.741 45.6679 110.57 45.2406 81.5449C32.7995 81.5449 17.8448 81.5448 5.02667 81.5448C5.0266 80.2707 5.03984 81.4974 5.02673 80.2707C4.99299 77.1118 4.96796 73.9533 4.94819 70.7943C4.9324 69.443 4.9324 69.443 4.91628 68.0644C4.90542 65.7622 4.961 62.1857 5.0266 59.8845C10.1059 59.7261 10.0613 59.7319 12.9793 59.726Z" fill="white"/>
<path d="M503.93 86.6415C510.566 86.6415 517.201 86.6415 524.037 86.6415C524.452 105.983 524.867 125.324 525.294 145.252C546.388 138.836 557.484 127.377 568.076 108.12C571.584 101.214 574.139 93.9073 576.818 86.6415C584.283 86.6415 591.747 86.6415 599.438 86.6415C595.668 105.754 575.561 136.333 575.561 136.333L574.305 137.607L573.676 138.244C573.676 138.244 561.109 154.808 535.583 164.842C526.052 167.507 517.159 169.745 507.7 165.638C503.894 161.567 503.467 158.705 503.502 153.179C503.503 151.7 503.503 150.221 503.503 148.697C503.523 147.107 503.542 145.517 503.562 143.878C503.567 142.245 503.573 140.612 503.578 138.93C503.593 134.598 503.63 130.266 503.671 125.934C503.71 121.51 503.727 117.086 503.746 112.662C503.787 103.988 503.853 95.3149 503.93 86.6415Z" fill="white"/>
<path d="M821.872 59.8845C828.507 59.8845 835.142 59.8845 841.979 59.8845C841.979 68.7143 841.979 77.5441 841.979 86.6414C845.495 86.6193 845.495 86.6193 849.082 86.5966C852.134 86.5847 855.185 86.5731 858.237 86.5618C859.785 86.5511 861.333 86.5404 862.927 86.5294C865.133 86.5233 865.133 86.5233 867.382 86.517C869.426 86.507 869.426 86.507 871.51 86.4968C874.652 86.6414 874.652 86.6414 875.909 87.9156C876.034 90.4081 876.072 92.9054 876.066 95.4011C876.071 97.446 876.071 97.446 876.076 99.5321C875.909 103.205 875.909 103.205 874.652 107.028C864.285 107.028 853.917 107.028 843.235 107.028C842.821 126.79 842.406 146.551 841.979 166.912C835.343 166.912 828.708 166.912 821.872 166.912C820.379 163.885 820.504 162.181 820.588 158.811C820.613 157.664 820.638 156.516 820.664 155.333C820.698 154.092 820.732 152.851 820.767 151.573C820.797 150.304 820.826 149.035 820.857 147.727C820.953 143.663 821.059 139.6 821.165 135.536C821.232 132.786 821.298 130.035 821.364 127.284C821.525 120.532 821.699 113.78 821.872 107.028C813.577 107.028 805.283 107.028 796.738 107.028C796.738 100.3 796.738 93.5727 796.738 86.6414C804.617 86.6414 812.497 86.6414 820.615 86.6414C820.565 78.7891 820.565 78.7891 820.502 70.9368C820.499 69.9602 820.495 68.9835 820.492 67.9773C820.482 66.476 820.482 66.476 820.472 64.9444C820.615 62.4328 820.615 62.4328 821.872 59.8845Z" fill="white"/>
<path d="M1134.79 86.6414C1141.42 86.6414 1148.06 86.6414 1154.89 86.6414C1155.92 91.8332 1156.31 95.953 1156.33 101.176C1156.34 102.801 1156.35 104.426 1156.36 106.099C1156.36 107.864 1156.36 109.628 1156.36 111.393C1156.36 113.216 1156.37 115.039 1156.37 116.862C1156.38 120.681 1156.38 124.499 1156.38 128.317C1156.38 133.188 1156.4 138.058 1156.42 142.929C1156.44 146.695 1156.44 150.461 1156.44 154.227C1156.44 156.021 1156.44 157.816 1156.45 159.61C1156.58 184.761 1156.58 184.761 1147.35 194.943C1136.37 204.1 1124.35 202.778 1110.91 202.11C1109.2 202.036 1107.49 201.963 1105.78 201.891C1101.62 201.712 1097.47 201.515 1093.32 201.314C1093.32 194.586 1093.32 187.859 1093.32 180.928C1106.59 180.507 1119.86 180.087 1133.53 179.654C1133.94 148.96 1134.36 118.266 1134.79 86.6414Z" fill="white"/>
<path d="M1009.51 86.3521C1011.09 86.3524 1011.09 86.3524 1012.71 86.3527C1013.84 86.3659 1014.96 86.379 1016.13 86.3926C1017.87 86.398 1017.87 86.398 1019.66 86.4035C1023.37 86.4177 1027.08 86.4497 1030.8 86.4822C1033.32 86.4949 1035.84 86.5066 1038.36 86.517C1044.53 86.5451 1050.7 86.589 1056.87 86.6414C1057.12 89.5606 1057.35 92.4807 1057.58 95.4011C1057.78 97.8402 1057.78 97.8402 1057.98 100.328C1058.13 104.479 1058.13 104.479 1056.87 107.028C1033.23 107.658 1033.23 107.658 1009.12 108.302C1007.67 111.24 1007.67 113.014 1007.6 116.286C1007.58 117.408 1007.55 118.53 1007.53 119.686C1007.5 121.506 1007.5 121.506 1007.46 123.362C1007.44 124.603 1007.41 125.844 1007.38 127.122C1007.3 131.095 1007.23 135.068 1007.15 139.04C1007.1 141.73 1007.04 144.419 1006.99 147.108C1006.85 153.709 1006.73 160.311 1006.6 166.912C999.969 166.912 993.334 166.912 986.497 166.912C985.549 163.068 985.072 160.468 985.018 156.644C985.002 155.639 984.986 154.635 984.969 153.6C984.96 152.524 984.951 151.447 984.941 150.338C984.931 149.216 984.921 148.094 984.91 146.938C984.893 144.563 984.88 142.187 984.87 139.812C984.855 137.4 984.83 134.988 984.792 132.576C984.341 103.285 984.341 103.285 992.504 94.4001C997.57 89.6537 1002.45 86.3091 1009.51 86.3521Z" fill="white"/>
<path d="M312.914 52.2397C319.55 52.2397 326.185 52.2397 333.021 52.2397C333.053 54.9282 333.084 57.6166 333.117 60.3866C333.222 69.2559 333.333 78.1251 333.448 86.9943C333.517 92.3732 333.584 97.7522 333.646 103.131C333.706 108.319 333.772 113.507 333.842 118.696C333.868 120.678 333.891 122.66 333.912 124.642C333.943 127.413 333.98 130.183 334.02 132.953C334.049 135.321 334.049 135.321 334.079 137.737C334.032 141.352 334.032 141.352 335.535 143.978C338.776 144.858 338.776 144.858 342.525 145.411C344.78 145.779 346.845 145.889 349.358 145.889C349.358 152.616 349.358 159.981 349.358 166.912C338.694 167.367 331.026 167.282 321.711 161.816C321.083 161.179 321.009 161.104 320.454 160.541C319.198 159.267 319.826 159.904 319.198 159.267C311.256 149.087 312.101 138.052 312.301 125.776C312.312 123.65 312.321 121.524 312.328 119.398C312.352 113.836 312.413 108.276 312.483 102.715C312.548 97.026 312.576 91.3373 312.608 85.6485C312.675 74.5117 312.785 63.3759 312.914 52.2397Z" fill="white"/>
<path d="M1066.93 86.6414C1073.56 86.6414 1080.2 86.6414 1087.03 86.6414C1087.79 102.201 1088.45 117.697 1088.21 133.277C1088.28 137.054 1088.66 140.322 1089.55 143.978C1093.7 145.38 1097.01 145.515 1101.38 145.655C1102.96 145.708 1104.53 145.762 1106.15 145.817C1107.8 145.867 1109.45 145.917 1111.14 145.968C1112.82 146.024 1114.5 146.079 1116.18 146.135C1120.29 146.271 1124.39 146.401 1128.5 146.526C1129.62 150.75 1129.93 154.482 1129.92 158.869C1129.92 160.729 1129.92 160.729 1129.93 162.627C1129.76 165.638 1129.76 165.638 1128.5 166.912C1125.56 167.088 1122.65 167.184 1119.71 167.216C1118.81 167.226 1117.92 167.236 1117 167.247C1115.11 167.265 1113.21 167.278 1111.31 167.288C1108.44 167.31 1105.57 167.366 1102.71 167.422C1091.51 167.546 1081.63 167.37 1073.01 159.267C1072.45 158.426 1071.9 157.585 1071.32 156.719C1070.74 155.878 1070.16 155.037 1069.56 154.171C1067.13 149.669 1066.77 145.527 1066.78 140.45C1066.78 139.252 1066.78 138.053 1066.78 136.818C1066.79 135.535 1066.8 134.251 1066.8 132.928C1066.8 131.606 1066.81 130.285 1066.81 128.922C1066.81 124.703 1066.83 120.484 1066.85 116.265C1066.85 113.403 1066.86 110.541 1066.86 107.68C1066.88 100.667 1066.9 93.6542 1066.93 86.6414Z" fill="white"/>
<path d="M361.925 59.8845C368.56 59.8845 375.196 59.8845 382.032 59.8845C383.893 63.6583 383.463 67.4902 383.451 71.6271C383.454 72.5741 383.456 73.5212 383.458 74.4969C383.464 77.6376 383.46 80.7782 383.456 83.919C383.456 86.0997 383.458 88.2804 383.459 90.4611C383.461 95.038 383.458 99.6148 383.453 104.192C383.445 110.053 383.449 115.914 383.457 121.775C383.462 126.282 383.46 130.788 383.457 135.295C383.456 137.455 383.457 139.616 383.46 141.776C383.463 144.802 383.458 147.827 383.451 150.853C383.454 151.743 383.456 152.634 383.459 153.551C383.439 158.287 382.961 162.203 382.032 166.912C375.397 166.912 368.761 166.912 361.925 166.912C361.925 131.593 361.925 96.2739 361.925 59.8845Z" fill="white"/>
<path d="M135.722 267.569C137.426 268.26 139.135 268.939 140.847 269.61C142.7 270.36 144.552 271.114 146.404 271.869C147.308 272.225 148.212 272.581 149.144 272.948C155.502 275.681 155.502 275.681 157.036 279.464C157.053 280.585 157.069 281.705 157.086 282.859C157.141 284.153 157.196 285.447 157.252 286.781C157.249 288.114 157.246 289.448 157.243 290.822C157.248 292.842 157.248 292.842 157.252 294.903C157.086 298.148 157.086 298.148 155.829 299.423C153.9 299.541 151.966 299.572 150.034 299.567C148.801 299.567 147.568 299.567 146.298 299.567C144.958 299.56 143.617 299.554 142.236 299.547C140.189 299.544 140.189 299.544 138.1 299.542C133.72 299.534 129.341 299.518 124.962 299.502C122.001 299.496 119.04 299.49 116.079 299.485C108.803 299.471 101.527 299.449 94.2513 299.423C94.2513 292.275 94.2513 285.127 94.2513 277.762C99.2581 275.164 104.28 272.623 109.332 270.117C110.639 269.437 111.946 268.757 113.293 268.057C122.42 263.65 126.758 263.132 135.722 267.569Z" fill="white"/>
<path d="M312.914 52.2397C319.55 52.2397 326.185 52.2397 333.021 52.2397C333.021 53.0806 333.021 53.9215 333.021 54.788C330.142 55.0357 327.262 55.2726 324.382 55.5047C321.976 55.7042 321.976 55.7042 319.522 55.9078C315.428 56.0621 315.428 56.0621 312.914 54.788C312.914 53.947 312.914 53.1061 312.914 52.2397Z" fill="white"/>
<path d="M338.048 145.252C341.366 145.672 344.683 146.093 348.102 146.526C348.102 147.367 348.102 148.208 348.102 149.074C344.784 149.074 341.466 149.074 338.048 149.074C338.048 147.813 338.048 146.551 338.048 145.252Z" fill="white"/>
<path d="M956.337 159.267C957.996 160.108 959.655 160.949 961.364 161.816C958.069 164.56 955.528 166.149 951.31 166.912C950.895 166.071 950.481 165.23 950.053 164.364C950.857 163.996 951.66 163.628 952.488 163.249C955.271 162.034 955.271 162.034 956.337 159.267Z" fill="white"/>
<path d="M131.952 212.781C139.178 215.17 139.178 215.17 142.005 216.604C142.005 217.444 142.005 218.285 142.005 219.152C140.347 219.152 138.688 219.152 136.979 219.152C136.979 218.311 136.979 217.47 136.979 216.604C135.32 215.763 133.661 214.922 131.952 214.055C131.952 213.635 131.952 213.214 131.952 212.781Z" fill="white"/>
</svg>
